<mxfile host="app.diagrams.net" agent="Mozilla/5.0 (Windows NT 10.0; Win64; x64) AppleWebKit/537.36 (KHTML, like Gecko) Chrome/126.0.0.0 Safari/537.36" version="26.2.13">
  <diagram id="prtHgNgQTEPvFCAcTncT" name="Page-1">
    <mxGraphModel dx="2158" dy="1085" grid="1" gridSize="10" guides="1" tooltips="1" connect="1" arrows="1" fold="1" page="1" pageScale="1" pageWidth="827" pageHeight="1169" math="0" shadow="0">
      <root>
        <mxCell id="0" />
        <mxCell id="1" parent="0" />
        <mxCell id="dNxyNK7c78bLwvsdeMH5-19" value="Penurunan File PTEN" style="swimlane;html=1;childLayout=stackLayout;resizeParent=1;resizeParentMax=0;horizontal=0;startSize=20;horizontalStack=0;" parent="1" vertex="1">
          <mxGeometry x="40" y="30" width="1210" height="460" as="geometry" />
        </mxCell>
        <mxCell id="dNxyNK7c78bLwvsdeMH5-21" value="Magenta" style="swimlane;html=1;startSize=20;horizontal=0;" parent="dNxyNK7c78bLwvsdeMH5-19" vertex="1">
          <mxGeometry x="20" width="1190" height="460" as="geometry" />
        </mxCell>
        <mxCell id="dNxyNK7c78bLwvsdeMH5-29" value="" style="edgeStyle=orthogonalEdgeStyle;rounded=0;orthogonalLoop=1;jettySize=auto;html=1;endArrow=classic;endFill=1;entryX=0;entryY=0.5;entryDx=0;entryDy=0;" parent="dNxyNK7c78bLwvsdeMH5-21" source="dNxyNK7c78bLwvsdeMH5-26" target="7YpvvEQTfmknypWmU2C2-18" edge="1">
          <mxGeometry relative="1" as="geometry">
            <mxPoint x="260" y="70" as="targetPoint" />
          </mxGeometry>
        </mxCell>
        <mxCell id="dNxyNK7c78bLwvsdeMH5-26" value="&lt;font style=&quot;font-size: 11px;&quot;&gt;Generate data registrasi PTEN Merchant QRIS&lt;/font&gt;" style="rounded=0;whiteSpace=wrap;html=1;fontFamily=Helvetica;fontSize=12;fontColor=#000000;align=center;" parent="dNxyNK7c78bLwvsdeMH5-21" vertex="1">
          <mxGeometry x="120" y="40" width="110" height="60" as="geometry" />
        </mxCell>
        <mxCell id="dNxyNK7c78bLwvsdeMH5-23" value="" style="ellipse;whiteSpace=wrap;html=1;" parent="dNxyNK7c78bLwvsdeMH5-21" vertex="1">
          <mxGeometry x="50" y="50" width="40" height="40" as="geometry" />
        </mxCell>
        <mxCell id="dNxyNK7c78bLwvsdeMH5-25" value="" style="edgeStyle=orthogonalEdgeStyle;rounded=0;orthogonalLoop=1;jettySize=auto;html=1;entryX=0;entryY=0.5;entryDx=0;entryDy=0;" parent="dNxyNK7c78bLwvsdeMH5-21" source="dNxyNK7c78bLwvsdeMH5-23" target="dNxyNK7c78bLwvsdeMH5-26" edge="1">
          <mxGeometry relative="1" as="geometry">
            <mxPoint x="120" y="-50" as="targetPoint" />
          </mxGeometry>
        </mxCell>
        <mxCell id="7YpvvEQTfmknypWmU2C2-25" style="edgeStyle=orthogonalEdgeStyle;rounded=0;orthogonalLoop=1;jettySize=auto;html=1;entryX=0;entryY=0.5;entryDx=0;entryDy=0;" edge="1" parent="dNxyNK7c78bLwvsdeMH5-21" source="dNxyNK7c78bLwvsdeMH5-36" target="7YpvvEQTfmknypWmU2C2-24">
          <mxGeometry relative="1" as="geometry" />
        </mxCell>
        <mxCell id="7YpvvEQTfmknypWmU2C2-33" value="Y" style="edgeLabel;html=1;align=center;verticalAlign=middle;resizable=0;points=[];" vertex="1" connectable="0" parent="7YpvvEQTfmknypWmU2C2-25">
          <mxGeometry x="-0.1829" relative="1" as="geometry">
            <mxPoint as="offset" />
          </mxGeometry>
        </mxCell>
        <mxCell id="dNxyNK7c78bLwvsdeMH5-36" value="" style="rhombus;whiteSpace=wrap;html=1;fontFamily=Helvetica;fontSize=12;fontColor=#000000;align=center;" parent="dNxyNK7c78bLwvsdeMH5-21" vertex="1">
          <mxGeometry x="400" y="50" width="40" height="40" as="geometry" />
        </mxCell>
        <mxCell id="7YpvvEQTfmknypWmU2C2-19" style="edgeStyle=orthogonalEdgeStyle;rounded=0;orthogonalLoop=1;jettySize=auto;html=1;entryX=0;entryY=0.5;entryDx=0;entryDy=0;" edge="1" parent="dNxyNK7c78bLwvsdeMH5-21" source="7YpvvEQTfmknypWmU2C2-18" target="dNxyNK7c78bLwvsdeMH5-36">
          <mxGeometry relative="1" as="geometry" />
        </mxCell>
        <mxCell id="7YpvvEQTfmknypWmU2C2-18" value="&lt;font style=&quot;font-size: 11px;&quot;&gt;Melakukan pengecekan jenis pengajuan&lt;/font&gt;" style="rounded=0;whiteSpace=wrap;html=1;fontFamily=Helvetica;fontSize=12;fontColor=#000000;align=center;" vertex="1" parent="dNxyNK7c78bLwvsdeMH5-21">
          <mxGeometry x="260" y="40" width="110" height="60" as="geometry" />
        </mxCell>
        <mxCell id="7YpvvEQTfmknypWmU2C2-38" style="edgeStyle=orthogonalEdgeStyle;rounded=0;orthogonalLoop=1;jettySize=auto;html=1;entryX=0.5;entryY=0;entryDx=0;entryDy=0;" edge="1" parent="dNxyNK7c78bLwvsdeMH5-21" source="7YpvvEQTfmknypWmU2C2-20" target="7YpvvEQTfmknypWmU2C2-37">
          <mxGeometry relative="1" as="geometry" />
        </mxCell>
        <mxCell id="7YpvvEQTfmknypWmU2C2-40" value="T" style="edgeLabel;html=1;align=center;verticalAlign=middle;resizable=0;points=[];" vertex="1" connectable="0" parent="7YpvvEQTfmknypWmU2C2-38">
          <mxGeometry x="-0.6109" relative="1" as="geometry">
            <mxPoint as="offset" />
          </mxGeometry>
        </mxCell>
        <mxCell id="7YpvvEQTfmknypWmU2C2-46" style="edgeStyle=orthogonalEdgeStyle;rounded=0;orthogonalLoop=1;jettySize=auto;html=1;entryX=0;entryY=0.5;entryDx=0;entryDy=0;" edge="1" parent="dNxyNK7c78bLwvsdeMH5-21" source="7YpvvEQTfmknypWmU2C2-20" target="7YpvvEQTfmknypWmU2C2-45">
          <mxGeometry relative="1" as="geometry" />
        </mxCell>
        <mxCell id="7YpvvEQTfmknypWmU2C2-20" value="&lt;font style=&quot;font-size: 11px;&quot;&gt;UD?&lt;/font&gt;" style="rhombus;whiteSpace=wrap;html=1;fontFamily=Helvetica;fontSize=12;fontColor=#000000;align=center;" vertex="1" parent="dNxyNK7c78bLwvsdeMH5-21">
          <mxGeometry x="400" y="130" width="40" height="40" as="geometry" />
        </mxCell>
        <mxCell id="dNxyNK7c78bLwvsdeMH5-37" value="" style="edgeStyle=orthogonalEdgeStyle;rounded=0;orthogonalLoop=1;jettySize=auto;html=1;endArrow=classic;endFill=1;entryX=0.5;entryY=0;entryDx=0;entryDy=0;exitX=0.5;exitY=1;exitDx=0;exitDy=0;" parent="dNxyNK7c78bLwvsdeMH5-21" edge="1">
          <mxGeometry relative="1" as="geometry">
            <mxPoint x="419.8199999999999" y="90" as="sourcePoint" />
            <mxPoint x="419.8199999999999" y="130" as="targetPoint" />
          </mxGeometry>
        </mxCell>
        <mxCell id="7YpvvEQTfmknypWmU2C2-29" value="T" style="edgeLabel;html=1;align=center;verticalAlign=middle;resizable=0;points=[];" vertex="1" connectable="0" parent="dNxyNK7c78bLwvsdeMH5-37">
          <mxGeometry x="-0.2571" y="-2" relative="1" as="geometry">
            <mxPoint as="offset" />
          </mxGeometry>
        </mxCell>
        <mxCell id="7YpvvEQTfmknypWmU2C2-23" value="&lt;font style=&quot;font-size: 10px;&quot;&gt;Merchant Baru/&lt;/font&gt;&lt;div&gt;&lt;font style=&quot;font-size: 10px;&quot;&gt;Tambah Outlet&lt;/font&gt;&lt;/div&gt;" style="text;html=1;align=center;verticalAlign=middle;whiteSpace=wrap;rounded=0;" vertex="1" parent="dNxyNK7c78bLwvsdeMH5-21">
          <mxGeometry x="370" y="10" width="100" height="40" as="geometry" />
        </mxCell>
        <mxCell id="7YpvvEQTfmknypWmU2C2-31" style="edgeStyle=orthogonalEdgeStyle;rounded=0;orthogonalLoop=1;jettySize=auto;html=1;entryX=0;entryY=0.5;entryDx=0;entryDy=0;" edge="1" parent="dNxyNK7c78bLwvsdeMH5-21" source="7YpvvEQTfmknypWmU2C2-24" target="7YpvvEQTfmknypWmU2C2-30">
          <mxGeometry relative="1" as="geometry" />
        </mxCell>
        <mxCell id="7YpvvEQTfmknypWmU2C2-35" value="Y" style="edgeLabel;html=1;align=center;verticalAlign=middle;resizable=0;points=[];" vertex="1" connectable="0" parent="7YpvvEQTfmknypWmU2C2-31">
          <mxGeometry x="-0.0676" relative="1" as="geometry">
            <mxPoint as="offset" />
          </mxGeometry>
        </mxCell>
        <mxCell id="7YpvvEQTfmknypWmU2C2-91" style="edgeStyle=orthogonalEdgeStyle;rounded=0;orthogonalLoop=1;jettySize=auto;html=1;exitX=0.5;exitY=0;exitDx=0;exitDy=0;entryX=1;entryY=0.5;entryDx=0;entryDy=0;" edge="1" parent="dNxyNK7c78bLwvsdeMH5-21" source="7YpvvEQTfmknypWmU2C2-24" target="7YpvvEQTfmknypWmU2C2-36">
          <mxGeometry relative="1" as="geometry">
            <mxPoint x="959.9999999999998" y="279.9999999999999" as="targetPoint" />
            <Array as="points">
              <mxPoint x="505" y="30" />
              <mxPoint x="1190" y="30" />
              <mxPoint x="1190" y="420" />
            </Array>
          </mxGeometry>
        </mxCell>
        <mxCell id="7YpvvEQTfmknypWmU2C2-92" value="T" style="edgeLabel;html=1;align=center;verticalAlign=middle;resizable=0;points=[];" vertex="1" connectable="0" parent="7YpvvEQTfmknypWmU2C2-91">
          <mxGeometry x="-0.7188" y="-1" relative="1" as="geometry">
            <mxPoint as="offset" />
          </mxGeometry>
        </mxCell>
        <mxCell id="7YpvvEQTfmknypWmU2C2-24" value="" style="rhombus;whiteSpace=wrap;html=1;fontFamily=Helvetica;fontSize=12;fontColor=#000000;align=center;" vertex="1" parent="dNxyNK7c78bLwvsdeMH5-21">
          <mxGeometry x="485" y="50" width="40" height="40" as="geometry" />
        </mxCell>
        <mxCell id="7YpvvEQTfmknypWmU2C2-26" value="&lt;span style=&quot;font-size: 10px;&quot;&gt;QRIS Statis/Dinamis&lt;/span&gt;" style="text;html=1;align=center;verticalAlign=middle;whiteSpace=wrap;rounded=0;" vertex="1" parent="dNxyNK7c78bLwvsdeMH5-21">
          <mxGeometry x="470" y="10" width="70" height="40" as="geometry" />
        </mxCell>
        <mxCell id="7YpvvEQTfmknypWmU2C2-89" style="edgeStyle=orthogonalEdgeStyle;rounded=0;orthogonalLoop=1;jettySize=auto;html=1;entryX=0.5;entryY=0;entryDx=0;entryDy=0;" edge="1" parent="dNxyNK7c78bLwvsdeMH5-21" source="7YpvvEQTfmknypWmU2C2-30" target="7YpvvEQTfmknypWmU2C2-60">
          <mxGeometry relative="1" as="geometry" />
        </mxCell>
        <mxCell id="7YpvvEQTfmknypWmU2C2-90" value="T" style="edgeLabel;html=1;align=center;verticalAlign=middle;resizable=0;points=[];" vertex="1" connectable="0" parent="7YpvvEQTfmknypWmU2C2-89">
          <mxGeometry x="-0.825" relative="1" as="geometry">
            <mxPoint as="offset" />
          </mxGeometry>
        </mxCell>
        <mxCell id="7YpvvEQTfmknypWmU2C2-93" style="edgeStyle=orthogonalEdgeStyle;rounded=0;orthogonalLoop=1;jettySize=auto;html=1;exitX=0.5;exitY=1;exitDx=0;exitDy=0;entryX=1;entryY=0.5;entryDx=0;entryDy=0;" edge="1" parent="dNxyNK7c78bLwvsdeMH5-21" source="7YpvvEQTfmknypWmU2C2-32" target="7YpvvEQTfmknypWmU2C2-36">
          <mxGeometry relative="1" as="geometry">
            <Array as="points">
              <mxPoint x="585" y="30" />
              <mxPoint x="1190" y="30" />
              <mxPoint x="1190" y="420" />
            </Array>
          </mxGeometry>
        </mxCell>
        <mxCell id="7YpvvEQTfmknypWmU2C2-30" value="" style="rhombus;whiteSpace=wrap;html=1;fontFamily=Helvetica;fontSize=12;fontColor=#000000;align=center;" vertex="1" parent="dNxyNK7c78bLwvsdeMH5-21">
          <mxGeometry x="565" y="50" width="40" height="40" as="geometry" />
        </mxCell>
        <mxCell id="7YpvvEQTfmknypWmU2C2-32" value="&lt;span style=&quot;font-size: 10px;&quot;&gt;sudah pernah dikirim?&lt;/span&gt;" style="text;html=1;align=center;verticalAlign=middle;whiteSpace=wrap;rounded=0;" vertex="1" parent="dNxyNK7c78bLwvsdeMH5-21">
          <mxGeometry x="550" y="10" width="70" height="40" as="geometry" />
        </mxCell>
        <mxCell id="7YpvvEQTfmknypWmU2C2-36" value="" style="ellipse;whiteSpace=wrap;html=1;strokeWidth=3;" vertex="1" parent="dNxyNK7c78bLwvsdeMH5-21">
          <mxGeometry x="1050" y="400" width="40" height="40" as="geometry" />
        </mxCell>
        <mxCell id="7YpvvEQTfmknypWmU2C2-44" style="edgeStyle=orthogonalEdgeStyle;rounded=0;orthogonalLoop=1;jettySize=auto;html=1;entryX=0;entryY=0.5;entryDx=0;entryDy=0;" edge="1" parent="dNxyNK7c78bLwvsdeMH5-21" source="7YpvvEQTfmknypWmU2C2-37" target="7YpvvEQTfmknypWmU2C2-43">
          <mxGeometry relative="1" as="geometry" />
        </mxCell>
        <mxCell id="7YpvvEQTfmknypWmU2C2-79" value="Y" style="edgeLabel;html=1;align=center;verticalAlign=middle;resizable=0;points=[];" vertex="1" connectable="0" parent="7YpvvEQTfmknypWmU2C2-44">
          <mxGeometry x="-0.0008" relative="1" as="geometry">
            <mxPoint as="offset" />
          </mxGeometry>
        </mxCell>
        <mxCell id="7YpvvEQTfmknypWmU2C2-78" style="edgeStyle=orthogonalEdgeStyle;rounded=0;orthogonalLoop=1;jettySize=auto;html=1;entryX=0;entryY=0.5;entryDx=0;entryDy=0;" edge="1" parent="dNxyNK7c78bLwvsdeMH5-21" source="7YpvvEQTfmknypWmU2C2-37" target="7YpvvEQTfmknypWmU2C2-36">
          <mxGeometry relative="1" as="geometry">
            <Array as="points">
              <mxPoint x="420" y="420" />
            </Array>
          </mxGeometry>
        </mxCell>
        <mxCell id="7YpvvEQTfmknypWmU2C2-80" value="T" style="edgeLabel;html=1;align=center;verticalAlign=middle;resizable=0;points=[];" vertex="1" connectable="0" parent="7YpvvEQTfmknypWmU2C2-78">
          <mxGeometry x="-0.9315" relative="1" as="geometry">
            <mxPoint as="offset" />
          </mxGeometry>
        </mxCell>
        <mxCell id="7YpvvEQTfmknypWmU2C2-37" value="&lt;font style=&quot;font-size: 11px;&quot;&gt;T?&lt;/font&gt;" style="rhombus;whiteSpace=wrap;html=1;fontFamily=Helvetica;fontSize=12;fontColor=#000000;align=center;" vertex="1" parent="dNxyNK7c78bLwvsdeMH5-21">
          <mxGeometry x="400" y="280" width="40" height="40" as="geometry" />
        </mxCell>
        <mxCell id="7YpvvEQTfmknypWmU2C2-43" value="&lt;font style=&quot;font-size: 11px;&quot;&gt;Generate Form Penghapusan Data Merchant&lt;/font&gt;" style="rounded=0;whiteSpace=wrap;html=1;fontFamily=Helvetica;fontSize=12;fontColor=#000000;align=center;" vertex="1" parent="dNxyNK7c78bLwvsdeMH5-21">
          <mxGeometry x="485" y="270" width="110" height="60" as="geometry" />
        </mxCell>
        <mxCell id="7YpvvEQTfmknypWmU2C2-48" style="edgeStyle=orthogonalEdgeStyle;rounded=0;orthogonalLoop=1;jettySize=auto;html=1;entryX=0;entryY=0.5;entryDx=0;entryDy=0;" edge="1" parent="dNxyNK7c78bLwvsdeMH5-21" source="7YpvvEQTfmknypWmU2C2-45" target="7YpvvEQTfmknypWmU2C2-47">
          <mxGeometry relative="1" as="geometry" />
        </mxCell>
        <mxCell id="7YpvvEQTfmknypWmU2C2-45" value="&lt;span style=&quot;font-size: 11px;&quot;&gt;Pengecekan NMID&lt;/span&gt;" style="rounded=0;whiteSpace=wrap;html=1;fontFamily=Helvetica;fontSize=12;fontColor=#000000;align=center;" vertex="1" parent="dNxyNK7c78bLwvsdeMH5-21">
          <mxGeometry x="485" y="120" width="110" height="60" as="geometry" />
        </mxCell>
        <mxCell id="7YpvvEQTfmknypWmU2C2-50" style="edgeStyle=orthogonalEdgeStyle;rounded=0;orthogonalLoop=1;jettySize=auto;html=1;entryX=0;entryY=0.5;entryDx=0;entryDy=0;" edge="1" parent="dNxyNK7c78bLwvsdeMH5-21" source="7YpvvEQTfmknypWmU2C2-47" target="7YpvvEQTfmknypWmU2C2-51">
          <mxGeometry relative="1" as="geometry">
            <mxPoint x="689.9999999999998" y="160" as="targetPoint" />
          </mxGeometry>
        </mxCell>
        <mxCell id="7YpvvEQTfmknypWmU2C2-55" value="Y" style="edgeLabel;html=1;align=center;verticalAlign=middle;resizable=0;points=[];" vertex="1" connectable="0" parent="7YpvvEQTfmknypWmU2C2-50">
          <mxGeometry x="-0.2641" y="1" relative="1" as="geometry">
            <mxPoint as="offset" />
          </mxGeometry>
        </mxCell>
        <mxCell id="7YpvvEQTfmknypWmU2C2-61" style="edgeStyle=orthogonalEdgeStyle;rounded=0;orthogonalLoop=1;jettySize=auto;html=1;entryX=0;entryY=0.5;entryDx=0;entryDy=0;exitX=0.5;exitY=1;exitDx=0;exitDy=0;" edge="1" parent="dNxyNK7c78bLwvsdeMH5-21" source="7YpvvEQTfmknypWmU2C2-47" target="7YpvvEQTfmknypWmU2C2-60">
          <mxGeometry relative="1" as="geometry" />
        </mxCell>
        <mxCell id="7YpvvEQTfmknypWmU2C2-62" value="T" style="edgeLabel;html=1;align=center;verticalAlign=middle;resizable=0;points=[];" vertex="1" connectable="0" parent="7YpvvEQTfmknypWmU2C2-61">
          <mxGeometry x="-0.5896" y="-1" relative="1" as="geometry">
            <mxPoint as="offset" />
          </mxGeometry>
        </mxCell>
        <mxCell id="7YpvvEQTfmknypWmU2C2-47" value="" style="rhombus;whiteSpace=wrap;html=1;fontFamily=Helvetica;fontSize=12;fontColor=#000000;align=center;" vertex="1" parent="dNxyNK7c78bLwvsdeMH5-21">
          <mxGeometry x="630" y="130" width="40" height="40" as="geometry" />
        </mxCell>
        <mxCell id="7YpvvEQTfmknypWmU2C2-49" value="&lt;span style=&quot;font-size: 10px;&quot;&gt;NMID terisi?&lt;/span&gt;" style="text;html=1;align=center;verticalAlign=middle;whiteSpace=wrap;rounded=0;" vertex="1" parent="dNxyNK7c78bLwvsdeMH5-21">
          <mxGeometry x="615" y="110" width="70" height="20" as="geometry" />
        </mxCell>
        <mxCell id="7YpvvEQTfmknypWmU2C2-75" style="edgeStyle=orthogonalEdgeStyle;rounded=0;orthogonalLoop=1;jettySize=auto;html=1;entryX=0;entryY=0.5;entryDx=0;entryDy=0;" edge="1" parent="dNxyNK7c78bLwvsdeMH5-21" source="7YpvvEQTfmknypWmU2C2-51" target="7YpvvEQTfmknypWmU2C2-36">
          <mxGeometry relative="1" as="geometry">
            <Array as="points">
              <mxPoint x="850" y="420" />
            </Array>
          </mxGeometry>
        </mxCell>
        <mxCell id="7YpvvEQTfmknypWmU2C2-76" value="T" style="edgeLabel;html=1;align=center;verticalAlign=middle;resizable=0;points=[];" vertex="1" connectable="0" parent="7YpvvEQTfmknypWmU2C2-75">
          <mxGeometry x="-0.9263" y="-2" relative="1" as="geometry">
            <mxPoint as="offset" />
          </mxGeometry>
        </mxCell>
        <mxCell id="7YpvvEQTfmknypWmU2C2-51" value="" style="rhombus;whiteSpace=wrap;html=1;fontFamily=Helvetica;fontSize=12;fontColor=#000000;align=center;" vertex="1" parent="dNxyNK7c78bLwvsdeMH5-21">
          <mxGeometry x="830" y="130" width="40" height="40" as="geometry" />
        </mxCell>
        <mxCell id="7YpvvEQTfmknypWmU2C2-52" value="&lt;font style=&quot;font-size: 9px;&quot;&gt;UD NPWP, KTP, Nama Merchant 50, Nama Merchant 25, Kodepos Outlet, Kota Outlet, Kriteria, Tipe Merchant, MCC, Tipe QR, Jml Terminal, MPAN, MID&lt;/font&gt;" style="text;html=1;align=center;verticalAlign=middle;whiteSpace=wrap;rounded=0;" vertex="1" parent="dNxyNK7c78bLwvsdeMH5-21">
          <mxGeometry x="805" y="10" width="90" height="120" as="geometry" />
        </mxCell>
        <mxCell id="7YpvvEQTfmknypWmU2C2-56" value="" style="shape=note;whiteSpace=wrap;html=1;backgroundOutline=1;darkOpacity=0.05;" vertex="1" parent="dNxyNK7c78bLwvsdeMH5-21">
          <mxGeometry x="1090" y="120" width="50" height="60" as="geometry" />
        </mxCell>
        <mxCell id="7YpvvEQTfmknypWmU2C2-57" style="edgeStyle=orthogonalEdgeStyle;rounded=0;orthogonalLoop=1;jettySize=auto;html=1;entryX=0;entryY=0.5;entryDx=0;entryDy=0;" edge="1" parent="dNxyNK7c78bLwvsdeMH5-21" source="7YpvvEQTfmknypWmU2C2-51" target="7YpvvEQTfmknypWmU2C2-69">
          <mxGeometry relative="1" as="geometry" />
        </mxCell>
        <mxCell id="7YpvvEQTfmknypWmU2C2-68" value="Y" style="edgeLabel;html=1;align=center;verticalAlign=middle;resizable=0;points=[];" vertex="1" connectable="0" parent="7YpvvEQTfmknypWmU2C2-57">
          <mxGeometry x="0.02" relative="1" as="geometry">
            <mxPoint as="offset" />
          </mxGeometry>
        </mxCell>
        <mxCell id="7YpvvEQTfmknypWmU2C2-60" value="&lt;font style=&quot;font-size: 11px;&quot;&gt;Generate Form Registrasi Data Merchant&lt;/font&gt;" style="rounded=0;whiteSpace=wrap;html=1;fontFamily=Helvetica;fontSize=12;fontColor=#000000;align=center;" vertex="1" parent="dNxyNK7c78bLwvsdeMH5-21">
          <mxGeometry x="695" y="210" width="110" height="60" as="geometry" />
        </mxCell>
        <mxCell id="7YpvvEQTfmknypWmU2C2-63" value="&lt;font style=&quot;font-size: 11px;&quot;&gt;Magenta&lt;/font&gt;" style="shape=datastore;whiteSpace=wrap;html=1;" vertex="1" parent="dNxyNK7c78bLwvsdeMH5-21">
          <mxGeometry x="955" y="210" width="60" height="60" as="geometry" />
        </mxCell>
        <mxCell id="7YpvvEQTfmknypWmU2C2-65" value="" style="endArrow=none;dashed=1;html=1;rounded=0;exitX=1;exitY=0.5;exitDx=0;exitDy=0;entryX=0;entryY=0.5;entryDx=0;entryDy=0;" edge="1" parent="dNxyNK7c78bLwvsdeMH5-21" source="7YpvvEQTfmknypWmU2C2-60" target="7YpvvEQTfmknypWmU2C2-63">
          <mxGeometry width="50" height="50" relative="1" as="geometry">
            <mxPoint x="860" y="330" as="sourcePoint" />
            <mxPoint x="910" y="280" as="targetPoint" />
          </mxGeometry>
        </mxCell>
        <mxCell id="7YpvvEQTfmknypWmU2C2-67" value="" style="endArrow=none;dashed=1;html=1;rounded=0;exitX=1;exitY=0.5;exitDx=0;exitDy=0;entryX=0.5;entryY=1;entryDx=0;entryDy=0;" edge="1" parent="dNxyNK7c78bLwvsdeMH5-21" source="7YpvvEQTfmknypWmU2C2-43" target="7YpvvEQTfmknypWmU2C2-63">
          <mxGeometry width="50" height="50" relative="1" as="geometry">
            <mxPoint x="830" y="225" as="sourcePoint" />
            <mxPoint x="900" y="260" as="targetPoint" />
            <Array as="points">
              <mxPoint x="985" y="300" />
            </Array>
          </mxGeometry>
        </mxCell>
        <mxCell id="7YpvvEQTfmknypWmU2C2-69" value="&lt;font style=&quot;font-size: 11px;&quot;&gt;Generate Form Update Data Merchant&lt;/font&gt;" style="rounded=0;whiteSpace=wrap;html=1;fontFamily=Helvetica;fontSize=12;fontColor=#000000;align=center;" vertex="1" parent="dNxyNK7c78bLwvsdeMH5-21">
          <mxGeometry x="930" y="120" width="110" height="60" as="geometry" />
        </mxCell>
        <mxCell id="7YpvvEQTfmknypWmU2C2-71" value="" style="endArrow=none;dashed=1;html=1;rounded=0;exitX=0.5;exitY=0;exitDx=0;exitDy=0;entryX=0.5;entryY=1;entryDx=0;entryDy=0;" edge="1" parent="dNxyNK7c78bLwvsdeMH5-21" source="7YpvvEQTfmknypWmU2C2-63" target="7YpvvEQTfmknypWmU2C2-69">
          <mxGeometry width="50" height="50" relative="1" as="geometry">
            <mxPoint x="830" y="225" as="sourcePoint" />
            <mxPoint x="900" y="260" as="targetPoint" />
          </mxGeometry>
        </mxCell>
        <mxCell id="7YpvvEQTfmknypWmU2C2-73" value="" style="endArrow=none;dashed=1;html=1;rounded=0;exitX=1;exitY=0.5;exitDx=0;exitDy=0;entryX=0;entryY=0.5;entryDx=0;entryDy=0;entryPerimeter=0;" edge="1" parent="dNxyNK7c78bLwvsdeMH5-21" source="7YpvvEQTfmknypWmU2C2-69" target="7YpvvEQTfmknypWmU2C2-56">
          <mxGeometry width="50" height="50" relative="1" as="geometry">
            <mxPoint x="840" y="250" as="sourcePoint" />
            <mxPoint x="965" y="250" as="targetPoint" />
          </mxGeometry>
        </mxCell>
        <mxCell id="7YpvvEQTfmknypWmU2C2-77" value="" style="shape=note;whiteSpace=wrap;html=1;backgroundOutline=1;darkOpacity=0.05;" vertex="1" parent="dNxyNK7c78bLwvsdeMH5-21">
          <mxGeometry x="615" y="320" width="50" height="60" as="geometry" />
        </mxCell>
        <mxCell id="7YpvvEQTfmknypWmU2C2-81" value="" style="endArrow=none;dashed=1;html=1;rounded=0;exitX=0.5;exitY=1;exitDx=0;exitDy=0;entryX=0;entryY=0.5;entryDx=0;entryDy=0;entryPerimeter=0;" edge="1" parent="dNxyNK7c78bLwvsdeMH5-21" source="7YpvvEQTfmknypWmU2C2-43" target="7YpvvEQTfmknypWmU2C2-77">
          <mxGeometry width="50" height="50" relative="1" as="geometry">
            <mxPoint x="605" y="310" as="sourcePoint" />
            <mxPoint x="995" y="280" as="targetPoint" />
            <Array as="points">
              <mxPoint x="540" y="350" />
            </Array>
          </mxGeometry>
        </mxCell>
        <mxCell id="7YpvvEQTfmknypWmU2C2-83" value="&lt;font style=&quot;font-size: 8px;&quot;&gt;DELETE_QRIS_NMR_[NNS]_[YYMMDD]_BCAbatchxx.xlsx&lt;/font&gt;" style="text;html=1;align=center;verticalAlign=middle;whiteSpace=wrap;rounded=0;" vertex="1" parent="dNxyNK7c78bLwvsdeMH5-21">
          <mxGeometry x="528.75" y="380" width="212.5" height="10" as="geometry" />
        </mxCell>
        <mxCell id="7YpvvEQTfmknypWmU2C2-84" value="&lt;font style=&quot;font-size: 8px;&quot;&gt;UPDATE_QRIS_NMR_[NNS]_[YYMMDD]_BCAbatchxx.xlsx&lt;/font&gt;" style="text;html=1;align=center;verticalAlign=middle;whiteSpace=wrap;rounded=0;" vertex="1" parent="dNxyNK7c78bLwvsdeMH5-21">
          <mxGeometry x="1008.75" y="180" width="212.5" height="10" as="geometry" />
        </mxCell>
        <mxCell id="7YpvvEQTfmknypWmU2C2-86" value="" style="shape=note;whiteSpace=wrap;html=1;backgroundOutline=1;darkOpacity=0.05;" vertex="1" parent="dNxyNK7c78bLwvsdeMH5-21">
          <mxGeometry x="955" y="310" width="50" height="60" as="geometry" />
        </mxCell>
        <mxCell id="7YpvvEQTfmknypWmU2C2-87" value="" style="endArrow=none;dashed=1;html=1;rounded=0;exitX=0.5;exitY=1;exitDx=0;exitDy=0;entryX=0;entryY=0.5;entryDx=0;entryDy=0;entryPerimeter=0;" edge="1" parent="dNxyNK7c78bLwvsdeMH5-21" source="7YpvvEQTfmknypWmU2C2-60" target="7YpvvEQTfmknypWmU2C2-86">
          <mxGeometry width="50" height="50" relative="1" as="geometry">
            <mxPoint x="815" y="250" as="sourcePoint" />
            <mxPoint x="965" y="250" as="targetPoint" />
            <Array as="points">
              <mxPoint x="750" y="340" />
            </Array>
          </mxGeometry>
        </mxCell>
        <mxCell id="7YpvvEQTfmknypWmU2C2-88" value="&lt;font style=&quot;font-size: 8px;&quot;&gt;QRIS_NMR_[NNS]_[YYMMDD]_BCAbatchxx.xlsx&lt;/font&gt;" style="text;html=1;align=center;verticalAlign=middle;whiteSpace=wrap;rounded=0;" vertex="1" parent="dNxyNK7c78bLwvsdeMH5-21">
          <mxGeometry x="873.75" y="370" width="212.5" height="10" as="geometry" />
        </mxCell>
        <mxCell id="7YpvvEQTfmknypWmU2C2-11" value="" style="shape=image;verticalLabelPosition=bottom;labelBackgroundColor=default;verticalAlign=top;aspect=fixed;imageAspect=0;image=data:image/png,iVBORw0KGgoAAAANSUhEUgAABRkAAAKoCAYAAADzt/jYAAAAAXNSR0IArs4c6QAAIABJREFUeF7snQe0E0XfxociovSmSBG5CAio2F8RCxZEAbuIAhaKNJUmRbp0pCMoRYpUC/ZXsIECivAiFlRAUC4d6R1FpHznmXyzd+6S5G6yJbvJM+d45CZTfzNJdp/9l2ynT58+LVhIgARIgARIgARIgARIgARIgARIgARIgARIgARIIE4C2SgyxkmOzUiABEiABEiABEiABEiABEiABEiABEiABEiABCQBiow8CCRAAiRAAiRAAiRAAiRAAiRAAiRAAiRAAiRAArYIUGS0hY+NSYAESIAESIAESIAESIAESIAESIAESIAESIAEKDLyDJAACZAACZAACZAACZAACZAACZAACZAACZAACdgiQJHRFj42JgESIAESIAESIAESIAESIAESIAESIAESIAESoMjIM0ACJEACJEACJEACJEACJEACJEACJEACJEACJGCLAEVGW/jYmARIgARIgARIgARIgARIgARIgARIgARIgARIgCIjzwAJkAAJkAAJkAAJkAAJkAAJkAAJkAAJkAAJkIAtAhQZbeFjYxIgARIgARIgARIgARIgARIgARIgARIgARIggZhExmzZspGYmcCkP8iEBEiABEiABEiABEiABEiABEiABEiABEiABJKGwOmm5WJeC0XGmJGZGlBktEuQ7UmABEiABEiABEiABEiABEiABEiABEiABHxEwDOR8fTp0wldtm5RmfC5TF4vWcQDP6EQOTgJkAAJkAAJkAAJkAAJkAAJkAAJkAAJkAAJaASy2dC54rJkTLiwp7ltJ3wuNuDzFJMACZAACZAACZAACZAACZAACZAACZAACZCAXwhQZEzgTtiBn8Bpc2gSIAESIAESIAESIAESIAESIAESIAESIAESyETAjs5FS0abh8kOfJtDszkJkAAJkAAJkAAJkAAJkAAJkAAJkAAJkAAJOEbAjs5FkdHmNtiBb3NoNicBEiABEiABEiABEiABEiABEiABEiABEiABxwjY0bkoMtrcBjvwbQ7N5iRAAiRAAiRAAiRAAiRAAiRAAiRAAiRAAiTgGAE7OhdFRpvbYAe+zaHZnARIgARIgARIgARIgARIgARIgARIgARIgAQcI2BH56LIaHMb7MC3OTSbkwAJkAAJkAAJkAAJkAAJkAAJkAAJkAAJkIBjBOzoXBQZbW6DHfg2h2ZzEiABEiABEiABEiABEiABEiABEiABEiABEnCMgB2dK2VExg0bNojp06fHDP2JJ54QZcuWjdjODvyYJ8MGJEACJEACJEACJEACJEACJEACJEACJEACJOASATs6V0qJjF9//bV47LHHxMmTJ8WJEyey/P/ixYtFzZo1KTK6dHDZLQmQAAmQAAmQAAmQAAmQAAmQAAmQAAmQgH8IUGS0sBewZITI2KBBA0sCI4TIRYsWUWS0wJZVSIAESIAESIAESIAESIAESIAESIAESIAEgk+AIqOFPVQiYzhLxiVLlohrrrnmDMtGWjJaAMsqJEACJEACJEACJEACJEACJEACJEACJEACSUGAIqOFbYxkyQi36aJFi4pt27ZRZLTAkVVIgARIgARIgARIgARIgARIgARIgARIgASSkwBFRgv7Gs2SkSKjBYCsQgIkQAIkQAIkQAIkQAIkQAIkQAIkQAIkkNQEKDJa2N5oMRmLFCkitm/ffkasRsZktACWVUiABEiABEiABEiABEiABEiABEiABEiABJKCAEVGC9tIS0YLkFiFBEiABEiABEiABEiABEiABEiABEiABEggZQlQZLSw9VZjMiKrNOI0Mru0BaisQgIkQAIkQAIkQAIkQAIkQAIkQAIkQAIkkDQEKDJa2Mpolox169YV7777LhO/WODIKiRAAiRAAiRAAiTgJwJHjhwRuJZDmBtzGTx4sOjSpYufpsu5kAAJkAAJkAAJkICvCVBktLA90WIyKstF8/8Zk9ECWFYhARIgARIgARIgAZ8Q+P7770W/fv3EzJkzRd68eX0yK06DBEiABEiABEiABIJDgCKjhb2KZsmou0jrQuPixYtFzZo1RdmyZSOOYAe+hWmzCgmQAAmQAAmQAAmQgEUCFBktgmI1EiABEiABEiABEohAwI7Ole306dOnrZLNli2brBpDE6tdx1RPzSOWuSiRsUyZMuLUqVNyDfh/uP/Ue7t376bIGNPOsDIJkAAJkAAJkAAJJI4ARcbEsefIJEACJEACJEACyUGAIqOFfYTIiP/ClWiiaVpaGi0ZLfBlFRIgARIgARIgARJINAGKjIneAY5PAiRAAiRAAiQQdAIUGRO4g3bgJ3DaHJoESIAESIAESIAEko4ARcak21IuiARIgARIgARIwGMCdnSulHGXdmtP7MB3a07slwRIgARIgARIgARSkQBFxlTcda6ZBEiABEiABEjASQJ2dC6KjDZ3wg58m0OzOQmQAAmQAAmQAAmQgEaAIiOPAwmQAAmQAAmQAAnYI2BH56LIaI+9sAPf5tBsTgIkQAIkQAIkQAIkQJGRZ4AESIAESIAESIAEHCNgR+eiyGhzG+zAtzk0m5MACZAACVgg0K9fPzFlyhRx0UUXiYULF57RomTJkqJFixaiZ8+eFnpjFRIggWQi0KdPH/Hiiy8m05K4FhIgARIgARIggQQSiJZYOIHTimloOzoXRcaYUJ9Z2Q58m0OzOQmQAAmQQBQCW7duFfXq1RPp6eli165dUVnlyZNHXHbZZWLOnDmiVKlS5EoCJJAiBCgypshGc5kkQAIkQAIk4BEBiowxEMiWLZvclhiauLKNah6+mMvk9SEmTcu5slZ2SgIkQAIkEB+BatWqiWXLllluXLBgQXHJJZeIpUuXWm7DiiRAAsEmACtGCI29e/emRWOwt5KzJwESIAESIIGEEvCLXuYEBDvGdLRktLkDduDbHJrNSYAESIAEIhCAi/TYsWOztGA0N4dFY5cuXeg6zZNFAilCgCJjimw0l0kCJEACJEACLhOgyBgCTJHR5kGjyGgTIJuTAAmQgAsEihcvLnbu3BlXz4jRCFdrFhIggeQnQJEx+feYKyQBEiABEiABLwhQZKTI6Mg5o8joCEZ2QgIkQAKOErj11lvDJnmxMkiNGjXEV199ZaUq65AACQScAEXGgG8gp08CJEACJEACPiFAkZEioyNHkSKjIxjZCQmQAAk4SqBs2bJi48aNcfWJLNQbNmyIqy0bkQAJBIsARcZg7RdnSwIkQAIkQAJ+JUCRkSKjI2eTIqMjGNkJCZAACThKAElcDh48GFef+fLlE4cOHYqrLRuRAAkEiwBFxmDtF2dLAiRAAiRAAn4lQJGRIqMjZ5MioyMY2QkJkAAJOEqgYcOGYt68eeLAgQMx99uiRQsxfvz4mNuxAQmQQPAIUGQM3p5xxiRAAiRAAiTgRwIUGSkyOnIuKTI6gpGdkAAJkICjBODufM0114h9+/bF1G/hwoXFihUrBNytWUiABJKfAEXG5N9jrpAESIAESIAEvCBAkZEioyPnjCKjIxjZCQmQAAk4TuCLL74Q9957rzh27JilvvPmzSvee+89UbNmTUv1WckegXXr1skOKlSoYK8jtiYBGwQoMtqAx6YkQAIkQAIkQAIGAYqMFBkd+ThQZHQEIzshARIgAVcI/PTTT+L5558Xy5cvF0WLFpXu08ePHxe4CDjrrLOkAIn/X3vttWL48OHiiiuucGUe7DQzAQjAjRo1ki/OnDmTwi4PSMIIUGRMGHoOTAIkQAIkQAJJRYAiI0VGRw40RUZHMLITEiABEnCVwPr168WWLVvkGA8++KA4deqU+OCDDwREyHvuuUeUK1fO1fHZeQaBSZMmiaeffjoTktdee000a9aMmEjAcwIUGT1HzgFJgARIgARIICkJUGSkyOjIwabI6AhGdkICJEACnhEoX768HOv333/3bEwOFCLQq1cv0a9fv7A4evbsKfr27UtUJOApAYqMnuLmYCRAAiRAAiSQtAQoMlJkdORwU2R0BCM7IQESIAHPCMA1GuW7777zbEwOJMSTTz4ppk+fbqAItw9PPPGEmDZtGnGRgGcEKDJ6hpoDkQAJkAAJkEBSE6DISJHRkQNOkdERjOyEBEiABDwjcNddd8mxPv30U8/GTOWBtm3bJho2bCgWLVpkYHjooYfErFmz5N9479133zXeu+WWW+R7JUuWTGVsXLtHBCgyegQ64MMc/fVnuYI8l14e8JVw+iRAAiRAAm4RoMhIkdGRs0WR0RGM7IQESIAESCAJCXz77bcywcuGDRuM1XXo0EEm2dELkvOMGDHCeKls2bIyIcwNN9yQhFS4JD8RgEXtihUrxDXXXEPrZj9tjI/mcuDrhWJ1w4fljCrPekcUvKmGj2bHqZAACZAACfiFAEVGioyOnEWKjI5gZCckQAIkQAJJRuCNN96QAiOS7KgyevRo0aZNm7Arffnll0Xbtm2N97Jnzy6FxsceeyzJyHA5fiHw6KOPirfeesuYTv369cWbb77pl+lxHj4gsOej98SqRvWEUN9j2bOLKjPniKL3PuiD2XEKJEACJEACfiJAkZEioyPnkSKjIxjZCQmQAAmQQBIReOmll8QLL7xgrChPnjxSMLz//vujrhIZvyFMHj161Kg3ePBg0aVLlySiw6UkmsChQ4dEvXr1xOeff37GVO68804xZ84ckT9//kRPk+MnmMCf0yaLdc+Ez3pf4ZVJ4oInmyZ4hhyeBEiABEjATwQoMlJkdOQ8UmR0BCM7IQESIAESSBICrVu3FuPGjTNWU7lyZSkwXnnllZZW+OOPP0qhcfXq1Ub9Vq1aiVdffdVSe1YigWgENm3aJB5++GHpIq1K9+7dxYABA4y/4Tr9zjvviDJlyhBmihLYMmqoSO/R2Vj9OeXKy3//vf5347W0/kNE6XadUpQQl00CJEACJGAmQJGRIqMjnwqKjI5gZCckQAIkQAIBJ7B//34pDs6bN89Yyd133y0FxsKFC8e0un379sm+PvnkE6Nd7dq1ZV+FChWKqS9WJgFFAAI2BMb09HQDyrBhwwRigiJOaMeOHTMEpLQ0KTRaFcdJOXkIbOjdVWwePthYUL5r/iNdpFHgOn14xf+M9y58/gVRts+g5Fk8V0ICJEACJBA3AYqMFBnjPjx6Q4qMjmBkJyRAAiRAAgEmsHLlSpkletWqVcYqWrRoIcaPH29rVS1bthQTJkww+qhSpYrMPF21alVb/bJx6hFYsGCBdJGGGK7KlClTROPGjY2/p06dKpo0aWL8DUEbrtO333576gFL0RWva9NC/DllorH6wjXvEpVnviNy5MkjXzt59KhY3ehhse+LT406FzRpLiq8nPE9laLouGwSIAESSHkCFBkpMjryIaDI6AhGdkICJEACJBBQAh999JG0Ojx8+LCxgoEDB4quXbs6sqJBgwaJbt26GX3ly5dPWjTee++9jvTPTpKfACwSITCqkjNnTmmleN99952x+A8//FBaO544ccJ4D0IjXmNJbgKrH39E7H4/ZLGIct4jDUSlKbPCLnpNk4Zi19uzjfeKPVBPVJ7xdnID4upIgARIgASiEqDIGMKT7fTp06etnhW/QFPzwLxjmL7VZcZUjyJjTLhYmQRIgARIIIkIjBkzJlO2aPw+QwBs0KCBo6ucPXu2FDL133xko37uueccHYedJR+BiRMnCljVqnLeeedJ68Sbb7454mIXL14sRcldu3YZdWBR27x58+QDxBWJEwcOSOvE/QsXGDRKtnhWXDx8TFQ6fzz/nNg2YaxRp1CN26XVY86CBUmVBEiABEggBQn4RS9zAr0dnYsio80dsAPf5tBsTgIkQAIkQAIJI9CpUyeBeHaqIEkGBMYbb7zRlTl98803UmhE4g5VEENv6NChrozHToNPAJnJdYvaSy65RAqMl156aZaL+/XXX6XQ+Ntvvxl1YVWrZ03PshNW8D2BYxvSxapGD4sjK3/M+C57oae4qEdfS3Pf2L+32DQ4o27eqleKKjPfEbnLpllqz0okQAIkQALJQ4AiY2gvKTLaPNMUGW0CZHMSIAESIIFAETh+/LgU+yDWqAKrMAiMpUuXdnUtW7ZskWPD0kwVCEEYO1euXK6Ozc6DRaBLly5iyJAhxqSrVasmXaRLlChheSHbt2+XbtJLly412nTu3Fm89NJLlvtgRf8SOPzDCrG6UT1xbPNGY5LlXhopSj3TLqZJb31llFjfpb3RJveFF4nKM+eIfFddE1M/rEwCJEACJBBsAhQZQ/tHkdHmOabIaBNgEjY/sHCB2PnGTLF/0QLxz9YtSbjC5F3S2aVKi0K33C7Of6yRKFgjcYH+eYa8O2N+2XPvVmxvpN9//12KfMuXLzc6evzxx8X06dPtdRxj6yeeeELMmDHDaHXddddJobF8+fIx9sTqyUjg6aefFpMmTTKWVqdOHSkw5s6dO+blHjt2TAqNc+fONdo2a9ZMvPbaazH3xQb+IbD/yy/EqoYPi5OHDxmTumTiNHF+gyfimuTO2dPFb82fNNrmyJdfVJn1jih0W824+mMjEiABEiCB4BGgyBjaM4qMNs8uRUabAJOs+ebhg8WG3s4kO0gyNIFbTtk+g8SFz7/g+bx5hjxHbgyYqD1P3IpjGxnZeSEw7tixw2jYvXt30b9//9g6cqh2jx49xIABA4zeihcvLoVGZgJ2CHAAu0HMTgiC7733njF7p0Rws7D94IMPSuFSjxMeQGQpOeVd774l1jz5qLH27GefLS0Pi9x9jy0eez/5r7SMPPXPP0Y/laa9Kc57qL6tftmYBEiABEggGAQoMlJkdOSkUmR0BGNSdKKLQ6U7dBHnP9JA5Ln08qRYW6os4uivP4udb80WW0aGXOG8Fp14hrw/aYnec+9XHN+IU6ZMEU2bNs3UGAk1YDGWyAJrMnMyjsmTJ4smTZokclocOwEE9u7dKwXGhQsXGqO3adNGjB492rHZtG3bViDhkCo1atSQQmORIkUcG4MduUtg+6Rx4vd2rY1BchW/QAqMBa6v7sjAB5ctkULj8R1/Gv2VH/WqKNGslSP9sxMSIAESIAH/EqDIGNobWjLaPKMUGW0CTJLmcG9dWfcOuRpcrBa7/+EkWVlqLmP3B+/ImwSUqh/P98R1mmcosWctEXue2BVbH713796ib9+MxAbFihWTFoN33nmn9U5crPn5559LC8vdu3cbo/Tq1Uv06dPHxVHZtZ8IwI0fsTlXrlxpTOvFF18UOLtOF5wr9K1K1apVZXxSuuo7Tdr5/jYPHSg29OludHxupcoyScu5FSs5Othfa9fIZDJ/rVlt9Fu29wBxYadujo7DzkiABEiABPxFgCJjaD8oMto8lxQZbQJMkuZrWzQWO2a9Lkq37yLS+g1OklWl9jLSe70gtox4SRRv+JSoOGGq6zB4hlxHnOUAXu95lhPyQYXGjRuL119/3ZjJ1VdfLQVGZOn1U0EGYAiN33//vTGtp556Skyd6v5n108cUnEuiA8KC0YkBVIF1obPPfecazjGjBkjYCWpChIewaIRsUFZ/ElgfbeOYuvLw43JFah2o6g8a47IdV5xVyZ8fNdOsbrRw+Lgt98Y/Zdq87woN3CYK+OxUxIgARIggcQToMgY2gOKjDbPIkVGmwCTpPmySy6USV6uWbaSLtJJsqdwo11xfVWBxCDX/7bZ9VXxDLmOOMsBvN7zLCeUwArIqgvR7quvvjJmgRh0EBjPOeecBM4s8tB///23nLMej+/WW2+Vc44lo7AvF8dJhSXw6aefSoHx6NGjxvtICIRz4HbBuUK8R1Xy5Mkjhca77rrL7aHZf4wE1rZqInbMyHjgUKT2vaLKzDkim8sZ6U8fPy5WNaon9s77yJhx8ccbi4rjpsS4AlYnARIgARIIAgGKjKFdosho87RSZLQJMEmaL8qbTa7kliOnk2RFXAYIeLmvXo7F3Y1MgPsgxNKlS6VIk56eboBq3769GDFiRCCOTocOHcTIkSONuaalpUmhsVq1aoGYPydpjcDs2bNFw4YNjcrnnnuudFuuXbu2tQ4cqDVv3jzppv3XX38Zvc2aNUs0aNDAgd7ZhV0Cp0+ckKFP9nz8gdFV8YZPiooTMqyz7Y5hpb3yVFB1i9a9X4bWyZYzp5XmrEMCJEACJBAQAhQZQxtFkdHmgaXIaBNgkjSnMJEkG2lahpf76uVYyblbzqwq1ffhrbfekgLjiRMnDKAQ7Nq1a+cMYI96GTVqlIAwqkrOnDml0Fi/PrO8erQFrg7zyiuviGeffdYYo2TJktKK8Prrr3d13HCdL1u2TFpTbtu2zXh77Nix4plnnvF8Lhwwg8C/u3dJK8KDSxYbL5Z6tr0oNzgxD0vWv9BBbB2b8fCjQPWbpTXlWcXO47aRAAmQAAkkCQGKjBQZHTnKFBkdwRj4TlJdmAj8BkZYgJf76uVYybpfTqwrlfdhyJAhokuXLgZGWIZBmHvggQecQOt5H++//74UTHUrs5deekl07tzZ87lwQOcI9OvXTyCxjyqXXXaZtGCsWLGic4PE2NO6deuk0PjLL78YLZEsqWfPnjH2xOpOEPhr3VoZD/Ho6l+N7i7q2U+U6dLDie7j7mPTS/3Fxn4ZZyJP5UtFZSSeqZC4sxv3YtiQBEiABEjgDAIUGSkyOvKxoMjoCMbAd5LKwkTgNy/KArzcVy/HSuY9s7u2VN0HWF29+uqrBr5KlSpJgfGqq66yizSh7X/44QcpNK5Zs8aYR+vWrQUs4ViCRwDWqbBSVeWWW26RAiMynie6ILs5XKcXLVpkTAUWwLrrfqLnmArjH/rfUpnZ+fif243llh8xVpRo7g/L0u0TXxW/d8iYS64LSsgM1/n/w3AOqXA+uUYSIIHkJkCRkSKjIyc8lUXG+fPni5UrVwokCPjzzz/l/9V/gItA+/jvggsuMP5dtWpVcccddzjC3k+dpKow4ac9cGMuXu6rl2O5wSpZ+ky1fTh48KAU4T7++GNjC2vVqiUFxqJFiybFtu7Zs0eu8bPPPjPWU7duXbnGAgUKJMUaU2ERyBY+bdo0Y6n333+/dJHOkSOHb5Z/8uRJadH4wQcZMQCffPLJTBnafTPZJJzIvs/milUN64lTx/42Vldp6mxxXr3HfLXaXXPeEGsaZ8TtzJ77HFFl1hxRuFYdX82TkyEBEiABEoiNAEVGioyxnZgItVNJZITL2dy5c+V/uCHdu3dvXAyLFCkicINXp04d+R9c8oJeUk2YCPp+WZ2/l/vq5VhW15+K9VJpH37++Wcpvukuns2bNxcTJkxIyq1v0aKFmDhxorE2uNlCaLz88suTcr3Jsqh//vlHWgj+97//NZbUpEkTMXnyZN8usWnTpmLKlIwMwvfcc4+0uDz77LN9O+egT2znmzPFb80ysn3nyJtXuiIXvqOWL5e2b/5n0qX75JEjxvwumTRDnP+o+5nRfQmEkyIBEiCBJCBAkZEioyPHOBVExq+//loMGzZMCounTp1yhJvqJHv27FJw7Nixo7jpppsc7dvLzlJJmPCSa6LH8nJfvRwr0Vz9PH6q7AMEGwiMhw4dMrZjwIABolu3bn7eHttzGzhwoOjevbvRT/78+aXQCBGIxX8EduzYIS0DlyxZYkwO1wtDhw7132RNM+rUqZO8dlKlevXq0vKyePHivp970Ca4bdzL4o9ObY1pn136QplUJd/V1/l6KYe//066dv+zZbMxz4uHjhYlW7Xx9bw5ORIgARIggfAEKDKGuDC7tM1PSDKLjKtXrxa4IZs1a1ZYSmlpaVIgLFWqlOESDddo/IcCF2rlRo3/b926VQqV6enpYftr2LChvMGtXLmyzV3xvrmXwgRYIoPm5s2hi1JYgi5evFhcffXV3i88yUf0cl+dHgsJLpB4INzZgPvewoULBbKiqs9ruK3EWXvsscfEG2+8EbXe999/L5CMAWJN3rx5LZ8KzAMCgp8EHqf3wTIMDyuaM/Ni6BkzZkjRMRUKzunjj2dYPGHNzAbsv53HNQi+H/R4mkETwgcNGpRJuEesUwiNQbzO8d8JCc1o48AXxaaBfYzp5b38ClF55hxxTtrFfp1ypnn9nf6HWN2onjjy80/G62W69RYXdXsxEPPnJEmABEiABDIIUGQMsaDIaPNTkYwi486dOwUujEePHn0GHQhZytX52muvjYved999Z7hcQ5wwl7Zt24quXbuK888/P67+E9HIK2HiyJEjkv/zzz/vK2EmEcy9GNOrfcVanB4LIuPs2bNFgwYNMmUMVsLhgQMHxCeffEKR0XSQnN4HL85pLGMgs7JuBXbhhRdKcTjIluSxrF/VhYU+RFX1sAavw/IMGbZZEk/gm2++kS7SsGRUZdy4caJly5aJn1yMMxg/frxo1aqV0QqWjHCdvvHGG2PsidXNBGC9CCtGVQrecqtMopKzUOFAwTqxf5+0aDyw6Ctj3rBmhFUjCwmQAAmQQHAIUGQM7RVFRptnNtlERlz4Irg64i/qBUIFrAyrVKlik1jm5qtWrZKCptlaEtZ5r7/+urzJCELxSpiAQHT33XfLWFRmy0UIkIMHDxYvvPBCTNZkiq/d9kHYp1jn6NW+Yl5OjwWREdbDcIeF5ZqyMFSvIw5fVhaKtGSM9cT4t/6JEycErMXffvttY5IQFiEwQmhMxQKBEUIjBEdVHnnkEfl7lDNnzlRE4os1w5UfFozHjx835vPWW28J7E1QCz539evXN6afK1cuadHoJyvuoLFF/EXEYVSl6H0PiSqz3gnaMjLNFzEad3/wrvEa4jMiTiMLCZAACZBAMAhQZAztE0VGm+c1mURGCFSwINQLsoxCXLz55pttkoreHC6dcM3Ws3+iBQRIiGZ+L04LRNHWCxfTTZs2SddzJRwpC8dFixbJprfccot8H+KS4qe7VcOCFCIuXN3xPtxqFyxYIMztVf8Qm1APmWg//PBDOcYTTzxhZPqEcFW6dGmZVAGWqtjPihUrSqtd0p7MAAAgAElEQVTLcH3iJvLee+81lomz16VLF2FeR6TXIYpk5errxJnxcl+dHgt7gqJcDnEzC74QVZCUYPjw4YbIGIm7WWREn5HOk3KXxpjY9zJlykjR2+xurbtI6//GmXj00Ufl2UFWej0kgH7WnnvuOZkRGG6TKE6HC3B6H5w4h3b7WL9+vdx3fGZUgeAIgZFFSDb6gy6cPbApV64c8XhMANmj8aBTFXzW8fCzZs2aHs/E+eHmz58vxVP8jqqC32F8D7JYJ3Dq77+l1d++z+YZjS546mlRYWxGUifrvfmv5rrnmos/p75mTKxwrdrSOjP7Oef4b7KcEQmQAAmQQCYCFBlDOCgy2vxgJIvIiIyir72WcVFToUIFKRA88MADNgnF1vz999+XIsa6deuMhk8//XSmjKCx9ehNba+FCSXS6WKbEgJ1qzV99WgDywncxEFkhHDcq1cvw5U2WnsVBxJxy5RYBSEJVpUQB8PF/8ONE+JO4X0UdSOF+T3zzDPyfJnjAZpj9Km/0R5imerLm1113row2rydPkNKZMQe6PuOm1o8ONDFv0jcr7nmmogxGc3nCSIj3HDvuOMOGd8O5yScJWQ4kRF7C9dtXThXrJQw2rNnT2m9axbZsU60x7l2oji9D07MyU4fX375pRTRsBeqYP+VSGun72Rqi2QweNClCr6bIDTedtttvlhmOCt29XBAfQ/7YqI2JjFy5EjRoUMHo4eyZctKgTGZ4g3jtxceGhs2bDDWOWLECNG+fXsb5FKn6T/bt8n4hYeWLzUWXbp9Z5HWL/RQLVlKes8XxJaRGWvKf101GWfy7BIlk2WJXAcJkAAJJCUBioyhbaXIaPN4B11kRPxFuELjRlQV3LBMnz5dFC1a1Cad+Jrv2bNHWslBdFAFN3qIL+fXOI2JEiZwwwIhGOIsrL8g0JpdY3VLUGURFi5RR1Yio9kiTReZlKClRMBw4pI+prKwVJaK2GdzQhu196iDecO6CMULC0Y1tpf76vRYak/ATu0dPtcQHXXxEGvVrQbN3PV91y0ZUU8/T02aNBF//PGHePPNNw0XQCsi408//SQKFSqUSWCMltzILIgqq9wxY8bE94VjauX0PjgyqTg7gaDcuHHjTK0RH65FixZx9pjczWCJbWYzderUTJZ1iSSgf+diHvgbFsnhxPlEzjOesfHACw8qVLnqqqvkwxEIjclWIDBCaNRjUuMhCjwKWCITOLrqFykw/vX7WqNSWt/BonSH0IPMZCtbRrwk0ntlePKcW76iFBrzVLks2ZbK9ZAACZBA0hCgyBjaSoqMNo900EVGWB3BTVYVWJjBCskP5dlnn5WCmSoQGvW5+mGOag6JFCaU6ALhSBcZzTeg4SzP9GzAXoqMenxAzFkJiVllMlbiE7h7ITZ6ua9Oj6ULvzgjCH2AcARgjaJY6/82W5bqIuGKFSsyCRrm8wQX7ClTpkhLJBXr0YrIqGdZ1V3mVXKjcJaMekZqiozhvwn79OkjXnwxIztpkSJFpGXeXXfdleVXp7KQQ0WzgKU+gzVq1HDMehTj+CXT+KeffiotP/fu3WtwAsfevXtnyc3tCvpnQYWjSIYkYObfelyXwIKxYMGCbiNNWP9wmcb3GFyo/Xj9lTAwEQY++M1i6SL9757dRo0KYyaKCxo/7bepOjofuE3DfVqVs4oWk67TBW50N4SRo4tgZyRAAiSQQgQoMoY2myKjzUMfZJHR7CINiwjdVckmGkeaw40IN1Gq+NV12mmByCo83YUOloxmqzPdjVS5Kyt3aRVDT4+7GEnkU8JC69atM8VO1N2lMWfdnTmSu7TZrVUXifQ5RmOAuHyI2+W2G52X++r0WLrIqNzjcVML/mbxLxJ3vR6sIK2cp6+++soQIw8fPpwpUZHZ7V4JS7feequRNR1iuZ7cSLfWVe7SFBmjf0PAqhQWeKrAKgwCY6VKlSx9tSgxCxZXEI71zxnE5R49eogrrrgiKUVGAFqzZo0UGn/44QeDFyxCwSLRRYn7+AyoMAiJnpOd8eFJgYcSqiC5C5K8pEpBMhg9GRN+g+G1wZJBYM9/PxBIiHL65EnjRVj0Fbv/4ZTAhEQwWL8q2XLkEJVnviOK3nN/SqyfiyQBEiCBIBGgyBjaLYqMNk9tUEVGc5IXPwqMamvMQqMfk8E4LRBFOpbhXIo/+ugjwz0Vog3EICR+wY0abmBU4hXEHIP1BNxKw7lLY0y9vW7BpMQm1FH9mRO/4D1dZIyUjAb19IQweuIOcxv13vbt2zMlitHHtvkRjtrcq32VXPNmk3O55chpR5aki4yKq7J6MouMkbjrwnW+fPky7Vu084SxVYxFPfkQYogi4c+dd94pz6xuvaYLkACgEgPhLCOJTJs2bYyYjBQZwx+RHTt2yAzSevgLhFOAwIjPktWiRMZLL71UYN/V51p/fcuWLb4XGTFf/NbBWlo9TLHK4K+//pJCI0JRqAJreiSIKV68uNVuHK+nPqsqwZbbD1ocX8D/d4h1wGUYlqOqwFUd7vypVlq1apVp3bA2hiVnrGc2GbntmDFFrG3V1FhazkKFRZWZc0TBW/wRK9Ur5gcWfSlWNaonTuzfZwxZcdxkUfzxJl5NgeOQAAmQAAlYIECRMQSJIqOFwxKtShBFRly8wlpAFT+5SEdibXanwpN/3KD4pTgtEPllXWoe4dxe/TZHN+bj5b56OZYbrJKlz6Duw//+9z8piiEupipt27YVo0aNinlrImUhVw8n8PsB13tllawsZSHMRctir2KwqocZmBhEZDzQwO8QCh6SoJizhutt9IRXkbKNh8tu//nnn4tcuXLFxKNdu3Zi9OjRRpuLL75Yirb/+c9/YurHycrm2IxO9u1FX5s3b5a/38uXLzeG69q1a6bEO07MI1psV/SvEqipscwPvPB5UgmnsurL7nyRjAkPUFW57rrrpNCIs+5FMT+IUmNa9S5wY45bXh4u0rt1NLo+J62ctODLe/kVcQ3n1B5a/fw5HQLiyM8/SYvGv9PXG+tPGzhMlG6T4e0TFxg2IgESIAEScIwARcYQSoqMNo9U0ERGJHpJS0sTuBlEgVvivHnzbFLwpnnt2rWNZDC4GUhPT/dNIpigChNWd44iozPWhdF4J/sZsnrWEl0viPuAhy4QRP79918Dn52MtXrsv5dfflnGjoPlKSxUVQxN5apr/m7Q/4YFsjmLfaRs4LFkDTfHG920aZMRO1LvP1qc2VjOmTnr8VlnnSWFRv1hXSz92a1rVeSwO44b7VeuXCnPky6GIyt9x44ZYpIT4yrhW09EZQ69YOaI9xFbFlbYsOBVIqNX8S+HDRsmOnXqZCwfgjY+Z1WrVnUCSZZ9mD0cdB7meL1ZdmazwoY+3cXmoRnZ3vNdfa1MepK7dJm4eo4kosbTmdXPn9MiI+Z6bMtmKTQe/v47Y+oXduomyvYeEM9S2IYESIAESMBhAhQZQ0ApMto8WEETGXWrjAoVKoglS5YkLIt0rOiRdbp69epi3bp1smm8VjqxjmulfhCFCSvrUnUoMlJkjOW8BLlu0D7LZmEid+7cUgB76KGH4t4GXWSEUAihA27vsDaENSKSACmR0WwNhkGVRRj+rcd+NSfx0SeYVdZw3ZIR7XSryEju806JjBjvvffek67ox44dM6bthjhmZdOsihxW+vKyDuK1Yq/27ctw+Zw0aZIU9pwu5pjAqn9dhDZzNCfWUSIjwkbocWKdnqveH+J+6jwKFy4sP2uIW+tF0T+HkRi6PY/f27US2ydluM0XvqOWFBhz5M0X99B6/Gq7IQasfv7cEBkB4OSRw9J1ev/8zwweJZq1FOVHjYubDxuSAAmQAAk4Q4AiY4gjRUab5ylIIiOSNlSpUsVYMW6aEK8rSAXxsR588EFjyqtWrTIsaxK5jqAJE4lkFaSxvdxXL8cK0h54Pdcg7QNchceOHWsggsUVBEYkz7FTdLFFxeVEPE+4GyOmq36THe2G22wZFa/IaLZ+NFsyeiEygifEVQhPa9euNfAilAeYeFmsihxezimrsd59913pIn36dOiBTY4cOaQ7sBvXINHOmX4mIXrqyXPAFfGp4b6PortLmy1ts1qvnfdxnQNWJ/8/0QluWMDKzoMDq/NRfPBAGqEW8H3iZWzI1U8+Kna/m5H457x6j4lKU51JhBNpD8M9RA0XLxhu/iiICY2iwkVECuWgXM0jhYCwuieR6q1p3EDsmpORNKnYQ/VF5Wlv2u2W7UmABEiABGwQoMgYgkeR0cYhkgAnh2KjnG5azmZP7jfHBTOC1qPUqlUrU8B190d3bgQERUc8MBRYluAiONElSMJEolkFaXwv99XLsYK0B17PNQj7cOjQISmAQBRRBcl08F1YrFgx28jMIg1EPSRPUUmmdJHLnDFcHzxcgqlo7tKRxELdokq5ParM9tEsIN2wwN69e7dkD8FVFbiSg33+/Plts0/GDmCt+PTTTxtLwxmFaIZ4nG6UaFZr+pmAaKwSTGEeKj4oRLVwQqWy2tVjgroxf/SJBGsQGnHeVHnttddEs2bN3BrS6FeJZnpSObcHPXHooFgN67wvvzCGKtG8tSg/4hVHhw63h1mJjGaLzmhxKq2GcnBqUb93eEZsn/iq0V2h22pKq8+c+Qs4NQT7IQESIAESiIEARcYQLIqMMRyacFWDIjJ+/fXXMjaWKriA1f+2icHT5osXL850c4K/b7rpJk/nYB4sCMJEQgFFGdwtlyIn1uvlvno5lhNsnO5Dvzlzuu9Y+vP7Pvz6669S5EJsO1UgPECAcKqYBRZzbLZwsezwe6Ji/SqxBhZ/uru0ml+kxC/RLBKvv/56AUsiuGK3b9/eyHpt1c0ac4on8UskphDNIJ6pgrh5EBqRkZslg8CQIUOM7OR4FWFaIDBefvnlrmGKx5JRt2KMJDKqCZtjO7q1kF9++UW6l6sQMRgH35OdO3d2a0jZb7iHA24OeGzTxlCcwR+/N4Yp06WHuKhnP9eG1fdQWWu/8cYbQsWeVN8rsAp/7LHHhP6e+fsvnlAOTi5sY7+eYtNL/Y0u8115tUyQk7vMRU4Ow75IgARIgAQsEKDIGIJEkdHCYYlWJSgi43333SetUFD8Yv1nBz3WMHt2yIUGlggffvihne5st/W7MGF7gS52QJExBDfVzxBFxqw/ZHPnzpUC44EDB4zKEPF69OiRdWPWcJxA//79ZfZhVQoWLCiFxjp16jg+VhA7hPWr+lxj/hCKITCWKlXK9eXEE5NR/y2KJlRi8l79bm3dulVaNC5btsxg1qVLFxmT1K3ipch45KcfxKpGD4tjGzcYyyk3aLgo9VwHt5Zn9BtNSLQqMsYbysHpxW0dM1Ks75rBLPdFZUUVZOK+4iqnh2J/JEACJEACUQhQZAzBocho82MSBJER1iXIlHjq1Cm5WljC6LEZbSJISHPEYlQWI9mzZxeHDx+WFi6JKqkoEOHmunXr1saT/3jZW71Zc2q8WObp5b56OVYsDLyqS5ExOulXX31VJl7RC2J9Pf74415tEccJQ2DGjBlGjDb1NpLk4LsxlUuLFi3ExIkTDQRwb0f8Q69+p53MLm1OFOJkEhErZwTXcBAa582bZ1Rv3ry5mDBhgpXmMdfxSmTc/9V86SJ94mDGQ5OK46eK4o2einnOsTbQ99Cc2MccAiKau3S8oRxina+V+jtmvi7WtmxsVM1ZoKB0nS506x1WmrMOCZAACZCAAwQoMoYgUmS0eZiCIDLCcuCRRx6RK8XFMuIQJUOBGwsuhlHefvtteRGeqOKWQGR2w8H6VJwk/T0EIldByJEMokCBAmLAgAESh8r0qm6U9GywemwpiDylS5eWN4bfffedgBs6iu4GqWd0VcHMVR8QsuvWrStjSaGouuY9MY9ftmxZgaQSiGumLu71AOtYV7jA6sh6G25uTp4Bt/Y13BydGMu89+bYYfGcGRUDT+2rfqaQaCTSnqubfOVCq8fzU3HQzOcPfcNKxywQRAqsjzOLBwwjR440XHXtxhFzYh+cPIPoy2wRBkswWMy5FdPO6fkne3/4bEDs3bJli7FUt63N/MwUv8UQFFVJlPeE+fck3G+hnvgF81WiEQR9Pbu0ctdXa7L7PRPP/ulxtdEertS4vnO6eCEy7n5vjlj9ROi6FCXbWWdJy7side51ejmyP/NZwGv6Hqq4s3gdv0v4jUKc23DXJd27dxcHDx6UCZ/0fmMN5eDGQvfO/Uhahp7+91+j+8rT3xbFHkzc9bEb62SfJEACJOBXAhQZ//93/bRK9Wdhp/wCTc0DU45h+hZWGHuVIIiMTz31lCFA9e7dW7z44ouxL9SHLbCOPn36yJnhxuD1119P2CzdECbMF/q4CK5cubK86DVbfVkNNm7uU/8b1jd9+/aV4qLZckNdpKvYRBAUcRMGIdEcwwjzU3uix1hTfcCiZfLkyXKMaEkjdHc1iFnm8fTNdiPBA/p3Y18jHVInxjIHpMe5+OSTT2S2VOwvCsQPFKtnxhx/CkImvlOwf2YrVN3FTN9nteaszh/q4YwjYy/cA9XZ0pnp88a/YeGn6prjqsXzheDEPsQzbrg2yC4LYeHNNzMyhlavXl0KjBddxHhbTnF2op+NGzfKvVqyZInR3aOPPir3CpmUU6Hs379fCl9ffvmlsVx8X7z88ssJX745rmjCJxTnBNq0aZMpm/ltt90mBd1ChQrF2aP3zf6cPEGsa9vSGDjXeedLi7sCNyQ2trb3JNwZ8eC338gYl8d37TQGqDB6vLigaQt3BmSvJEACJEACBgG/6GVObIkdnYuWjDZ3wA58m0Nbbl60aFGxd+9eWX/58uXi2muvtdzWzxVhbXfdddfJKRYpUkTs2bMnYdN1Q5gIJzJigRDbdOsxtWhlzRgtEYL+tF61U9ZkyjJRiVB432yNplst6qJfOCsBtDdbM5oFK9TR5xvJ8iScyBhpbuGEqXgPhhv7GmkuToxl3nslviJBBZKD6NaImIeVMxMuyD2EBFgSm6171J5DKDRbCOG9rM4f4qwi3qBZYIwUWN8stmO9sPqDoIrkDfEUJ/YhnnHNbdLT06VotXTpUuOtBg0aSNFKf9DmxFjswxkCeOiJPVPxgtFrtWrV5J6lpaU5M4hPe1m/fr30Jvjxxx+NGfrtoaayok+EFaKT26Y/YEW/V155pbRoLFeunJPDuNLX5mGDxIYXuxl9n1uxkhQY81Sq4sp4qdrp0TWrpCv6X2vXGAjKvjhQXNixa6oi4bpJgARIwBMCFBlDmCky2jxufhcZ58+fL2rWrClXiZsc3AgkU8FFNW7GUb744gtxxx3Oxp7ZtGmTdD1GQP9oxS1hIlwWVsxDuXGFszjMSmREe11IVOsKJ9iYrQ4jWTJatSSMJjLeeuutUjxVrtPRLBnNMbGsjh/r2XdiX708Q9FExo4dO8okFbGeGbO7tBImozEPt89gHy3uogqgDwFTFyijBdb3q8hodc8jnceFCxfKz/i2bduMKhBPBw0aFOsRdr2+Hv5ADRYpVILTk8EZ/OqrrwTEVz+Vbt26ZdqrkiVLSqGxRo0afppmprkgeRoSxMVT8MAPAiPOvSqjRo0Sbdu2jac7trFAYPTo0aJdu3ZGzTJlykih0c2HyHa/19J7dBZbRg015pz/+uqiysw5IlfxCyysmFViJXB8x59iVaN64tCyDOvq0u06ibT+Q2LtivVJgARIgAQsEqDIGAJFkdHigYlUze8i4/DhwwXEBRS42eDCNJkKbmKUK9awYcOkQOVkwUU1RBlYZMDtK1JxQowy9w1xJ5KLsO4Ga7bYiiYywvrvgQceEO+///4ZYpNZsDG7l0FMUG6scJc2C51mV91wrMKJg7CGGzt2rLSM00VNfa6wZNTHizY3v1kyenmGsAcYD+7ROBdmd2nlOh3LmYlmHRhpzyMlRrB6/vRg+tEC6/tZZLTyvRHuM4IYpHBH18u4ceNEy5YZ7oVOfsfZ7cssKHuZFANiLL6Lwgnndtdlt/348eNFq1atMnWDkB7qM2O3f6fbN2nSRMaZg5XcZZddZrn7zz//XLpIIzaqKkxIZBmfrYrmpEP4LOABDWIJulGs/paFG3vtM83EjmmTjbeK3F1XVJ75jsh+9tluTJV9/j+BU//8I12n937yscGk+JNNRcVXJpERCZAACZCACwQoMoagUmS0ebj8LjJCdBsxYoRc5ZAhQ0SnTp1srthfzYcOHSo6d+4sJ9WhQwcBUdXJgotqFfsMIhhuwOrUqXPGEG6IjBjE7F6qJ3gxu5DqCWH0WIgQdnBziyDlKGbLI9VnOCszfXxYucCqU8VhVO9FSvxiDrKvoJkTv+gB1vX3kNQC1hkQxyEimMfDjSysu1DMc3PqDDixr16eISVgmJPy6HEz1XtgZPXMRHJXNls56ntuJfEL5hDu/Kl+ITrjfeWWbQ6s72eR0cr3hvmcIiYqHmioUrhwYWkBBw5+LVmFQHBz3hDy8PAhXtd4N+eGviHqY3779u0zhkIc4V69erk9dMz9Q2ScOnWqbIcHk/ity5MnT9R+ECsU1u2q5M6dW4pc4X4jY54QG1giMHfuXCnyHjt2zKj/xhtvCMQDdbpY/S3Txz196pQUufZ89L7x8vkNnhCXTJzm9PTYXxQCvzV/UuycPd2oUfTeB6TImy17dnIjARIgARJwkABFxhBMiow2D5XfRUbcAKikAXjqjRueZCq4AUdWTxSsVY+F5cQ69Ytq1V/9+vWlEFCpUiVjCCfEKPN8dQsuvKe7D/vRcscJ3n7rw4l99fIMma1Y7fJUYp9yYUd/brmm252rU+293HN9zoiZiYRIqlxxxRVSYKxSxd+xysJZMqqwChC3zWKzcqVWDz+QKRsPC/A6wl3069dPrhvCYbTvPLyHen618FT7uGrVKvm7+9NPPxl727RpU4E4qX4qusiIeZ1//vnyd85sjanmjIRLsLRXpUSJEtJd94YbbkjIsswPPDAJL2MvJtKq9ttvv5Xu6tu3bzfYIy5t69atHd0Lq79latB/9+6RcQEPfL3QmEepZ9qJci+NdHRefu/Mi2zdVhis79JebH1llFG14E01ZDzMs4oUtdKcdUiABEiABCwQoMgYgkSR0cJhiVbF7yIjYkCpZA8LFiwQyESYTAVZLG+//Xa5JFi+4ULfyRLuolr137VrV3kTdvbZZ7uShThSfD1YKTjpEuwkr2Tryy3Bya0z5IbIaHaL98sNk1tnzcs9xxp27twpRSjEz1UFlrlKaHNrnU71a7aMjmTBjPF0gRqCyM033yyt+lSMWPPZiiYyoi5cdP0c51AxVutA3ENVIKhijyHm+aGYRUY1JySugVWj7oI7YMAA0aNHD2Pal156qRQYL7nkkoQtxfxQzqmJWO030Va1v/32mxQaf/31V2Pp/fv3F927d3cKhQzFESmrvX49hAH//mOdjAd49NefjfEv6tFHlHnBf1a8jgGK0JGffjM3De4rNvbPsJbPc+nlMi7mORdXcBsD+ycBEiCBlCBAkTG0zRQZbR53v4uMFSpUEL///rtc5erVqzNZ39lcui+ar1mzRiCTLUr58uXFunXrHJ1XtItqDAQrHAiN5ds9Lce95chpx8Y3WwBFu3l3bFB2lImA24KT02fIaZER8zOLSMo9PlmFbi/3/PLLL5cCo/qOBu+gxc41WzKarV8jZYGHyKhbLWLtsYiMsFpHsqggnUM9hrD6zYLQeN111yX8mzeSyKgm1rBhQyk2Ij6oCsGC92666SbpIn3eeeclbA3hLK71yeCMotxzzz1ZzhHJsWABGMu58ksCol27dknX6a+//tpYp5NhZKxeDz1S9TLpIv3Ptq3GPC4ePkaUbPFslvyTsYKfREbw3TZhrPjj+YwY42eXLCVdp/Nf+59kxM81kQAJkICnBCgyhnBTZLR57PwuMsLl7OjRo3KV+/fvzzJLsk0cnjc/cOCAKFSokBwX8aOKFi2aKcOlVxOqmkOIp84Sot3fzomMXs2d40QmoASnGqGPkKtl4f+HP3NSqHZ1wknauZd7nj17dnHq1CmDpBvJq9zepnAxGVVGcLhAR8pQb0dkDIqrdDj2ejI2eRGWLZs4fTqYvxuwuIUF41lnneX2Mcuyf5w5uHAvW7Ysk0BofkgCF2rEV1ZxXtGxigurx55VD1Pgyq9iHJtjJCt3bD9Z1f7777/SolG3ms0SnsMVqp6VQzyV46S4Mkeo40qTZ4nz6icmAzz2BskBIZAqrx4VsgFzM7vZq/dUwrNatWoJCOw4I3gAZO5Lj5MdLTQEQo7genXlypWSid7OYfyWutv11myxpmlDo+4/2bKJXn+fFv87aak5K2VBAMYHeCjDQgIkkHoEKDKG9pwio82zT5HRJkCbzSky2gTI5lEJeCk4UWT0x2H0cs+TUWTUk/bAJRjxB5EABZZheob6SCKjXj9SNnI/iTqxnlqKjLESs15fiTxosXjxYiPrOMRBeDyEs2TUXfIrVqwo40yq5GboR1mHQ5iE4IhYh+ZEQ36yqqXImPm8mL9DIB5CYB47dqw8D2brf32/UQ/hGKZNCyWpUecLcc7RFn3pD1H0kcOFhrDSzvppt1eTIqM9flm1psiYFSG+TwLJS4AiI0VGR06330VGukvb22ar7kFuuEvbmzlbO0HAS9dZniEndsx+H17uebK4SyNDvF50K51IGerDiYxK1FEZ0M0Z5tUYfhJ1YjlxQXaXhls/bpz96C5t3gOzkGQWGdX7mzdvlk1VKJJoIqMSpHA29YQyfrKqpbv0mZ/GcK7KOA8o+J7SLVpVa4jMeE9PYKVERnOIh+eee0489dRTUtCOJTSE3i6W7xAn6tJd2gmK4fuA9WKfPn3kdyUtGd3jzJ5JwM8EKDJSZHTkfPpdZGTiF3vbbDXQuRPChL2Z+r91pNh+mHm4C328jps5FLOIgZsAWJzUrVtXlClTxrA0QF3l5hTO4iRWSrvn8l4AACAASURBVE7sK89QrNQTW9/LPcdKg574JbG7FYzRmfjF+31SQhKSCukiozl+o1VLRt0KUrlV4/cJWbX9kICIiV/Cn7GsREazkKh60S0RVXzOcH0psRDnIJbQEIkSGZn4xd3vIoqM7vJl7yQQBAIUGSkyOnJO/S4yNmjQQCAbMcqMGTNkkoFkKgia//jjj8slPfroo8ZanVpjOIGofv368illpUqVjGGcECacmrMS2iK58Tg5Tri+VDw25WKk6phjt6Ee3Cg//vhjw/0sXHy3cK+hT3VzuGHDBjFlyhTDNS4IImMQzpCT58hqhla3z6aV/p34LFv93tDn06xZMzF58mTjpSuuuEJmH65SpYqVabOOTwmsWrVK/u7+9NNPxgzhEj5p0iRfzdic+AVZr3HD3LJly7DzRPxDPOhRBSIL4jPecMMNCV+XWUjUBUezi6vuTgtLRuwVkr/AMg0lUjIt/C4hmV7p0qUTnoDo22+/lXEYYR2sCh6yIYGNkyXW77V/9+4RqxvVEwe+XmhMo9Qz7US5l0Y6Oa2ofYVzcTa7S6MD8/VKrCIj+oglNEQiRMb1XdqLra+MMngVvKmGqDxzjjirSFHP9iPZB6LImOw7zPWRQNYEKDKGGDEmY9ZnJWoNv4uMCDatMkEOGTJEdOrUyeaK/dV86NChonPnznJSTmZRVKvUL6qvvfZaKS7WqVPnDAhOCBNek8WNGCwCEWfKHGPKjbmYxcJw8YxiFRlxk1utWjWBWEdKrPSzyJhsZ8iNc5LoPp34LFv93jCvtW/fvvI7RpXChQtLoREPDFiCRwAPUSBa7du3z5g8XOl69erlu8XoIiOuE3AOkUwtWsH3LizBVMmdO7fMNB3uN9LNBZuTd2AsPbmH7sZqto43u+Qr935z4hdzshi8v2DBAjF//vyIQqyba1Z9z507VyamOXbsmDEcHizjoavTJZ7vtdOnTslM03s+et+YzvkNnhCXTAzFOXS7YO/NSVeiJX5RrvMQzWN1l44lNITXIuNvzZ8UO2dPN3AXvfcBmVE6W/bsbm9BSvVPkTGltpuLJYGwBCgyhrBQZLT5AfG7yKgHmUdmvNGjR9tcsb+a6zGu3MjMiotqWDTghgsXhZGKE8IE+g6X0RBP2HVXY3XzAxcecwwg9IGbJljJwDIKNxv58uWTbsUqs6K6OcL76jXVBvGG9GyKGFu/cFYX4GBijmuFPiD0wYICBW5qegknMpov4mMVGZXVCTI+IrA/xvSjyOjlGXLyE2q25tDPm34WwmXw1OPy6dZAkTK0OjlvO3058Vm2+r0Rbp74zCHGl14QBy+SRZmdtbKtewTGjx8vWrVqlWmA119/XVrG+bFAZDx48KC0XrzsssssT/Hzzz+XIhdchlVB3ELlYWC5I1aMmQC8U/A9qwp+6yHy3nnnnTH3ZaWBne+1tc80EzumZVhqF7m7rhS5sp99tpWh464TzsU57s4C2PDUP/9IkXfvJx8bsy/+ZFNR8RX3LanN14g6Pj2uaQCxRpwyRcZk2k2uhQTiI0CRMcSNImN858do5XeREU/Za9asKeeblpYm1q9fb3PF/mperlw5kZ6eLif1xRdfCGQzdbLgorpAgQKiYMGCUbt1QpjAAOqizJzRUA82rl80w5IPN3gq06HKfokbPiXgrVixQrp1mUU/sxgXbmzzonURMFLGTt01TW9vx11aj8moB+lXIqMeDwn/jpQFNNaz4cS+en2GYl1jtPq6yIh6uigcS/ZMKxlanZy3nb683PNI81y4cKG0gNu2bZtRpWvXrmLgwIF2lsa2HhHAXsFaSpWSJUtKi1R8r/u1fPjhh+K+++6La3rfffeddNfFd50qo0aNEngIyOIOATwwbteundE5YhPDXR3W8m4Vq79lkcZP79FZbBk11Hg7//XVRZWZc0Su4he4NWX5INacrMW1wXzW8fEdf4pVjeqJQ8uWGDMr3a6TSOs/xPOZRgp74/lEXB6QIqPLgNk9CQSAAEXG0CZRZLR5WP0uMmJ5RYsWFXv37pUrXb58uasXoTZxxtQcNzbXXXedbFOkSBGxZ8+emNo7WdkJYQLzCRcHyGz5hXpmVy4lMioRCHX0fyMGEcqyZcuECmIeTmQMFwTdPL6yUFNWbbip0eMqRhMZdbFQWT7qrtrxWjLCUlDFglQu4H5J/GL1nDl1hqyOZ6Wefh4hVpsT8CjBF31Fy7qpWzLqSRP0ZApW5uNFHb/sAx6eQGhcunSpsWzE2IVYpS5gvOARzhVVjau7HdqdS6Tvjaz6jbddVv3G8/7p06flniH7tSoI54A9w0O+ZC54gAmh8ccffzSWyQyr7uy4EjJU71deeaUUGPHQ1e9l87BBYsOL3YxpnluxkowLmKeSO7FnU1VkPLpmlYyH+dfaNQbrsi8OFBd27JqQI0KRMSHYOSgJkEACCFBkDEGnyGjz8AVBZITrnQpqnUwX/fqFNoQLuKIlqjglTEQSGbEusyUiXjO7SysXlHD9KEtFtIPYiKJb/IVrgwtDuNwrETHchaJZbLTqLh1ur+yIjEoMQSwqCDMUGe1/GswiI1zxzAHy1Tm0KjKqWflVbHTqs2yfvhAnT56UohVi36lSvXp1KVpddNFFTgwRUx9u3rDHKxbG2y6mhVuovHHjRrlXS5ZkWA3huwh7lSNHDgs9BL/K/v37pWX9l19+aSwGYUYQzoLFGQIIezNmzBijs9tuu026SBcqVMiZATzo5c/JE8S6thkJhXKdd750nS5ww40ejJ78Qxz89mspMB7ftdNYbIXR48UFTVskbPEUGROGngOTAAl4TIAiYwg4RUabBy8IIiOecD/yyCNypbD4gkVSMhQEYsdNL8rbb78trSgSVZwSJiJlNHzggQfE+++/b2S8VOtUGS7DuUKHs0pEOxVw3BzYPJLACVdrJSypeGJmoQkCH1y3YdmEeFwoWcVkDLdXdkRG9BfJujLec+HUvloZ38uxrMwHdczu0npWTr2PcOKTHtg+qwyt4QR0q3N0up4f9wEPA5SYhvUioy3Eq5tvvtnp5UftjyJjeDyIbYsYhFu2bDEq4EzrLtOeblSCB8NvMYQvVRo2bCjPK4s9AhCxZ82aZXQCQRfXd0Esu9+bI1Y/EbouRcl21lmiysx3RJE69wZxOb6Z8965H4lVjR4Wp//915hT5elvi2IPJu76GBOhyOibI8KJkAAJuEyAIuP//66fhn+PxeIXaLqrWAzTt7jK2KoFQWT866+/ZPKPU6dOycX9+uuvokoVd1xTYqMXf+1Vq1aJSy+9VHaQPXt2GXQerpuJKk4JE+GEPnWBpruqKpdlc2DtcJkRzW6u5oQcEAXNyWKUS7XZVbJ79+4yOQAsKcxu1Mp10mpMxnB7FUlkNLvpYiyImiomI8RzVTA+srrqLtzxngun9tXK+F6OZWU+qBMt8QveVy7va9euteQuHS5Dq+7Cb3Vebtbz4z5gva+++qo883rxOsFGJJFRWaVibnpiKnwWEdN20KBBYvPmzfI9PCzBQxP8rScPQl1YICO2Ln6z9PfQb6QEVOZ2qOtlUgFz8g2MDyvq1q1bu3lMfd93ixYtxMSJE4151q5dWwpiTv5O6wnR1EBOuvD7BTI+DxAU8bumSvPmzcWECRP8MsW45rH/q/nS4u7EwQNG+4rjp4rijTInvoqr8yiNIn2PRbr+cnp8t/rbMfN1sbZlY6P7nAUKSlf0Qrc6G6s8nvlTZIyHGtuQAAkEkYBf9DIn2NnRuWjJaHMH7MC3OXRMzRHQHTdeKIjrpT8Nj6kjn1TWn+hDgELQ+kSWRAgTuFBu2rSpvPFQomCqXMh5tdde7quXY1nlF/SbLqvr1Ov5cR/U/ObOnSuF9QMHMm7K4abeo0ePeJYacxsrloz6Qwb8G+KoEpLD/a0spc0PB8J9v6kJmxNQ6WOYQzzEvMgYGvTv31/07NnTaIEEYbDYq1OnTgy9JG9VswUuLKEhNJYqVcqRRZt/79RDMSRB0a3vK1euHDbciCOTMHWiYgOHCysRz3hbt26VXhoqxAn6SCYr2SM//SAt745t3GDgKTdohCj1XPt4cFlqo3+P4QH13XffLSZPnizM3h16Z3iQEu0cZfW+pYnZqLR1zAixvuvzRg+5LyorLUPzXnGVjV6da5oq16ZM/OLcmWFPJBBUAhQZQztHkdHmCQ6KyPj1119ncq2De5fXrnY2URvNFy9eLC2oVMHfN910k1Pdx9VPIoSJcDf8folPFhdEHzbycl+9HMsqaoqMVkl5Vw+W6BAaV65caQz69NNPZ7Iac2s2ViwZMXYkq2bzjaZZLFQCCv4PwUi3VI6UgMr8nWdOaOUWCzCfNGmS0X3VqlWlwKgs7N0aN2j9DhkyJJPAV6FCBelKfdlll9leSjjhAvuvRCPdwt32YAno4Oeff5YC47p164zRcd47d+6cgNm4N+SxTRvF6kYPi8M/hsLfoJTp0kNc1LOfK4MmmyXjxn49xaaX+hus8l15tYxxmbuM93F7I20YRUZXjjI7JQES8CEBioyhTaHIaPNwBkVkxDJ1679atWqJTz/91ObqE9P8rrvuEp999pkc3C+xnhIlEOluiuChu0InZneSa1Qv99XLsazskjpbqXam/LYP4fbq0KFD8vscN26q3HnnnVLkKlasmJXtjatOpAcbetxWsyUjBlIxN+MVGbdv3x4xAZXXIuPu3bsl+88//9xgiCzpYJ8/f/64uCZ7I4ixEGVVwRmFRaP+sDAeBpGEC92qTI8HizixcN8fMGCAHM7skh/J7R/tEGLm+eefl678mDcslmCxir/NIQL0Mx/PutAGD4IhMOK8qfLaa6+JZs2axdulr9udOHRQuk7v//ILY54lmrcW5Ue8Ynve5rAv8OxBwWcWlowqfjVe02NZ4zxs2rRJhl5BqAq4rOOzjvOA79tnn31W9gMrU1jt6u9bPS92F/d7h2fE9omvGt0Uuq2mdJHOmb+A3a4dbU+R0VGc7IwESMDHBCgyhjaHIqPNQxokkRE3gnosxvfee0/GxgpSQTyvBx980JgyYjPChSXRJQjCRKIZBXF8L/fVy7GCuBdezTlI+4Cb3bFjxxpoKlasKG+cEfvSjRJOZNQFHXUzD0syCItmATArkdHs9oybeNzAI/ZkpARUXoqMiG8LgRExSFXBHPVsv25wT4Y+3333XSmaqTjayLgNodHONUgk4UI/E7rIqItGefPmledTP1c6Z3MfSmxCO3M/+mfACW8CXOeAFbLLywv1bNkkq4ceeigZjkLUNax+8lGx+923jDrn1XtMVJo629a6zfush2YIJzJCzIUorr7HMLj5HC1cuNAIAxHufavnxc7C1jRuIHbNecPoothD9UXlaW/a6ZJtbRKgu7RNgGxOAklAgCJjaBMpMto8zEESGbHUdu3aidGjR8tVw21pyZIlomjRojYpeNN8z549onr16obrUNu2bcWoUaO8GTyLUYIkTPgCWEAm4eW+ejlWQPAnZJpB24dhw4aJTp06Gaxy584tY+7qD2OcAhlOZNSTT8EyrH379jLRWDwiI274R44ceUbil6wSUGF9ylrSLXdpiGQQGI8dO2bgHDp0qOjYsaNTeJO+n6+++kpae+3bt89YK2LhNWnSJK61x2rJaM5yj/P8+uuvGyKx2TNAuf2b25mFxGjWu7EuDDx0a8XChQtL9/Jbb7011q4CW//3dq3E9knjjfkXuqOWqDJzjsiRN1/MazKHXUAH5piMuiUjhEWcT1guqu8UtDGLjMpqUU0o2vvRzkvMCxJCnDxyWFp97psf8uhBKdGspSg/alw83bGNgwQoMjoIk12RQEAJUGQMbRxFRpsHOGgi486dO0VaWpq8iUPBBdW8efNsUvCmObJTquyKuJlNT08X559/vjeDZzGKk8IELkj79u0rEGvSHFMKF7LmJ+h2AZhvoOz2Z7W9OTOoylQMSxEU8/u6a5v5xiFSlm27Mbmc3NesuHg5VlZzSeX3g7gPb7/9thTA/v33X2PrRowYIQU/FvsEIHx26NDB6Oiss86SFqOPPPKI/c5TrAfEEoVA88cffxgrj1estRKTMZr4o4uM4azdMEEITV6JjOYHBhdffLEUGBHvM9XKhj7dxeahA41l57v62lCcwdIXxoQiHpERD6/xH5I6qWsIv4iMx7ZskgLj4e+/Mzhc2KmbKNs7FAKAJbEEKDImlj9HJwE/EKDIGNoFiow2T2PQREYsF243+s0RntjqLnc2kbjSHC5pr7ySEZsHN9VwJ/JLcVKYwM3O7NmzZRZw/Um6SsKBzLJ6Rmm7DBIhMpqzzGIN5uyy5htIPdssLKVUUgi4iNatW1fGy0K8JCeLk/ua1by8HCurubjxfqKzb1pdU1D34X//+5/8TOjiDSzXIZCxxE9At/5HLxB+IDD+5z//ib/TFG+5efNm+fu9fPlyg0TXrl3FwIEZopIVRObfCPWwqUaNGpmySyurs2iWjNHc/r0QGbt16yYGDRpkLPu6666T12qI95iqZcvLw0V6twxL4XPSykmhMe/lV8SEJFZ36TfeeEMgDmzTpk2Nay0/iIxHfv5JJsj5O329sf60gcNE6TYZWaVjAsPKjhOgyOg4UnZIAoEjQJExtGUUGW0e3SCKjFgy3IBwUa/K8OHDM1lq2MTiaHNY5EBAUgUX4giy7afipDCBC+KtW7cKJHeAsKos+9Trv/zyi8BF8AUXXOAIAjdERlgP4Ixhn9T81WQjZf9ULpFKLDTfQOoWCRAWlchYokQJ17KJOrmvWW2Wl2NlNZdUfj/I+7Bjxw6ZDOvLL780thAx7yCKwRKYxToBWPvjOwbx8VS57bbbpCt68eLFrXfEmmEJ4PscQqOegK5ly5Zi3DjrLp9ma3d1bWPVzVW3ZIzm9u+2yIh1T5gwweCE5HYQGM2/nal4lHbMmCLWtmpqLD1nocLSdbrgLbdZxmEOt4CH1ur6KlriF5wvFRdWT+wS7prJbXfpA4u+FKsa1RMn9meEGqg4brIo/nh8oQYsw2PFmAhQZIwJFyuTQFISoMgY2laKjDaPd1BFRiy7efPmAgGuVfGj0GgWGBGMe+LEiTZ3zfnmTgoTKn4PAtIrCwwlsOHJOvZJiYy4Sbr55pvPiGGmbp5KlSolhT4VW0q/KVPuxy+//LIEguQKKFYzbmKeegw1tP3oo49k7ChYFiI7JorZDTpcXDe1I3rsonBJIrB2ZHpEUSIj3JnMgfid2mEn9zWrObkxlnmPzHurnwdzhtRwe6ssRc2xy9TeI+HI9ddfL2CphKJnpo52E6bvtdn1Xe8jq+ywWTG28r4b+2BlXCfrIMbd1KlTjS6vuuoqKTRWqlTJyWGStq81a9bI75cffvjBWGPjxo3FlClTknbNiVoYLPbxe6YKvCzeeisj8Uei5uXVuPXr1xfwzFAF8QHhycCSQWDPfz+QFnyn/z8RDt6BRWOx+5M/EQ7WuvuDd6SLtCrZcuSQ6y96z/08Jj4jQJHRZxvC6ZBAAghQZAxBp8ho8/AFWWTE0u+44w6xYMECg4KfXKfNLtKwItHnanPrHG3upDChhDZkzUY8pmnTpslA5QhQD5cqPUi5+jesGpU7tXL1gfjYq1cvw+VadzfWrSDjzbhpdnmGUKREQAhUEDd1S0wFXK9nttTQxaZoMRvDxVlS9XWxzO4mO7mvWc3FjbHCuaArywy4g/Xr10+KT9gHXfzFvpkz/aq9RWZdvR3GwFk1u6qb98iqyKhzCteHnrUzWnbYrHhHet+NfYh3Lnba9enTR+CGR5UiRYpIK7xatWrZ6Tbp28KyDgLj3r17jbWCY+/evZN+7YlaoPm3Htcl+O0rUKBAoqbk+rgIewJLzvnz5/vy+st1ADEOcPCbxWJVo4fFv3t2Gy0rjJkoLmj8dIw9Bav6n1NfE+uea25M+qyixUSVme+IAjfeHKyFpMhsKTKmyEZzmSQQhQBFxhAciow2PyZBFxmRCAaWBLp7HZLBwKotUVmnkUUa1ksqyQu2CAIjnu77JdGL+dg4KUwokREMlIiI/YCQA0sx9dqKFSvEvffem2kqylINL+pCEP42ZzhUDePNuGnuT8/qGk1kjMeS0SxMhhMZ1XrQP1xE4eaY6olfzHukc8PNrTnsgBJolVVruIy94URGsEfdaAl4rIqMVvvAmObssDa/zmVzJz/LTszHTh94MAELPL3ALRNW7E4Vsysi+oVFc7zxUSN9Tzk132j9wEq+RYsWmarAIvSpp57yYviUHgMPxPCbpQq+u+EyXLZs2aTjsmHDBumloFvKIskIEr6xRCZwdNUv0qLvr9/XGpXS+g4WpTt0SUpsW0a8JNJ7ZYQGOrd8RVF55hyRp8plSbneZFgURcZk2EWugQTsEaDIGOJHkdHeORJBFxnV8s2u0xUqVJAuthBrvCwQhiB8rFu3zhjWry7SOhcnhQn9JhvCDCyPPvvsM7kfKLrIqCwdzXsUTsiLR2SMlnEzXpEx3piMukgVTWQEC6fiTDq5r1l9jtwYKyuREXPS45epOUbbW1g96u7Syh0ebfUEPPFYMsKC0mofGI8iY1anSsgHSLDMw+dOFVhEDxhgPxsp9njSpEni2muvFdWrV5fdq9dq164t8DsSa1myZIlsovqLtX289bt3754p8QisvWHliwdcLN4QMGfxhsAIodHuwyJvZm9tFHxnwYIRQqMqzARvjR1q/bN9mxQaDy1fajQq3b6LSOsXuj5KlpLes4vYMnKIsZz811WTAuPZJUomyxKTch0UGZNyW7koEoiJAEXGEC6KjDEdmzMrJ4vIiJWZk8HgNQhcuCGF662bZfHixfIGD2KaXvyY5CUcBycFIl3gUTEXYfUAt2ndJRrzQPw7ZAY3Ww2FExmjuUur2I/oUxduomXczEpk1F25zcyczC5tvgGNJGLGc36d3NesxndjrHAu7bq7dCSLz2h7i3UgrAK+L3S3ezN3s0Wp2ZIRlrlK4MR76jsIltSTJ0+WwkK0PsxnNSu+Vt93Yx+sju1WvfXr10uhcdmyZcYQ+HvGjBluDRmofsECruSq4HsVAmO5cuUCtY5kmCx+53TLUbhM42EaXKiDXr744gspMB48eNBYCqyN1fdf0Nfn1fxP/f23dJ3e99k8Y0i4TcN9OhnKumebiz9fz4iXXrhWbekinf2cc5JheUm9BoqMSb29XBwJWCJAkTGEiSKjpeMSuVIyiYxYJawGcIGPzJp6QcZSZKOuUqWKTWKZm69atUqKi+ZA53D7xcU3LsiDUJwUJnSBx5xxWRcZIfDoiV/ASVmVmV1aFcNIiV8iiYzRMm5atXYzJ34JNxd97ipOoznxC+oo0RMil55dWk82gnp23DX18+bkvmZ1jt0YC3u0dOlSgZtbfKajJX7B/FSSlaz2Fu/rrtaqnX6+sO9lypQRbdq0kYKhLjKazy2syHDjPWbMGGG1D8yXloxZnaqM90+cOCEzT+tJJm666SYppsFNPhULEhThe+Trr782lo/EIxAcc+bMmYpIfLFmfAfgN+n48ePGfJAMBnsT1ILPHZK8qJIrVy4pnsYbViCoHJyc92/NHhc735xpdIlEMEiIEuSyquHDYs+H7xpLOP/RRuKSSXwYFJQ9pcgYlJ3iPEnAPQIUGUNsKTLaPGPJJjICB+I0woJw9OjRZ9CBWAB3xjp16kgXuXjKd999J+bOnSuzBEMkMJe2bdtKQdOv8RfDrdkNgSgetkFt40YCDydYeLmvbozlRnw73boVjLNyXVf74JQLuxP7Gq0PN/bB7TnH0n/nzp3F0KFDjSYQGCE0QnBMpQJhEQKjyoSOtXfq1EkMGZLhophKPPy21m+++UY+ZNyxY4cxtXHjxomWLVv6bapZzmf8+PGiVatWRr3ixYvLB7o33nhjlm1ZITqBPzq1FdvGvWxUKnjLrdLqL2ehwoFCd2L/PmmdeWDRV8a8S7ZqIy4eeuZ1eKAWlmKTpciYYhvO5ZJAGAIUGUNQKDLa/Hgko8iokKxevVpaGepuZDqutLQ0KTiWKlVKuk2WKFFC/l+5UMIKDv8hiy3+v3XrVikspqenh6UOKxu4ZsONMmgl2YUJL/YDItTChQulS6fuhuvF2JHG8HJf3RjLLZFRt3w1W9dGYkmRMZEnOfPYiH0Jt3m9QGjEd3AqFKz18ccfz7RUhJ2AhTSLfwjgGgTfNWvWrDEmhWsSPIQMSsF8YamtSqVKlaQFYxCvc/zKfOPAF8WmgX2M6eW9/AoZv/CctIv9OuVM8/o7/Q8ZZ/LIzz8Zr5fp1ltc1O3FQMyfk8wgQJGRp4EESIAiY+gMUGS0+VlIZpFRoYHFx7Bhw6RAeOrUKZvEMjfPnj27FCo7duwYaEsaNwQiR0Gzs7gIeLmvbozlhshodnU2u2CbQSv3Z5W52i8CcqQD4cY+xHX4XG6EfYEl36FDh4yRkAwGD3qSuZhFn/z580tLTrqt+nPXYckIoVElBMIscb2gW+P6c+Yhy1hcO6mCZEYQGGHJyOIsAVgzwqpRlbNLXygtGvNdHZ/HjbOzi9zb4e+Xi1WN6ol/tmw2KsF6EVaMLMEjQJExeHvGGZOA0wQoMoaIUmS0ebJSQWRUiBDTDW7OytV57969cdErUqSI4XINt2uIFEEvqSJMBH2fYp2/l/vq5Vixckil+qm0Dz///LMUGn/55Rdji5s3by4mTJiQlFveokULMXFiRnKIyy67TAqMl19+eVKuN1kW9c8//0jXaQjjqjRp0kQmiPJradq0qZgyZYoxPYjYcJE+++yz/TrlwM8L8RkRp1GVHHnzyhiNhe+o5cu17Zv/mVjd6GFx8sgRY36Iv4g4jCzBJECRMZj7xlmTgJMEKDKGaFJktHmqUklkNKOaP3++WLlypXSHVi7R6t+oC/dp9Z9yp65atWpSZIk0s0glYcLmRyZQzb3cVy/HCtQmeDzZVNsHJNyB0AhLdVVq1aol6Bc06gAAIABJREFUw2TggVAyFDwQgyv4Z599ZiwHFvQQGJG9mCUYBJCUDtmnVbn//vulZWCOHDl8s4CTJ09Ky8sPPvjAmBNCRSCRHYv7BPZ9NlesalhPnDr2tzFYpamzxXn1HnN/8BhG2DXnDbGmcQOjRfbc54gqs+aIwrXqxNALq/qNAEVGv+0I50MC3hOgyBhiTpHR5tlLZZHRJrqkap5qwkRSbV6UxXi5r16OlSr7F886U3UfEI/w1Vdfzbgxr1RJinBXXXVVPBh90+aHH36QIqoe169169YCcSlZgkegffv2YtSoUcbEkcUeFoLFihVL+GJ2794tLS4XLVpkzKVdu3Zi5MiRCZ9bKk3g0P+WyiQqx//cbiy7/IhXRInmrX2BYfvEV8TvHTJi4ua6oIR07c7/n2q+mB8nET8Biozxs2NLEkgWAhQZKTI6cpYpMjqCMfCdpKowEfiNy2IBXu6rl2Ml+77ZWV8q7wMyK3fp0sXAh1AWsGiExVgQy/vvvy8FRoT6UAVxSpFhmyW4BPr16yd69eplLABu77BorFChQsIWtXbtWikw6qEH+vbtK3r27JmwOaXywH+tWytdkY+u/tXAcFHPfqJMlx4JxbLppf5iY7+MM5Gn8qXSpfvcChUTOi8O7gwBiozOcGQvJBBkAhQZKTI6cn4pMjqCMfCdpLIwEfjNi7IAL/fVy7GSec/sri3V9+Gtt96SwtyJEycMlLAca9s2I6mCXcZetMecYfWmSs6cOaVlZv369b0YnmO4TMCcIb1kyZJSaLz++utdHvnM7pctWyZdpLdt22a8yWzlnm/DGQP+u3uXTKpycMli471Sz7YX5QaPSMjk1r/QQWwdm2HVWqD6zaLKzDnirGLnJWQ+HNR5AhQZnWfKHkkgaAQoMlJkdOTMUmR0BGPgO0l1YSLwGxhhAV7uq5djJet+ObEu7oMQS5culUJjenq6gRSC3YgRibk5j3VfO3TokMlFNS0tTQqM1arRHTFWln6uP3v2bBlrUxVY3sJ1unbt2p5Ne968edKCUbeWhfVvgwYZ8fY8mwwHOoPA6RMnxOpG9cSejzNiZBZv+JSoOGGqp7TWtnhK7JiVEU+0aN37ReWZc0S2nDk9nQcHc5cARUZ3+bJ3EggCAYqMFBkdOacUGR3BGPhOll1yofhn6xZxzbKVIs+lzFQa+A0VQhz99Wex4vqq4uxSpcX1v212fUk8Q64jznIAr/c8ywklsAKSeEFo/Oqrr4xZPPjgg9J9Onfu3AmcWeShjx07JkWn9957z6h06623SoERSchYko/Ap59+Kq0Ijx49aixuxowZ8uy6XXCuHn88I5txnjx5pDXlXXfd5fbQ7D9GAmtbNRE7ZmQIi0Vq3yutCLPlyhVjT7FVP338uLSm3DvvI6Nh8ccbi4rjMjKPx9Yja/uZAEVGP+8O50YC3hCgyBjizMQvNs8bRUabAJOk+doWjcWOWa+L0h26iLS+g5NkVam9jPSeL4gtI18SXlk98Awl/rx5veeJX3HWM2jcuHGmzLhXX321FBorVvRXDDHExIPA+P333xuLQjbiqVO9tVjKmihrOE1g+fLlUmjcsmWL0fXLL78snnvuOaeHMvobM2aMaNOmjfF36dKlpcB43XXXuTYmO7ZHYH23jmLry8ONTgrccKOMh5jrvPPtdRyh9fFdO8TqhvXEwaXfGDVKtXlelBs4zJXx2GniCVBkTPwecAYkkGgCFBlDO0CR0eZJpMhoE2CSND+wcIFYWfcOuRq4wBS7/+EkWVlqLmP3B+9IFyuUqh/PFwVr3O46CJ4h1xFHHSARe57YFVsfvXfv3gJJLFRBJl9Ycd15553WO3Gx5ueffy4t15DdVxUkBunTp4+Lo7JrPxH4/fffpdvyypUrjWnhhh9n1+mCc4W+Valatap00y5fvrzTQ7E/hwlsHjpQbOjT3ej13EqVZWbncytWcnSkv9aukRmu/1qz2ui3bO8B4sJO3Rwdh535iwBFRn/tB2dDAokgQJExRJ0io83TR5HRJsAkar55+GCxoXdXuaLS7buI8+s3oOt0wPYX7rI7354ttox4Sc68bJ9B4sLnX/BsFTxDnqE2Bkr0nnu/4vhGnDJlimjatGmmxq+99ppo1qxZfB061ApzaN68eabeJk+eLJo0aeLQCOwmKAT27t0rLRoXLlxoTBnWhqNHj3ZsCUiABCtJVWrUqCEtGIsUKeLYGOzIXQLbJ40Tv7drbQySq/gF8uFwgeurOzLwwWVL5EPK4zv+NPorP+pVUaJZK0f6Zyf+JUCR0b97w5mRgFcEKDKGSFNktHniKDLaBJhkzXWRKMmWlnLL8VpgVIB5hhJ31BK154lbcWwjL1iwQFoM7tixw2jYo0cP0a9fv9g6cqh2z549Rf/+/Y3eihcvLi0sb7/dfctjh5bAbhwmcPr0aSk06nE5ETdx+vTptkd64oknBOI9qoIYpRAY1Q2F7QHYgWcEdr37lljz5KPGeNnPPlsKjUXuvsfWHPZ+8l8pMJ765x+jn0rT3hTnPcSs9rbABqQxRcaAbBSnSQIuEqDIGIJLkdHmIaPIaBNgEjaH2+vON2aK/YsWyGQwLMEhgCQvhW65XZz/WCNPXKQjkeEZ8u7M+GXPvVuxvZHglgqhEXHwVHFKxIllZmbBB7HwIDDSZTUWislb9+mnnxaTJk0yFlinTh0pCMaTtAgJhSBczp071+gPFrywomUJLoH9X34hVjV8WJw8fMhYxCUTp4nzGzwR16J2zp4ufmv+pNE2R778osqsd0Sh22rG1R8bBY8ARcbg7RlnTAJOE6DIGCJKkdHmyaLIaBMgm5MACZAACQSKwPHjx6XQiDh0qtx8880yIUypUqVcXcvWrVtlgpfFixcb4yAWHwTGXC5ninV1YezccQJdunQRQ4YMMfqtVq2aFBpjyTSOLOsQGJcuXWr007lzZ/HSS6GQGizBJnD4hxXS8vDY5o3GQsq9NFKUeqZdTAvb+soosb5Le6NN7gsvkpaR+a66JqZ+WDnYBCgyBnv/OHsScIIARcYQRYqMNk8TRUabANmcBEiABEggkAQ6deokhg3LyJRapkwZKTRWr+5MbDMzlCVLlkiBcdOmTcZbHTt2FEOHDg0kP07afQKDBw8WXbuGYiWjXHLJJVIcv/TSS7Mc/Ndff5XJZH777Tej7qBBg8QLL3gXpzfLSbKCbQLHNqTLJC1HVv5o9FXmhV7ioh7WEkdt7N9LbBqcETIib9UrZTKZ3GXTbM+NHQSLAEXGYO0XZ0sCbhCgyBiiSpHR5umiyGgTIJuTAAmQAAkElsCYMWMEkmuogosrWBU2aNDA0TXNnj1bWk8i5p4qSMDx3HPPOToOO0s+AhMnThQtWrQwFnbeeedJoRHWt5EKLGUhMO7atcuoMmHChDOSDCUfrdRc0YkDB8TqRg+L/QsXGABKtnhWXDx8TFQgfzz/nNg2YaxRp1CN20Xlme+InAULpibIFF81RcYUPwBcPglAXMuWTXLQr1eDCsaOzkWR0eau24Fvc2hLzY8cOSLq1q0rFi1aZNT/6KOPxD332AtundXgcCUyP+33Ytys5sX3SYAESIAEnCWA73YIgIcPHzY6HjhwYCYLMjsjwnqsW7duRhf58uWTQua9995rp1u2TSECcJOGaKhKzpw5pev0fffddwaFDz/8ULpInzhxwngPoiReY0luAqsff0Tsfj8jDMR5jzQQlabMCrvoNU0ail1vzzbeK/ZAPVF5xtvJDYiri0qAIiMPCAmQAEXG0BmgyGjzs+B3kfHJJ58UlStXFohN5GVR8Yq8HtfLNXIsEiABEiCBEIGVK1dKV+ZVq1YZSFq2bCnGjRtnC1GrVq3E+PHjjT6qVKkiXbKrVq1qq182Tj0CyI4OoXH//v3G4qdMmSIaN25s/D116lTRpEkT4+9ChQpJq0dmLE+d87KuTQvx55SJxoIL17xLWifmyJNHvnby6FFp9bjvi0+NOhc0aS4qvDwhdSBxpWEJUGTkwSABEqDIGDoDFBltfhb8LDIqK8bnn38+rOXif//7X7n6eK0ae/bsKVq3bi0uuOCCMyh6KTLaXYfNI8DmJEACJEACQkjxBhaN8+bNM3jcfffd0uqwcOHCMTHat2+f7OuTTz4x2tWuXVv2BeGHhQTiIfDjjz9Ki8T09HSjOeKK4jpp+PDhAjE+VUlLS5PWjldeeWU8Q7FNgAls6N1VbB4+2FhBvmv+I6rMDFk4rmpUTxxe8T/jvQuff0GU7TMowKvl1J0iQJHRKZLshwSCS4AiY2jvKDLaPMN+FhmxNIh9r776qli2bFkmMRDCnO5qBne3a665Rlx//fVi8+bNksoTTzwhpk2bJv7880/p+lyrVi1pqYLXUaZPny7/f+GFF57RfziREaInbhohTl599dWy7ffffy/69esnbxzXrl0rYyT99ddf4txzz5XZQ1EPdRB7C8H+ldu3mlu4dcQrmto8CmxOAiRAAiQghHz4pFswwpoe1odXXHGFJT4//fST/K1ZvXq1UR8WjfgtYyEBuwRwLQGhccWKFUZX3bt3FwMGDDD+xvUQBEYkM2JJTQJbRg0V6T06G4s/p1x5+e+/1/9uvJbWf4go3a5TagLiqs8gQJGRh4IESIAiY+gMUGS0+Vnwu8iohDwV4FwJd3gdQiBu/sKJcrogWKJECSk+1qhRQ4qOKHj/mWeeEcjcGMmSUY/JqIRIXNTjwl31A3duXOzjgv6xxx4Tb7zxhuwPwqb6e/v27VJ8fPPNN+Vc8R6sYyZPnixFyGjrsLm9bE4CJEACJBAHAXNc3jx58kihMVwMPL17xMODwHj06FHjZfzOMPRGHJvAJhEJHDp0SLpOf/7552fUufPOO6WLdP78+UkwxQn8OW2yWPdMs7AUKrwySVzwZNMUJ8Tl6wQoMvI8kAAJUGSkyOjIpyAIIqNaKMQ5iIVjx46VYp1ZnFPvK0tGZU0IkVEXAK2KjKhnvjHUxUO8r/qF+GgO4q/GRz1l7Zg3b165HGQUfeqppygyOnKK2QkJkAAJOE8AD41gvX7q1Cmj89GjR2fKRq2PCov1tm3bGi9lz55dWrnjd4KFBNwg8Oijj4q33nrL6Lp+/frygSYLCSgCez56T7pIC/U9lj27dJ0ueu+DhEQCmQhQZOSBIAESoMgYOgO0ZLT5WQiSyIil6m7Mushojt9otmR0SmRUc4AFJQrc4SBEwu1Zt3DUt0V3qabIaPPAsjkJkAAJeEjg22+/lULjhg0bjFE7dOgg49/pBTHxRowYYbxUtmxZKTDecMMNHs6WQ6UiAeXeT5f8VNx9a2s+8PVCsaTO7bJy9bkLRMGbalhryFopRYAiY0ptNxdLAmEJUGQMYaHIaPMDEiSR0Swk6oKj2QUZwt4DDzwg3n//fRHJktEcX1FHGS3xC/rGDSUKbjTh8my2soxVZER9utPZPMxsTgIkQAIuENi2bZt0gVYxdTEEwmRARETBbwkeMqlyyy23SNfqkiVLujAbdkkCZxLo0aOH6N+/P9GQQEQCF+fIJt/74+RpUiKBsAQoMvJgkAAJUGQMnQGKjDY/C34WGZWoqN/Y6bGtIPapRCtI/IKiXJZxk4eA523atAkrMqKuirkVKfGLHpMR9TEG3LTVvPDaxx9/LJR1oj4fvIc54H0khInmLm1eBxO/2DzUbE4CJEACLhBADF6VMAzdX3vttXKU7777zhhNJfVyYXh2SQIkQAJxE0imG8e4IbBhVAIUGXlASIAEkum3wo7ORZHR5mfBDnybQ7M5CZAACZAACQSKQK9eveRDo3ClZ8+eom/fvoFaDydLAiSQGgSS6cYxNXbM+1VSZPSeOUckAb8RSKbfCjs6F0VGmyfTDnybQ7M5CZDA/7F3LvA+Ven/X92mEj9STVEhl4SUGdRp1EFSo5wjXdxHSY1bKZcit3InpEKYQTGupeRSiiQmOY3MNBmMXEIiXURCzZTz/z+rWdv+bt/L3t+1L2ut/Vmv17wm57suz3o/a++99mc/ay0QAAEQ0I7AlClT2AMPPJBg95///Gd2//3JT3HVroMwGARAwDgCJr04GuccRToEkVERR8AMEIiQgEnPChmdCyKj5CCUgS/ZNIqDAAiAAAiAgJYEli9fzho1asRtX7p0KWvYsKGW/YDRIAAC8SBg0otjPDwWfi8hMobPHC2CgGoETHpWyOhcEBklR6YMfMmmURwEQAAEQAAEtCVg0kRMWyfAcBAAAVcEcL9yhSnWmSAyxtr96DwIcAImPStkdC6IjJIXhAx8yaZRHARAAARAAAS0JWDSRExbJ8BwEAABVwRwv3KFKdaZIDLG2v3oPAhAZLSNAYiMkhcEREZJgCgOAiAAAiAQSwJ4aY+l29FpENCSAO5XWrotVKMhMoaKG42BgJIETHpWyOhcEBklh6cMfMmmURwEQAAEQAAEtCVg0kRMWyfAcBAAAVcEcL9yhSnWmSAyxtr96DwIcAImPStkdC6IjJIXhAx8yaZRHARAAARAAAS0JWDSRExbJ8BwEAABVwRwv3KFKdaZIDLG2v3oPAhAZLSNAYiMkhcEREZJgCgOAiAAAiAQSwJ4aY+l29FpENCSAO5XWrotVKMhMoaKG42BgJIETHpWyOhcEBklh6cMfMmmURwEQAAEQAAEtCVg0kRMWyfAcBAAAVcEcL9yhSnWmSAyxtr96DwIcAImPStkdC6IjJIXhAx8yaZRHARAAARAAAS0JWDSRExbJ8BwEAABVwRwv3KFKdaZIDLG2v3oPAhAZLSNAYiMkhcEREZJgCgOAiAAAiAQSwJ4aY+l29FpENCSAO5XWrotVKMhMoaKG42BgJIETHpWyOhcEBklh6cMfMmmURwEQAAEQAAEtCVg0kRMWyfAcBAAAVcEcL9yhSnWmSAyxtr96DwIcAImPStkdC6IjJIXhAx8yaZRHARAAARAAAS0JWDSRExbJ8BwEAABVwRwv3KFKdaZIDLG2v3oPAhAZLSNAYiMkhcEREZJgCgOAiAAAiAQSwJ4aY+l29FpENCSAO5XWrotVKMhMoaKG42BgJIETHpWyOhcEBklh6cMfMmmURwEQAAEQAAEtCVg0kRMWyfAcBAAAVcEcL9yhSnWmSAyxtr96DwIcAImPStkdC6IjJIXhAx8yaZRHARAAARAAAS0JWDSRExbJ8BwEAABVwRwv3KFKdaZIDLG2v3oPAhAZLSNAYiMkhcEREZJgCgOAiAAAiAQSwJ4aY+l29FpEIicwL59+1ijRo3Y1KlTWc2aNbk933//PWvcuDH/e69evU6yEferyN2mvAEQGZV3EQwEgcAJmPSskNG5IDJKDjUZ+JJNozgIgAAIgAAIaEvApImYtk6A4SAQUwKLFy9m8+fPZ9OnT+cE6N9jxoxhS5YsYUWLFoXIGNNxIdNtiIwy9FAWBMwgYNLcVkbngsgoOZ5l4Es2jeIgAAIgAAIgoC0BkyZi2joBhoNATAlQ5GKbNm1Y//79WeXKlXkUY48ePVheXl5SIrhfxXSgeOg2REYPsJAVBAwlYNKzQkbngsgoOcBl4Es2jeIgAAIgAAIgoC0BkyZi2joBhoNAjAmIaMa77rorIaoxGRLcr2I8UFx2HSKjS1DIBgIGEzDpWSGjc0FklBzkMvAlm0ZxEAABEAABENCWgEkTMW2dAMNBIMYExD6M69atY6tXr7b2Z4TIGONBIdF1iIwS8FAUBAwhYNLcVkbngsgoOaBl4Es2jeIgAAIgAAIgoC0BkyZi2joBhoNAzAk492ZMhQP3q5gPFBfdh8joAhKygIDhBEx6VsjoXBAZJQe6DHzJplEcBEAABEAABLQlYNJETFsn+Gz4oEGD2IoVK3hUGFKwBHJzc1mDBg3YgAEDgm3I8NohMhru4BC7B5ExRNhoCgQUJWDS3FZG54LIKDlAZeBLNo3iIAACIAACIKAtAZMmYto6wSfDN2zYwDp16sTWrFnjU42oxi2BOnXqsIkTJ7Lq1au7LYJ8NgIQGTEc/CIAkdEvkqgHBPQlYNLcVkbngsgoOYZl4Es2jeIgAAIgAAIgoC0BkyZi2jrBB8MPHDjA97LbuXMnq1atGhsyZAiPsCtWrJgPtaOKZAQOHz7MI0b79u3LNm3axMqVK8fWr1/PSpYsCWAeCUBk9AgM2VMSgMiIwQECIGDS3FZG54LIKHktyMCXbBrFQQAEQAAEQEBbAiZNxLR1gg+GN2vWjL388susYcOGbNGiReyss87yoVZU4YbADz/8wPLz89ny5csZ+WHevHluiiFPFgRwv8oCWsyKQGSMmcPRXRBIQsCkZ4WMzgWRUfLykIEv2TSKgwAIgAAIgEDkBPbt28dycnLY7t27T7KFRKe8vLykNpo0EYvcCREZsG3bNlapUiVWokQJHklXvnz5iCyJb7M7duzgkaQHDx5kW7duZRUrVowvjAB7jvtVgHANqRoioyGORDdAQIKASc8KGZ0LIqPEIKKiMvAlm0ZxEAABEAABEFCKgNulh/z5ecop3PbCwkKl+gBj3BOYPHky69ixI6Lo3CMLJKeIJp00aRLr0KFDIG3EvVLcr+I+AjL3HyJjZkbIAQKmEzDpWSGjc0FklBzpMvAlm0ZxEAABEAABEFCKAERGpdwRuDEDBw5k9GJN/3viiScCbw8NJCcAPwQ/Mkx6cQyeVjxbgMgYT7+j1yBgJ2DSs0JG54LIKHldyMCXbBrFQQAEQAAEQEApAhAZlXJH4MZA3AocsasG4AdXmKQymfTiKAUChVMSgMiIwQECIGDSs0JG54LIKHktyMCXbBrFQQAEQAAEQEApAhAZlXJH4MZA3AocsasG4AdXmKQymfTiKAUChSEyYgyAAAikJGDSs0JG54LIKHmRyMCXbBrFQQAEQAAEQEApAhAZlXJH4MZA3AocsasG4AdXmKQymfTiKAUChSEyYgyAAAhAZMwwBiAySl4kEBklAaI4CIAACICAMQQgMhrjSlcdgbjlClPgmeCHwBHjoKrgEWvfApZLa+9CdAAEpAmY9EFKRueCyCg5lGTgSzaN4iAAAiAAAiCgFAGIjEq5I3BjIG4FjthVA/CDK0xSmUx6cZQCgcIpCUBkxOAAARAw6Vkho3NBZJS8FmTgSzaN4iAAAiAAAiCgFAGIjEq5I3BjIG4FjthVA/CDK0xSmUx6cZQCgcIQGTEGQAAEUhIw6Vkho3NBZJS8SGTgSzaN4iAAAiAAAiCgLQGTJmLaOkHScIhbkgB9Kg4/+AQyTTW4XwXPWPcWEMmouwdhPwjIEzDpWSGjc0FklBxLMvAlm0ZxEAABEAABENCWgEkTMW2dIGk4xC1JgD4Vhx98AgmRMXiQBrcAkdFg56JrIOCSgElzWxmdCyKjywGTKpsMfMmmURwEQAAEQAAEtCVg0kRMWydIGg5xSxKgT8XhB59AQmQMHqTBLUBkNNi56BoIuCRg0txWRueCyOhywEBklASF4iAAAiAAAiBgI2DSRCyujoW4pYbn4Yfg/YD7VfCMdW8BIqPuHoT9ICBPwKRnBURG+fGQdQ0y8LNuFAVBAARAAARAQHMCJk3ENHdF1uZD3Moana8F4QdfcSatDPer4Bnr3gJERt09CPtBQJ6ASc8KGZ0LkYySY0kGvmTTKA4CIAACIAAC2hIwaSKmrRMkDYe4JQnQp+Lwg08g01SD+1XwjHVvASKj7h6E/SAgT8CkZ4WMzgWRUXIsycCXbBrFQQAEQAAEQEBbAiZNxLR1gqThELckAfpUHH7wCSRExuBBGtwCREaDnYuugYBLAibNbWV0rsBFxu+//561adOG9e/fn9WsWZO7Z/369Sw3N5cdPXqU/3vRokUsLy/PpesYE86jAoWFha7LBZFRBn4Q9qBOEAABEAABENCBgEkTMR14B2FjUOIWzR0bN27MVq1aZZldpkwZVlBQwEqVKhVEVzzXmWx+m6wSmvMOHjyYzZw5kxUtWtRzO24KBOUHN23HJQ/uV3HxdPb9hMiYPTuUBAFTCJj0rJDRuQIXGfft28datmzJ5syZY00M77nnHnbXXXdxYTGbyRdERlMuQ/QDBEAABEAgrgRMmojF1YdBiVvJBLzFixezFi1asNWrV1sfrYPmTnPU9u3bs6VLl54kbkJkDJq+WvXjfqWWP1S0BiKjil6BTSAQLgGTnhXKi4y9e/dmEyZM4F9wnRM2mqR16dKFjRgxwvXXaYiM4V4saA0EQAAEQAAE/CZg0kTMbza61BemyEhMRo4cyTZt2sSmT5+eFhHNNdetW8c6duzoCaWXchAZPaHVPjPuV9q7MPAOQGQMHDEaAAHlCZj0rFBaZHROwiiKsWrVqqxXr158kEBkVP5agYEgAAIgAAIg4DsBkyZivsPRpMKwRUbnh2qaU86YMYPTEsup9+7dm7AlD33Epjlnsrz2pdfOrXyo3E033ZSw1JlETvpwTunqq69mJUqUYGPGjOGRlfbfihQpYkVc2lfsUDlaBl62bNmMQqmXIRCUH7zYYHpe3K9M97B8/yAyyjNEDSCgOwGTnhVKi4w0UGiJS35+fsIkUEzssFxa90sJ9oMACIAACICAdwImTcS8996MEkGJW6miBJNtwSNIkshHiQRFmndSxKP4oO2kbc9r/81Zzj5H3bJlS8LSafqtadOmbMGCBSct36Z65s+fz4VEUceoUaO4aDl+/HhP+5C7GSlB+cFN23HJg/tVXDydfT8hMmbPDiVBwBQCJj0rlBcZ/R40WC7tN1HUBwIgAAIgAALhEjBpIhYuOXVaC0rcSiUypotkJCoiajGZyGiPZLTndSsy0rY/QsSk/3faaI9kpN/btm1riYz33Xcf27ZtG5s7d67vAiO1FZQf1Blp0VuC+1X0PlDdAoiMqnsI9oFA8ARMelZAZAx+vKRsQQZ+hGajaRAAARAAARCIlIBJE7FIQUbYeFDiViqR0b4no3N/xnSRjOny+iEy0hJtWjZ1Az4sAAAgAElEQVS9ZMkSvv+4M5KRDo+ZNm0a6969e8JBiH65Lig/+GWfCfXgfmWCF4PtA0TGYPmidhDQgYBJzwoZnSvw06XtS6VTDQyxj459b5x0gwiRjDpcYrARBEAABEAABFITMGkiFlc/ByVuJRMZSSgcNGiQtdehfY9vyk97HTZq1MhaLi2WK5Nv0uV1ioz2cm6XS7/99tsJB9JQe5Tsy6VnzpzJVq5cmSBG+jVugvKDX/aZUA/uVyZ4Mdg+QGQMli9qBwEdCJj0rFBaZAxiMEBkDIIq6gQBEAABEACB8AiYNBELj5paLQUlbgnRcNWqVVaHnR+kaX/GnJwctnv3bkYHrXTr1o0VK1aMi4z232gJNS1dTpXXTtRZLt3BL3Xr1uUHuHTt2pVVrlyZi5zC3r59+7JDhw6xcePGWXsykshIUY4kli5dutSKevTDo0H5wQ/bTKkD9ytTPBlcPyAyBscWNYOALgRMelZoLzLOnj2b1a9fnyGSUZfLB3aCAAiAAAiAgBwBkyZiciT0LQ1xSw3fwQ/B+wH3q+AZ694CREbdPQj7QUCegEnPCuVFRvtm2PYv0bQMJTc3l51//vmsoKAAIqP8uEYNIAACIAACIKAFAZMmYloAD8BIiFsBQM2iSvghC2gei+B+5RFYDLNDZIyh09FlEHAQMOlZobTI6DwJkPZonDp1Kjt48CBbt26dtbeOlxGK5dJeaCEvCIAACIAACKhHwKSJmHp0w7EI4lY4nDO1Aj9kIiT/O+5X8gxNrwEio+keRv9AIDMBk54VSouM9hP2yC3Ozbkzu+rkHBAZs6GGMiAAAiAAAiCgDgGTJmLqUA3XEohb4fJO1Rr8ELwfcL8KnrHuLUBk1N2DsB8E5AmY9KxQXmTctGkT34hbiIxdunRhtBG32z0Yne6GyCh/AaAGEAABEAABEIiSgEkTsSg5Rtk2xK0o6Z9o24sfFi5cyJo0aaKG4RpZgfuVRs6KyFSIjBGBR7MgoBABk54VEBkjHFgy8CM0G02DAAiAAAiAQKQETJqIRQoywsa9iFsRmml80278sGHDBkYiSPHixdm0adOMZ+J3B3G/8puoefVBZDTPp+gRCHglYNKzQkbnOqWwsLDQLbxsoNFy6fz8/LRN2A+DcWMLIhndUEIeEAABEAABEFCXQDZzCnV7E0/L3IhbqpK555572F133cXy8vI8mUjb/rRp04b179+f1axZ01PZoDKn88ORI0cY/T5q1CjefLt27SAyZuEI3K+ygBazIhAZY+ZwdBcEkhAw6VmhtMgYxOiDyBgEVdQJAiAAAiAAAuERMGkiFh41tVqKUmQkkbBq1arWdjxeycRBZJw0aRKPXty/f7+FByKj15HyS37cr7LjFqdSEBnj5G30FQSSEzDpWQGRMcJRLgM/QrPRNAiAAAiAAAhESsCkiVikICNsPEqRUbbbJouMy5Yt4+Li2rVrT8IEkTG7kYP7VXbc4lQKImOcvI2+ggBExnRjIPDl0kEMQEQyBkEVdYIACIAACIBAeATw0h4e66BailJktIuEDz30EN9rcOjQobyrRYoUYatXr7aWM1PeGTNm8N/q1q3LlixZwugQQrFc2ik40lY/8+fPZ9OnT+dlRo4cyXr37s3/++qrr2YlSpRgY8aM4fWvX7+e5ebmsqNHj57UblDcnfUKP3Tt2pUdOHCAzZw5M2XTEBmz8wruV9lxi1MpiIxx8jb6CgIQGZUQGVPtzbho0SJrP5x9+/axYsWKsaJFi6YdtxAZcVmDAAiAAAiAgN4E8NKut//IelVERhIJd+3axcVDmkOSKLhp0yYuEtr/207cLiymExlJRGzfvj1bunQpK1WqFBcVmzZtyhYsWMBKly7NWrZsyebMmcN/o3ms/d9heVj4Iaz24tyOh63s44wpln2HyBhLt6PTIJBAwKS5rcyK3VAiGUlgfPDBB1lBQQGfhIlEk7GcnBw2fvx4PlGzT+LSKqOnnGL9HPXDXgY+rkkQAAEQAAEQiCsBkyZicfWhSiKj/RAXEgJffPFFNnz48JSHtLgVGUmkpNSrVy/+//aDX/bu3XvS4YbOKMowxgZExjAo/9JG1O8d4fUULXklAJHRKzHkBwHzCJg0t5XRuQIXGTOdwmdfZmKPaoTIaN5Fhx6BAAiAAAiAgCBg0kQsrl6FyLg3YVl1VOPAvlz6m2++YbNmzUppCpZLR+UltGs6AYiMpnsY/QOBzARMmtsqLTJStCLtYzNhwoSky6AziZDJXInl0pkHOHKAAAiAAAiAgMoETJqIqcw5SNtUFxnHjRvnerm0/aRqinKkRMutMy2XFity8vLygkSdtm6nH3DwS2SuQMMxJgCRMcbOR9dB4H8ETJrbai8y0ubbI0aMSFhKnW6kQmTEdQwCIAACIAACehMwaSKmtyeyt14HkZF6l+ngF/uqGsrft29fdujQIUYiJSX7wS90cEzZsmUZHbLiPPiF8oqDZTLtL5499ZNLpvLDxIkT+b6Z+/fvtwohktFP8qgLBE4QgMiI0QACIGDS3FZpkTFTpCJN7AYPHsxPwnM7IYPIiAsYBEAABEAABPQmYNJETG9PZG99lCJj9labVzKdH44cOcJI/Bg9ejTvOERG8/yPHqlBACKjGn6AFSAQJQGT5rZKi4zkZDr4pUWLFmz16tX8q69I4svx3LlzrROm3QwKiIxuKCEPCIAACIAACKhLwKSJmLqUg7UMImOwfN3W7sYPGzZs4GJj8eLF2bRp09xWjXwgAAIuCUBkdAkK2UDAYAImzW2VFxmF0Jifn3/SkHJ72Iu9IERGg69MdA0EQAAEQCAWBEyaiMXCYUk66UbciiubMPvtxQ8LFy5kTZo0CdM8tAUCsSAAkTEWbkYnQSAtAZPmtlqIjH6OR4iMftJEXSAAAiAAAiAQPgGTJmLh01OjRS/ilhoWm2kF/GCmX9ErvQhAZNTLX7AWBIIgYNLcFiJjECPEZZ0y8F02gWwgAAIgAAIgYBwBkyZixjnHZYcgbrkEFXA2+CFgwKgeBFwQgMjoAhKygIDhBEya28roXKcUFhYWuvW1KtAQyejWY8gHAiAAAiAAAmoSUGVOoSYdPawKW9yiU6LvuuuutPt479u3j7Vs2ZLNmTOHlSpVKhCQ1EZOTg7bvXs3GzFiBOvVq5fVjhsb/TYqbD/4bT/qAwETCEBkNMGL6AMIyBEwaW4LkVFuLEiVloEv1TAKgwAIgAAIgIDGBEyaiGnsBinTwxa33Ah4YYiMI0eO5NxIXKT2GjVqxKZOncoPN3RjoxT0JIXD9oPf9qM+EDCBAERGE7yIPoCAHAGT5rYyOldokYypJn309969e7MJEyawokWLuvIqIhldYUImEAABEAABEFCWgEkTMWUhB2xY2OKWGwEvDJExnR1ubPTbLWH7wW/7UR8ImEAAIqMJXkQfQECOgElzW61Fxu+//5516dKFLzdxu6wFIqPc4EdpEAABEAABEIiagEkTsahZRtV+0OLW4sWLWX5+Pu9emTJl2GWXXcZ69OjBl0vblyzT723btmXTp0/nf7cvl6aoQ/qYTalIkSJs9erVPOJw/fr17MUXX2TfffcdmzFjBv990aJFbP78+da/nUuhac7auHFjtmrVKsumt99+mw0ZMsSax9pFRmd+Z31++S1oP/hlJ+oBAZMJQGQ02bvoGwi4I2DS3FZrkZEmf0uXLmVLlixBJKO7sYtcIAACIAACIKA9AZMmYto7I8sOBCluOZchC1Fx/PjxJ+3JSGJemzZtWP/+/Vnp0qVT7slIoiWJiCRGksiYm5vL5s6dy+tL9u/27dvzOarzI7hTSLR/LLf/5oxqDCrK0YsfFi5cyJo0aZKlx1EMBEAgFQGIjBgbIAACJs1tlRcZ7V+inUOPvkwXFBS4jmKk8ohkxAUMAiAAAiAAAnoTMGkiprcnsrfei7jltRW7ICjK2kU6ZySjiFJ0ioz2SEaqR0Q8kqg4ePBgNnPmTP6R2xkBmW7ZtRuRsVatWtbhMPa+BxHN6MYPGzZsYCSCFC9enE2bNs2rO5AfBEAgAwGIjBgiIAACJs1tlRcZxXCjL8ydO3f2JCgmG6oQGXEBgwAIgAAIgIDeBEyaiOntieytdyNuZVt7OpGxfv36fNmyWDqdKpLxww8/ZGPGjLFWyzgjGYMWGYM+5VqwTeeHI0eOMPp91KhRPHu7du0gMmY7KFEOBNIQgMiI4QECIGDS3FYbkdGvYQeR0S+SqAcEQAAEQAAEoiFg0kQsGoLRtxqkyJhuuTRFCdpPdKaoxKZNm7IFCxYkLJemvRY3bdrEl0dToghESmK5dJAiIy3BtrcXpLdS+WHSpEk8enH//v1W8xAZg/QE6o4zAYiMcfY++g4CvxAwaW6rjcgo9rs5evRowjj0umQaIiMuYxAAARAAARDQm4BJEzG9PZG99UGKjGSV8+AXOgTm5ptv5nso2n+rW7cuK1u2LOvatWuCyFisWLGEg1r69u3LDh06xMaNG8f3YAxaZHQe/GI/eCZ76ieXdPph2bJlXFxcu3btSZkhMvpJHnWBwAkCEBkxGkAABEya22ohMoqJlljaIjMEITLK0ENZEAABEAABEIiegEkTsehpRmNB0CJjNL3Sr1XhBxJZDxw4wPeZTJUgMurnX1isBwGIjHr4CVaCQJAETJrbaiEy0rKX3r17swkTJrg+RTrVAIDIGOSlgbpBAARAAARAIHgCJk3EgqelZgsQGdXwixA31LDGbCsKCwvN7iB6lzUBiIxZo0NBEDCGgElzWy1ERopk7NKlC6NT9UqVKiU1kCAySuFDYRAAARAAARCInIBJE7HIYUZkAETGiMA7moXIGJ4fIDKGx1q3liAy6uYx2AsC/hMwaW6rhchILkx2UmA2roXImA01lAEBEAABEAABdQiYNBFTh2q4lkBkDJd3qtbsy6W/+eYbNmvWrJSGYbl0dj7D/So7bnEqBZExTt5GX0EgOQGTnhVaiIy0XDonJ4ft3r37JI/g4BdcpiAAAiAAAiAQLwImTcTi5bkTvYXIqIbncfBL8H7A/Sp4xrq3AJFRdw/CfhCQJ2DSs0ILkVHeZSdqQCSjnzRRFwiAAAiAAAiET8CkiVj49NRoESKj2n6YOHEiIx/t37/fMhSRjNn5DPer7LjFqRRExjh5G30FgeQETHpWQGSMcJTLwI/QbDQNAiAAAiAAApESMGkiFinICBuHyBghfFvT6fxw5MgRRuLH6NGjeQmIjNn5DPer7LjFqRRExjh5G30FAYiM6cbAKYUedjCWfcDSnoz5+fkn2YPl0rhMQQAEQAAEQCBeBGTnFPGipWZvITKq4Rc3ftiwYQMXG4sXL86mTZumhuEaWYH7lUbOishUiIwRgUezIKAQAZOeFTLBdKGJjHS6dJs2bVj//v35MBg8eDCbOXMmmzBhAv93r169XA8PLJd2jQoZQQAEQAAEQEBJAiZNxJQEHIJRbsStEMyIfRNe/LBw4ULWpEmT2DPzCgD3K6/E4pcfImP8fI4eg4CTgEnPCi1ERjr4pXfv3lxUPHz4cMJ/t2zZks2ZM4eVKlXK1UiFyOgKEzKBAAiAAAiAgLIETJqIKQs5YMO8iFsBmxLr6uGH4N2P+1XwjHVvASKj7h6E/SAgT8CkZ4UWIiNFMnbp0oWNGDGCe08Ii/b/hsgoP7BRAwiAAAiAAAjoQMCkiZgOvIOwEeJWEFS91wk/eGfmtQTuV16JxS8/RMb4+Rw9BgEnAZOeFVqIjOSASZMmsdq1a7OaNWuykSNH8mhGSm3btmXTp093PUoRyegaFTKCAAiAAAiAgJIETJqIKQk4BKMgboUA2UUT8IMLSJJZcL+SBBiD4hAZY+BkdBEEMhAw6Vmhjcjo16iEyOgXSdQDAiAAAiAAAtEQMGkiFg3B6FuFuBW9D8gC+CF4P+B+FTxj3VuAyKi7B2E/CMgTMOlZAZFRfjxkXYMM/KwbRUEQAAEQAAEQ0JyASRMxzV2RtfkQt7JG52tB+MFXnEkrw/0qeMa6twCRUXcPwn4QkCdg0rNCRucK7XRpctn69etZbm4uO3r0aIIHy5QpwwoKCnDwi/y4Rg0gAAIgAAIgoAUBkyZiWgAPwEiIWwFAzaJK+CELaB6L4H7lEVgMs0NkjKHT0WUQcBAw6VmhhchIB780btyY9ejRg+Xl5UkNSCyXlsKHwiAAAiAAAiAQOQGTJmKRw4zIAIhbEYF3NAs/BO8H3K+CZ6x7CxAZdfcg7AcBeQImPSu0EBn37dvHD3qZMGECK1q0qJQHITJK4UNhEAABEAABEIicgEkTschhRmTA5MmTWceOHdndd9/NXnrppYisQLPNmzfn/OmAxQ4dOgBIAARwvwoAqmFVQmQ0zKHoDghkQcCkZ4UWIiNFMnbp0oWNGDHC9bLoVH6FyJjFiEcREAABEAABEFCIgEkTMYWwhmrKtm3bWKVKlViJEiX4ljjly5cPtX00xtiOHTtYzZo12cGDB9nWrVtZxYoVgSUAArhfBQDVsCohMhrmUHQHBLIgYNKzQguRkXy0ePFiNn/+fDZ9+vQsXHaiCERGKXwoDAIgAAIgAAKREzBpIhY5zAgNEFF0DRs2ZIsWLWJnnXVWhNbEq+kffviB5efns+XLl7NmzZqxefPmxQtAiL3F/SpE2Jo2BZFRU8fBbBDwkYBJzwplRUaxD+OqVavSug4Hv/g4slEVCIAACIAACGhAwKSJmAa4AzPxwIEDPJJu586drGrVqmzo0KGsQYMGrFixYoG1GfeKDx8+zFasWMH69evHNm7cyMqVK8cjSUuWLBl3NIH1H/erwNAaUzFERmNciY6AQNYETHpWKCsyZu2dDAURyRgUWdQLAiAAAiAAAuEQMGkiFg4xdVvZsGED69SpE1uzZo26RhpqWZ06ddjEiRNZ9erVDe2hGt3C/UoNP6hsBURGlb0D20AgHAImPSu0ERk/+eQTdvnllyd4mA6Eoa/dXg6DgcgYzkWCVkAABEAABEAgKAImTcSCYqRbvYMGDeIRdqtXr9bNdO3szc3N5RGjAwYM0M52HQ3G/UpHr4VrM0TGcHmjNRBQkYBJzwotREYSE1u2bMnmzJmTcPBLqr+nGzQQGVW8pGATCIAACIAACLgnYNJEzH2vkRMEQEBHArhf6ei1cG2GyBgub7QGAioSMOlZoY3I2Lt3bzZhwoSEqMVsTp2GyKjiJQWbQAAEQAAEQMA9AZMmYu57jZwgAAI6EsD9SkevhWszRMZweaM1EFCRgEnPCi1ERnEITI8ePVheXp41JujE6TFjxrAlS5a4XjINkVHFSwo2gQAIgAAIgIB7AiZNxNz3GjlBAAR0JID7lY5eC9dmiIzh8kZrIKAiAZOeFVqIjDQIaGl0Tk4O2717tzUmvJ4sTQUhMqp4ScEmEAABEAABEHBPwKSJmPteIycIgICOBHC/0tFr4doMkTFc3mgNBFQkYNKzQhuR0a+BAJHRL5KoBwRAAARAAASiIWDSRCwagmgVBEAgLAI63a8GDx7Mpk2bxsqVK8fefffdkxBdfPHFrEOHDqx///5h4YtFOxAZY+FmdBIE0hLQ6VmRyZVaiIzZHPCSquMQGTMNCfwOAiAAAiAAAmoTMGkipjZpWAcCICBLQIf71Z49e9jdd9/NduzYwb788su0XT7nnHNY9erV2csvv8wuueQSWTwo//8JQGTEMAABENDhWeHWS1qIjNkc8AKR0e0QQD4QAAEQAAEQ0IuASRMxvcjDWhAAAa8EdLhfXXfddaygoMB110qUKMGuuOIKtnbtWtdlkDE1AYiMGB0gAAI6PCvcekkLkZE6s379ekYh/DNnznR9yEsyCIhkdDs0kA8EQAAEQAAE1CRg0kRMTcKwCgRAwC8Cqt+v6P1q/PjxGSMYnTwoorFXr15YOu3DQIHI6ANEVAECmhNQ/VnhBa8WImOyQ19EJ70e/gKR0cvwQF4QAAEQAAEQUI+ASRMx9ejCIhAAAT8JqH6/uuiii9j+/fuz6jLt0UhLrZHkCEBklOOH0iBgAgHVnxVeGGshMnrpUKa8EBkzEcLvIAACIAACIKA2AZMmYmqThnUgAAKyBFS/X9WvXz/pIS9u+l2vXj22cuVKN1mRJw0BiIwYHiAAAqo/K7x4CCKjF1o+55WB77MpqA4EQAAEQAAEtCFg0kRMG+gwFARAICsCqt+vLrvsMrZz586s+kanUH/66adZlUWhEwQgMmI0gAAIqP6s8OIhGZ3rlMLCwkK3jakCDZGMbj2GfCAAAiAAAiCgJgFV5hRq0oFVIAACKhFQ/X517rnnsoMHD2aFrFixYuy7777LqiwKQWTEGAABEDhBQPVnhRdfaSMyLl68mOXn5/O+1a1bly1ZsoRt2bLF82EwEBm9DA/kBQEQAAEQAAH1CJg0EVOPLiwCARDwk4Dq96vWrVuzN954IyuhsUOHDmzSpEl+4oplXYhkjKXb0WkQSCCg+rPCi7u0EBm///571qZNG+v0MnHKNHW0S5cubMSIEaxUqVKu+g2R0RUmZAIBEAABEAABZQmYNBFTFjIMAwEQ8IWA6vcrWu5cq1YtduDAAU/9LVmyJPvwww8ZLbdGkiMAkVGOH0qDgAkEVH9WeGGshchIp0v37t2bTZgwISF6ESKjF1cjLwiAAAiAAAiYQcCkiZgZHkEvQAAEUhHQ4X61fPlyvmLshx9+cOVIWib9yiuvsIYNG7rKj0zpCUBkxAgBARDQ4Vnh1ktaiIwUydi4cWPWo0cPVrp0aWuJNJ1mNn/+fDZ9+nS3/WWIZHSNChlBAARAAARAQEkCJk3ElAQMo0AABHwjoMv96qOPPuLvWuvWrWPnnXceXz79n//8h787nXHGGVyAPP3009k111zDxowZw2rUqOEbo7hXBJEx7iMA/QcBZulUHo49URabFiIj0aNoxpycHLZ7924LZpkyZVhBQYHrpdJUECKjsmMRhoEACIAACICAKwK6vLS76gwygQAIGE1At/vV9u3b2WeffcZ9cscdd7Djx4+z1157jZEImZeXxypUqGC0v6LoHETGKKijTRBQi4Buz4p09LQRGf0aAhAZ/SKJekAABEAABEAgGgImTcSiIYhWQQAEwiKg8/2qUqVKHNPWrVvDwhXLdiAyxtLt6DQIJBDQ+VnhdKXSIqP9ROlUY9BrNCNERlzNIAACIAACIKA3AZMmYnp7AtaDAAhkIqDz/ap27dq8e7SEGik4AhAZg2OLmkFAFwI6Pyu0ExlbtGjBVq9ezWrWrOnL+IDI6AtGVAICIAACIAACkREwaSIWGUQ0DAIgEAoBne9Xv//97zmjN998MxRWcW0EImNcPY9+g8AJAjo/K7QSGclYcejLqlWrWNu2bT0d8pJs0EJkxKUMAiAAAiAAAnoQ2LVrV1JDy5Urx/++c+fOpL+XLVtWjw7CShAAAeMJmPTiaLyzIuogRMaIwKNZEFCIgEnPCqWXSzt9LpZPFylSJOvoRoiMCl1JMAUEQAAEQAAE0hCg000rVqzIvvnmG1ec6ETUbdu2sRIlSrjKj0wgAAIgEDQBk14cg2YV1/ohMsbV8+g3CJwgYNKzQiuRUbhAJroRIiMuZRAAARAAARDQh8C4ceNY165dXRn83HPPsYceeshVXmQCARAAgTAImPTiGAavOLYBkTGOXkefQSCRgEnPCu1FRhz8gssTBEAABEAABMwmcM0112Q8eKBWrVoZ85hNCb0DARBQkYBJL44q8jXBJoiMJngRfQABOQImPSu0Ehntp02PGDGC9erVy7MnEcnoGRkKgAAIgAAIgECkBF5//XXWuHHjtDYsWbKE3XbbbZHaicZBAARAwEnApBdHeDcYAhAZg+GKWkFAJwImPSuUFxntS6O9Ri0mG1QQGXW61GArCIAACIAACPxCoEWLFmzevHlJcTRv3pzNnTsXqEAABEBAOQImvTgqB9cQgyAyGuJIdAMEJAiY9KxQWmQUkYuLFi1ieXl5Ei47URQioy8YUQkIgAAIgAAIhEpg8+bNrGrVqknb3LRpE6tSpUqo9qAxEAABEHBDwKQXRzf9RR7vBCAyemeGEiBgGgGTnhVaiIzpBpDX6EaIjKZdjugPCIAACIBAXAj06dOHDR8+PKG7jz/+OBs2bFhcEKCfIAACmhEw6cVRM/TamAuRURtXwVAQCIyASc8KpUXGIDwIkTEIqqgTBEAABEAABIIn8OOPP7KKFSuyPXv28MYuueQStm3bNnbmmWcG3zhaAAEQAIEsCJj04phF91HEBQGIjC4gIQsIGE7ApGcFRMYIB6sM/AjNRtMgAAIgAAIgEBmBKVOmsAceeIC3/+c//5ndf//9kdmChkEABEAgEwGTXhwz9RW/Z0cAImN23FAKBEwiYNKzQkbnOqWwsLDQrWNVgYZIRrceQz4QAAEQAAEQUI8AnTR9xx13cMNeffVVnCitnotgEQiAwP8IvPvuu6xBgwb8XytWrGD16tUDmxgT2LVrV9LeP/PMM4z+98gjj/D/JUtly5aNMbnwum7XCsJrNbqWJk2axDp06BCdAWjZIqCKXuaHSyAy+kExyzpk4GfZJIqBAAiAAAiAgLYEhg4dyvr165dg/5AhQ1jfvn217RMMBwEQMJMAfQS5++672fHjx3kHTz31VPbyyy9bH0nM7DV6lYnAoEGD2BNPPJEpm/X7wIED2YABA1znR0Y5AnETGYkWfQypW7euHDiUliYAkfEXhIhklBxKEBklAaI4CIAACIBALAgcPHiQL5GeP39+0v7eddddfOl0iRIlYsEDnQQBEFCbwNSpU1Nu5UBbPrRv317tDsC6QAnQ3sLbt2/P2EaFChX4vsNI4REwSehJR00s0ac8l112GSsoKGC//vWvwwONlk4iYNLYk9G5AhcZFy9ezPLz89MOQZwujSsUBEAABEAABMwlQF/Y//jHP7KtW7danWzUqBH/76VLl1p/q1SpEvvTn7B2aJAAACAASURBVP6E5YjmDgX0DAS0IDBq1Cj22GOPJdyb6B/2e9hTTz3FHn30US36AyP9JzBz5kz2hz/8IWPFf/nLX1ibNm0y5kMG/wiYJPS4ERlJyCbB+9Zbb2W0HQ1SdARMGntKi4zpXPz999+zxo0bs08//ZQr76VKlXI1IrAnoytMyAQCIAACIAACkROgPaq6deuWYMfjjz/Ohg0bxv/Wp08fNnz48ITfx44dm3JPq8g7BANAAASMJkD3pxEjRlh9vPbaa/kSaUq0dPqDDz6wfuvdu/dJ9y+j4aBzCQRuueUWtmzZspRUGjZsmPZ34AyGgElCTzpCIpKxe/fu/B712WefsR49erDRo0cHAxa1ZiRg0tjTUmQUEY70EO/Vq1dGh9kzQGT0hAuZQQAEQAAEQCB0Av/973959OKLL75otf1///d/fEl0s2bNEux56aWX+FLq7777zvr7vffey6MazzjjjNBtR4MgAALxJECHJ9B9R6Tf//73fIuHc845h//pyJEjjLZ2ePPNN608dJ+bPHlyPIHFvNfvv/8+q1OnTkoKa9asYb/73e9iTin87psk9LgRGWl/0BtuuIHddNNNPDu2cwh/zIkWTRp7WomM2UYvQmSM7mJByyAAAiAAAiDghcC6deu4wPjRRx9ZxXJzc7nAePnllyet6pNPPuFC4+rVq63fa9SowV/4a9eu7aV55AUBEAABzwTo44eIWKTCrVq1YrNmzUpaT+vWrdns2bOt3yjCkT6WIMWPQKdOnRid7utMHTt2ZBMnTowfEAV6bJLQkw6niGQkkZH+e/z48eyhhx7iRSBwRzMQTRp72oiMMtGLEBmjuVDQKgiAAAiAAAh4IUBCIgmM9tS1a1f27LPPuqrm4YcfZs8991xCXhIaSYBEAgEQAAG/CdChVBSduGLFCqvqBx98kI0bNy5tU/QyTy/1IjVo0IBHPeLwKr89pHZ9X3zxBaNDYCjKVSSKfKXDXi666CK1jTfUOpOEnnQucoqMlJfuXRMmTGC0xzVtR1eyZElDvaxmt0wae8qLjH5EL9qHEZZLq3lRwSoQAAEQAIF4ExCTW0HhtNNO49GL7dq18wTmhRde4KLizz//bJXr0qVLwgu9pwqRGQRAAASSENixYwcXGP/xj39Yv/bv358NGjTIFS+KILLn/c1vfsOFxvLly7sqj0xmEHAeFIRDgaL1q0lCj1eRkfLTB4933nmHH767cOHCaJ0Rs9ZNGntKi4wierFt27Zs+vTpvgwziIy+YEQlIAACIAACIOALgU2bNvHoRVqeI1LNmjW5wEgv3dkkeuknoXH9+vVWcdr7iqIaq1atmk2VKAMCIAACFoEPP/yQH+Syc+dO62/ZHDrlPNyqXLlyfNl1rVq1QDtGBK666iq2YcMGVr16dfbxxx/HqOfqddUkoScbkXH37t0sJyeH7du3j599YT/ISj1vmWWRSWNPC5Ex3fApU6YMTpc26/pCb0AABEAABGJCYM6cOVwMtC8Va9++PRcDTz31VCkKx48f5+Ll1KlTrXpoGRqJly1btpSqG4XdE9g1YhD7duUKdmjNif0y3ZdGzigJFK+Ty86t34CV7T0gSjOUa3v58uU8gtF+2BQFQ1BQRDZpxowZ7J577rGK0iFXFNFIpwvHPR18dwXbP2cm+3bVCvbjns/ijkP7/p95yaXs3LoN2IUt27AS9Roo2R+ThJ5sREYq89ZbbzE6uIoSHcBnvz8p6TRDjDJp7CktMgYxXhDJGARV1AkCIAACIAAC3gjQF3JaFmZPtJ+i2HjcW22pc9PeaLSvoz099thjbOTIkX41gXqSEDiycQPb+nAndqjgRIQqQOlJoHhOHVbp2YnsnGrV9eyAj1bPmzePtWjRwqrxzDPP5JGHeXl5Uq3Q6i2KjPzxxx+teubOncuaN28uVa/OhXePGcE+feJxnbsA29MQuGzgcFamR2/lGJkk9KSDm2xPRnt+EWVNPGh/xmuuuUY5X5lmkEljDyJjhKNTBn6EZqNpEAABEAABEMiawK5du3iE4bJly6w6KleuzCMMb7jhhqzrTVfwr3/9K2/z3//+t5Xt5ptv5hGTZcuWDaTNOFf607cH2Prra7Ifdu1k51Spxso9MYRHr5xWrFicsWjV958PH+bRY58O7MuObt7EzipbjtV8bz07/dz4HgRAp/127tzZ8mOpUqW4wEhbMfiRaMsIEhppmaJIzz//PKMTiOOW7ALjpd17sQubtWLnXHlV3DAY198j//qY7Z83m3029pePfCoKjSYJPTIiI5Xt0KGDtc3M2rVrGUVZIwVHwKSxJ6NznVJYWFjoFrMq0BDJ6NZjyAcCIAACIAAC/hJYtGgRXx795ZdfWhVTpA4JjMUCFqAOHz7M26ZIJJF+/etf87Zpg3Mk/whsatucffXqS+zcGxuyK19exE498yz/KkdNoRI4/uMP7F9357Nv31nOLrijGas648T1E6ohETc2bNgw1rdvX8sK2tuVljRXqVLFV8s2b97Ml2LTXrUiDR06lPXp08fXdlSujJZI/7PxTdzEqjNfZhfcfpfK5sK2LAh89dp8tqnN3bzk1UveVmrptCqaRRZYPRXJFMkoKqtbty5bvXo1u+OOO9grr7ziqQ1k9kbApLGntMhISwfoIUtLqig5/00nT9OJkbQhKX1NdJMgMrqhhDwgAAIgAAIg4C8BOkWVTlO1p+HDh7PevcNdLkVzhscfT1yCN3DgQDZgAPad88Pjx7ZvY3+7uhI7vXgJVnPNenZWOZyU6wfXKOv4YecOtr5OTfbToYPsmn9uZWdXqBilOaG33bNnTzZmzBir3euvv55HMF500UWB2LJ//34uNL733ntW/T169GCjR48OpD3VKt3SoR37YtaL7NJuvVj5wSNUMw/2+ERgx4De7LOnR7KLWt/LKk9+wada5asxSehJR8OtyLhjxw5+EMxXX33FP7QMGTJEHjJqSErApLEHkTHCQS4DP0Kz0TQIgAAIgAAIuCbwzTff8AjCBQsWWGUuueQSHkEoNhZ3XZlPGd98801u0549e6wamzZtym0677zzfGolntXsnTqZbX24Y6yj3kz0/Ka2zdhXr77MKj07iZVu38HELibt03333cdeeOGEAEJRzyQw/upXvwqUwX/+8x++dJqiv0Vq164dmzZtWqDtqlB5wRVl+CEvtQr+iSXSKjgkIBto6fSHOVczOgwm59+7A2rFe7UmCT1+iIxUx+uvv84aN27Mq5s5cyZr3bq1d7AokZGASWNPRucKfLk0IhkzjkVkAAEQAAEQAAFlCaxYsYLvhUhfwkWiiSqJeUFFAbmF8cUXX3ChccmSJVaR8uXL8/2HGjRQ89RLt32LMt/OYQPZrmFPsrJ9nmTl+iRGrkZpF9qWIxA3v/70009c5HvttdcscHTCKp20GmYiYdHe5u23385FztNPPz1MM0Jta1XRU3h7db93vStXqPahMf8IqOhrk4SedJ5yG8ko6qBI6kcffZSdccYZ/CCY3/72t/4NBNTECZg09iAyRjioZeBHaDaaBgEQAAEQAIGMBGh5IS0ztKd+/fqxwYMHZywbZob+/fuftPyHJtO0PBHJO4G4iVHeCelZIk5+pT1jSWCkfchE6tatG3v66acjcV737t3Z2LFjrbZzc3O50Eh7ypqYVBSeTOSsQp9U9LVJQo+fIiPV1b59ex5NfdVVVzE6CKZIkSIqDCNjbDBp7MnoXKFEMmbajL1MmTJcTceejMZcX+gICIAACICAxgR++OEHHiFIS2pEOvfcc3n04p133qlkz2gzc7L522+/texr06YNt/mss3BoiRenxUmM8sJF97xx8euWLVv4foj/+te/LJfRhxH6QBJlon3Q6IOISFdeeSU/eKZy5cpRmhVI2yoKT4F0FJUyFX1tktDjt8hI9dWpU4e9//77rFmzZgkH6WE4yxMwaewpLTLKu+rkGnDwSxBUUScIgAAIgAAIMP7Rj5ZHb9iwwcJRv359LtZVqFBBaUTbt2/nQuPKlSstO6tXr86XT9Om50juCMRFjHJHw5xccfArReaQwLh3717LcePHj+eHTKqQnn/++QRbSpcuzYXG6667TgXzfLNBReHJt86hogQCKvraJKEnCJHxk08+4XMi+ihLh/nRsmskfwiYNPaUFhmdezL64T6IjH5QRB0gAAIgAAIgkEhg0qRJrFOnTgl/jHKJYbb+cS5NpHomTpzIOnbsmG2VsSoXBzEqVg79X2dN9ysdbEBLpI8dO2a5d/bs2axly5ZKuXvOnDmsVatWlk1nn302Xzp92223KWWnjDEqCk8y/UHZ1ARU9LVJQk8QIiPVuXDhQkb7w1KaO3cua968OYa5DwRMGnsQGX0YENlWIQM/2zZRDgRAAARAAAT8JkDiIomMItHJqxS92LZtW7+bCqW+GTNm8KhGOuFVJBIZSWxESk/AdDEqrv432a+0tcMf/vAHy7VFixblEYK33HKLku5+6623eMTl999/b9n3l7/8hdEWDyYkFYUnE7iq2AcVfW2S0JPO514PfnHWNWLECPb4448z+tBBq1hon0YkOQImjT0ZnSuUPRk3bdrEevXqJecxW2lEMvqGEhWBAAiAAAjEnAAti6bl0TTBFOmaa67hAqPuE86PP/6YC41/+9vfrL7REiFaPk3LqJGSEzBZjIqzz03163PPPccefvhhy7W01ztFBtJ9TOW0bt06LjTu3r3bMvPZZ59lXbt2VdlsV7apKDy5MhyZPBNQ0dcmCT1BioxU9z333MPooyydNE3zQDp5Gil7AiaNPeVFRhz8kv1ARUkQAAEQAAEQCIoARc6QwEgHvYhE/548eXJQTUZSb4cOHbiwKBIdBEP/tkc+RWKYoo2aKkYpijs0s0z0q4jkERBr1KjBBcaKFSuGxlWmoW3btvEl3h999JFVjQl7pKkoPAnAQlQR/6bTdekU8po1a8q4MrZlVfS1SUJP0CLj8ePH+Z6w9DG2devWCQf+xXZQS3TcpLGnvMiISEaJkYqiIAACIAACIBAAgZ49e7IxY8Yk1DxhwgTWuXPnAFqLvkpaJu3sW48ePdjo0aOjN04xC0wUoxRDHIk5pvmVohcpilEkOqCKlkiXLFkyEr7ZNnrgwAEe0Wg/sIqiGSmqUdekovBES9MbN27MypYty6ZPn64rWuXsVtHXJgk9bkTGevXqsbp162Y9Nr766is2ZcoUvr3M4MGDWb9+/bKuK+4FTRp7EBkjHM0y8CM0G02DAAiAAAjElMCOHTt49OKKFSssAtWqVeORfb/73e+MpvL+++/zvm/cuNHqZ4MGDXjfy5cvb3TfvXTONDHKS99NzmuSXykKmfZhFOnOO+/kAqPOiYTGV155xeoC7c9I0eY6JhWFJzqMlMaIygLj+vXrGS2j1+mQMhV9bZLQ40Zk9PseUVhY6HeVsanPpLEno3NhT0bJIS8DX7JpFAcBEAABEAABTwQWLFjA9yj85ptvrHJ0yintv0hLxuKQjh49yoXGWbNmWd0977zzOIOmTZvGAUHGPpokRmXsbIwymOBXOjmaxLg33njD8hzd0+zbIejsUro30b1IpFtvvZULY3Qwg5c0cuRI1rt375OKULTTkiVLGB2ME2RSUXiiZdI0dvLy8lJ2XUQ7rlq1iuehgzHoXIF9+/ZxnocOHeKn8lKys8xUjg4goqWodJAaiZx2/4jl2lRnbm4uo2eUvW0SR8XWY7TfKO2bV6pUqSDd56luFX1tktCTzhnvvvsuo//5lQYOHMirgsiYPVGTxp6MzhW4yJi9i1KXxMEvQVBFnSAAAiAAAiYToH2+Bg0alNDFp556ij366KMmdztl30aNGsUee+yxhN8HDBjAxCQ7llD+12kTxKg4+y9V33X36+eff873L1y7dq3VRbqGSbAxKZGYZe8T7ZdG+0xefPHFnrtJ4hdFRPbv3z/UPQdVE56ECEhbZAiR0S70LVq0iP/dKUSKf9eqVYvRoWG05QaJjs76MpWj5aypIijtEZb03/ZtxiiykZavUtQuCcPOf3seEAEUUM3X1EWThJ4AXJaySnCTp20SQ+VFRufXNHEjz9aNEBmzJYdyIAACIAACcSOwf/9+HrlHz16RaE8qipZp2LBh3HAk9Hf58uWczc6dO62/U8QIRUVdeOGFsWWjuxgVW8dl6LjOft2wYQMXGLds2WL1UkSZmehv57tT5cqVudBYvXp1T92FyHgCV6pIRqeQaD/tm0rTOKMIxJYtW7I5c+ZYUYTko6pVqzIhQLotR3U6/SsiHJ0iY7KIVNWiGSEyeroklc5skkAWFWiTGCotMtIXl/bt27OlS5fymzKFmztv0l4HAURGr8SQHwRAAARAII4Eli1bxpdH219+mjRpwgXGCy64II5ITuozbXhOjMQSOMpAL3HE6Oabb44lI53FqFg6zGWndfUrnfxLy1zpWhWJPgTQdWtyonsQfQQRie7ZtHSaltS6TRAZT5AiwY6iBJ0RhXaRMdU7arL3V7vI6KUcCYl06JpYtp4uklFEtFL0pKoJIqOqnvFul0kCmffe+1PCJIZKi4zJNtl96KGH2L333pt12D5ERn8uAtQCAiAAAiBgLgFaCu18MaEl008++aS5nZboGXFxLpWmFzznkmqJJrQpqqsYpQ3giAzV0a+vvfYaFxh//vlnixpF9NHf4pDoIBh7X0877TQuNN5+++2uug+R8QQmEgppybNz6bI9wpH+m5JTiEwnMopl1l7K2cVOe5vO92YK1qG9gmk/5Zo1a7ryediZIDKGTTy49kwSyIKjlL5mkxgqLzLa95Ygt7jZeDed+yAyRnXZoF0QAAEQAAHVCdBLJUW/0LIukc4//3wemef2xVT1PgZlHwkaFB319ddfW01QhApFTQV9UEJQfcqmXh3FqGz6Gbcyuvl12rRpfDWUSCVLluRLhm+88cZYue6dd97hS8UPHDhg9Xvq1Knsvvvuy8gBImMiIucBLeJXsZWX83dxKEvp0qVTLpcmkdFLOWfevn378gNlxo0bx1f8kRBKqw/EdgD2g1/IXrG0OqPzQ8oAkTEk0CE0Y5JAFgKupE2YxBAiY1SjiDaWnbqdt17YvkKEVqBpEAABEAABEGBszZo1XCTbvHmzheOmm27iAmO5cuWAyAUB2p+RGL799ttW7ipVqnCGderUcVGD/ll0E6P0Jx5OD3TyKy0n7dmzpwWmQoUKPIKvRo0a4cBSrJWPPvqIRzRu3/7Lewel0aNHMzrIJF2CyKiYIw00ByKjOU41SSCLyismMZTRuQI/Xdr59SWZw71uYItIxqguG7QLAiAAAiCgKoEJEyawBx98MME8ekmnU5SRvBOgU7fpJd6exo8fz7p06eK9Ms1K6CRGaYY2UnN18StFdg0bNsxiVbt2bR7BSAdWxTlRdBsJjevWrbMw9OnThw0dOjQlFoiMcR4x4fQdImM4nMNoxSSBLAxeydowiaHSImMQDobIGARV1AkCIAACIKArAYq8mzJlimX+2WefzSPvWrdurWuXlLB71qxZPKrx2LFjlj33338/Z2ty0kWMMtkHQfRNB7926tSJTZo0yer+LbfcwgXGYsWKBYFEuzoPHz7Ml06/9dZblu0dO3ZkEydOTNoXiIzauVg7gyEyaueylAabJJBF5RWTGEJkjGoUYbl0hOTRNAiAAAiAAC2ho/0X7ZEt1113HRfBqlWrBkA+ENi4cSMXGteuXWvVRpFVtE+jqUs3dRCjfHBt7KpQ3a8tWrRg8+bNs/xC+6HOnj07dn5y0+FWrVol7LvbvHlzNnfuXDdFQ8mjovAUSsdj2IiKvjZJ6AlzSIGbPG2TGEJklB8PWdcgAz/rRlEQBEAABEAg9gRefPFFLjD+97//tVhQFNDzzz8fezZBAOjcuXNCtNAZZ5zBhcZ77703iOYirVN1MSpSOBo3rqpf6dALis5bvny5RZeuN9oCAik1Adq6wX6/b9iwIY/6LF68eOTYVBSeIodiqAEq+tokoSfMYQNu8rRNYiijcwW+J6O8q06uAculg6CKOkEABEAABHQh0K1bN/bMM88kmDt58mQuOoadUi3Hoz2Z6aCG6dOns/Xr17PBgwezmTNnejqlOdtyQTEgUbFDhw4J1T/yyCNs7NixQTUZSb1hilH201RFZ8VJr5F03kOjqo3PTKaH6ddMtojf6aAl2meQWIrUr18/fr/wO4lTfWlvR7oviURjsHfv3pao2bhxY/7TkiVLEu5XYqzWq1ePl3fe+0aOHMnrsaegx3L//v3ZkCFDrCZr1qzJ77tRH/SlovAkICU7L0Cc5Oz3mHNbH40dSr169XJbRJl8KvraJKEnTEeDmzxtkxhCZJQfD1nXIAM/60ZREARAAARAIJYEtm7dyoXEd9991+r/VVddxSPqrr322kiYxElkJMAffPAB98HHH39s8SbRgXxQqVKlSHzgd6NhilEk3NCy2Dlz5rBSpUpxsalp06ZswYIFjAQTlRNERjnv/P3vf+cC46effmpVRKdKd+/eXa7iFKXFvYramzZtmjW+nCJjmzZtuE32PFQliVMkgNI2CalERrtQJERJisoMUjyijxx2ZpdddhkXGn/7298GwtFNpSoKT8Ju+wcwN30JI49dZKT/3rRpU4IQHoYN2bahoq9NEnqy9Us25cAtG2qJZUxiKKNzBR7JSDfKpUuX8v2hbrrpJkYnozkTTpeWH9CoAQRAAARAwGwCtAyOxK2DBw9aHW3bti0Xt84888zIOh83kZFA//jjj9wXM2bMsLiXKFGC+4KWfeqeohQZid0999zDqlatGqgw44ePIDJmT/Htt9/m14r9fvbCCy8Euv0A3atoiTHtW0v7F4pIxWQi45VXXskPmxHioLjP0d8/++wzVyIj0aEx0r59e/4uRCJ6UIm2z2jXrl3C/YieGfTuFUVSUXgSHFQXGaPwl0ybKvraJKFHxjdey4KbV2In5zeJodIio7yrUjuPfiksLAyiCdd1ysB33QgyggAIgAAIxJoARc8MHTo0gUGQET9eYLsVGXv06MEFhX/+85+8evvyNPsywyJFirDVq1fzKCN6QXeWI2HVvtTRi61+53366ae5ffbUt2/fhOWLfrcZRn0qiIwU4ZaXl8fHQG5uLjt69Chzjo3nnnuO7dq1i61atYpjsY8NEirtIjD9Lpau2pdLOj9028vVrVuXC1GUaAmtaEeMXbvIKPKIpbh2u+3jnf6ezu4g/RumX9P1g8SvZs2aWVlof1OKvMvPzw+y+wnLm8kHQshOJjKSMEj3WHuELS3hJrvpZGc3kYzUGbFEm+4TNJ6DTDS+6bqx79P70ksvRfLhQ0XhSbBPJzI6l1KLe4YYI3TaeevWrfm9hu4DtDz+0ksvtZ7P9DdKYtm8uCc5I7YpD91rxH3OGclIv5PATX+n+ukDFh3wJp6NQY4jr3Wr6GuThB6v/pDJD24y9H4paxJDGZ0r8EhGeVedXAP2ZAyCKuoEARAAARBQjcDevXt5xNzrr79umVahQgX+wnHjjTcqYa5bkdG+BDbdi7dzL0cSmCjqiF7Q6UWtUaNGbOrUqcospX3nnXe4j7Zv327547bbbuM+Kl26tBI+8mpEmGJUuuXSxM++lNqel66NVGOD+mvfA5Re1ElQEqKl/Te7UEgHjSRbpmgXA+ziANlHdY0aNYpHjI0fPz6pkOTW7qCXh4fp11RjjvaO7dixo/XzhRdeyA8rueGGG7wOU8/57fcq8p24l9B/2/dkpOXStNchCZF2EYjGECWx12yyPRmFOGQ3zjl+PBvuocB7773Hbd6/f79VatKkSSftJeuhyqyyqig8iY44hUTx8YJ+t0ed2rduoDGSk5PDxH6clNe5HD7Zv+1jzH4vs99H6L6UTmQcNGiQkuKi4Kmir00SerK6ALMsBG5ZgrMVM4khREb58ZB1DTLws24UBUEABEAABIwn8MYbb3Dx6vPPP7f6escdd/DtR0qWLKlM/92KjM6DX5wvVfYDE0T0R7LlqA899BBfUhm0IOMF8IEDB9gDDzzAXn31VavYxRdfzIXGW2+91UtVSuQNU4xyHvxij1ZMdkCDXRBwjikxNgiiU2QU4k+ywzkomnHFihWsZ8+eXFyyj61kB9NQXRSxRMLifffdx7Zt22YJ4cKBzkhGETFJ4mgqu4Me02H6NdlAHj58OOvTp4/1U5UqVbjAWK1atVDGfTJRkERlEZEmTrMWIiP5igRF+jsts6Z8H374oSeRMcxIRgFx48aNPHpx8+bNFtdhw4axxx9/PBTO1IiKwpPofKpIxmSHrwiBuFatWgkfPKgu5wcS5/hyitrZiozi3hWa8zw2pKKvTRJ6PLpDKju4SeHjhU1iKKNzhRbJmO4ENq9LnxDJKH8BoAYQAAEQAAF1CThfxslSimYgAUS1lEpktG9en0wsFC90FB1EyxLF/miZTqVWUWQUPiHxaMCAAQkuCvvlPtP4WLhwIWvSpEnabGGKUcmWEWYSA+j3TAJ0smXPRYsWTYgYskNINY7T2Sf226MDQujgDbG01hlx64xk1FFkpGXpxYsXZ7T3aDbpscce4xGfItWpU4cLjEHuU+i0M5kIRMvgW7RowdauXWudLi1ERhFJS0udly1bxsaNG8cPf/ESyRjWnozOvtKYI6FxzZo11k+PPvooe+qpp7Jxn1XG7ThQUXjKdF+ByJjd0AjT127Hn0lCT3Zeya4UuGXHzV7KJIZaiIz2/U4OHz6csETB+WUnk3shMmYihN9BAARAAAR0JHDo0CEevUj7aIlEywkpejHo/bxkeIlD3uwHKdDSMrF8VER12Zc9i98pksi+RJXEIUq051kmIUnG5qDKkghBUY325Yq0jxtFNZJIE3WiyDsaZ08++SSrXr16UnNUERlFFGGyZcjpxkblypWtyDOniJXu9OpUp7rax6QdmN2GlStXWmL5li1bEpZd0ph48MEHbsHRpwAAIABJREFUWUFBAdM1kpFe7inS8oknnmAk9HtJ999/P9/iQCQS9kioC/vAqmRCsrg31a5d29p/U4iM1F8R+Wrfz9OtyCjqpg8PQZ4uncoXdEAVLZ0W+4pSPloOPGXKFC/uS8jrdhyEKTx57UyqSEanIOxcLu18X/UayWjf6sN5b0u3XJr6F8X4ccs1TF+7HX8mCT1u/eBHPnCTp2gSQ21ERnFzdi41EEsQ3H7NhMgofwGgBhAAARAAAbUI0IbuJE598sknlmG0yTwJjLTxu+rJedCGeCknu5MddiEOzxDLCcWhGnRwColgFDWko8hI/aXTZ8mXdECESJdffjn3Je0jGGUikZFO8aVEy4NJbDznnHMSTFJFZBRjRxz8Qv8Wh7GQkJcuItC5LNq+asa5DDvVgTGpDn5JtWTbLrbTEluxBQBFjpLATGNeZ5GxXLlyfJzQ0lEaN7T3aLp0/PhxLnItWLDAyuZ19ZKf10q6qGs6/VmIcXaR0Sk8ZYpktG/7QLbb74N+9sVLXc57M+2PS0Lpqaee6qUanpdEHjfjIEzhyWsnsj34RUZktAvWZC9tn0AHHd188838A6IpIiPt/0kHbtEWEseOHWMVK1ZkNI8ZMmQIO/3007266qT8bsefSUKPNDQPFYCbB1gpsprEUAuRkfwgHnLO0wGdk8RM7oXImIkQfgcBEAABENCJAB0w8PDDDyeYTJEL4qRKnfoCW08QIMFBvDyKvz777LOsa9eukWGyi4xkBEXKUnRap06dLJvCFBmDAEHzTXFyMNWfSlwKom2V65Txq/3lXvSxefPmfOzQ3orO9PXXX/Pluu+++6710yOPPMLGjh2rMiJjbevWrRt75plnrP7RASa0XP3888/31Ge340BlkdFTh5E5IwHh66cb5HNRPVmiA+tIsJeN5nc7/kwSejI6wMcM4CYP0ySG2oiM8m77pQaIjH6RRD0gAAIgAAJREvjpp5/48mgRWUa20L5xFPFG+4Qh6U+AlohTVCMJXSK1a9eOL5/2I7LDKyGnyCjKX3fddTw6jSJrZMQor/YEkd95mm+6fRWDaF/VOmX8muzlXvSTDhQhsVEsf6ZobBIYP/74YwvFwIEDT9qvVFVOptpF+/qSn0S66qqruNBIUdZuk9txAJHRLVH98wlf1zvC2AUXXMCefvppduONN7Kzzz6b0SFE/fr1Y7RSgbZZoA+qMsnt+DNJ6JHh5bUsuHkldnJ+kxhCZJQfD1nXIAM/60ZREARAAARAQHsC9FWfxKd//OMfVl+uv/56LjBeccUV2vcPHThB4N///jf39XvvvWf98Te/+Q33ddAnCjv9kEpkFPlat27Nelx0Hvtu0nOsbJ8nWbk+J0QJXXzqPNnZvoJGlz4EYWdQIiPZeskll3ABi/b5pCXSe/bssbpAWx/QnpRI0ROg/U3te2qS32jp9LXXXuvKuHQij30cVHrkAV5f3e8LXdWLTPoSsIuMtFy6Q4cOCZ35+9//zp9zFDX/xRdfSHXU7fij5y2lwkKMPy/ATRLIvPTbz7wmMZTRuUI7XZqc59wDRziU9qWgzbCxJ6OfQxx1gQAIgAAIqEqADkGgSbB9Akwv4fQyjmQuAXq5p5d81dO9ZzB276+YtiKj6nyjsk+IjC/+h7EX/xuMFaeddhr7+eefrcpnzZrFWrVqFUxjqDUrArNnz2b0MUEkein2W4y5+jTG6D7yyDGIPFk5SaNCdpFx3bp1fM9WZ6IVGkeOHEn4886dO1nZsmX532ifTxIQ7cn+OwmUX375pWcqfo9rzwZoVsAkgSwq9CYx1EJktO+HQ04X+zDSxtiUvJyaheXSUV02aBcEQAAEQMAPAhAZ/aCoXx26iYzl+jzJymoYyajfyAjHYoiM4XBWvRWIjKp7SC/7IDLq5a901pokkEXlFZMYaiEy0n44tAE6iYqHDx9O+G/naV2ZBgVExkyE8DsIgAAIgIDqBLBcWnUP+WefTsul6WTd7heW1Hq5tH+eM6umXcMGsp3DSDj2vgze7TJFLJdWe8xgubTa/tHROiyX1tFryW02SSCLyismMdRCZKRIxi5dulgnZQphkQYARMaoLgO0CwIgAAIgECUBEw5+odOT6SOiPdEJk3l5eb6itW+50rZtWzZ9+nRf6w+qMp0PftEpkpHGBx2WtHr16oR9Lml80knTNB7FGEo2PikfHYwhylNe2quOxhl9KM/JyWG7d++2hkndunXZkiVL+EFNuqSgREYc/JJ8BNjvjSNGjPC0aiuIMWXywS/JrtGgnkPivpDJR3QA1YwZM5iO94pMfbP/nurgl7POOott2rQJB794gRlxXpMEsqhQmsRQC5GRHE2bwdauXZtP/uwPXq8vC4hkjOqyQbsgAAIgAAJBEKATFx9++OGEqmkbEXoxVT3R85yS2PZEvOx17tzZt5dq+lBJLISY2bhxY9ajRw/fhUy/WZO9go+o+9lnn2Vdu3b1uynX9TkPfqG9ruhU6Y4dO1p1yBwQ4toQnzOSKEinmNaoUSNBgHaKjMnyiC19Pv30UzZt2jQ+T3WKjM4P4lTv888/72lPcZ+77Lk6v0XG5s2b88NeqlSpcpItX3/9NT9h+t1337V+e+SRR9jYsWM9261KARKNSLBOt8WTyEPvNjQ+aHsouic2atSI0TYZYR/0JNh169aNPfPMMxbKevXq8ZOlzz//fE94k0W0JhsHYZ8u7TxBnlYKNG3alC1YsMBX5vb7Qjpw1L7YGkynDxGeBsP/MgtfP90gn5GwmyxVqFCBEZPixYtn04RVxu34M0nokQLmsTC4eQSWJLtJDLURGeXd9ksNEBn9Iol6QAAEQAAEVCFAEVR0GMwnn3ximXTLLbfwE4gvvfRSVcw8yQ6nyEgZ6GWiffv2bOnSpWkPdaN8tFG8XeBK1lH7agg6JM4uHKkI5rPPPuO+fOuttyzzLr/8cu7L3NzcSE22i4yPPvooF4nOOeecBJt0FRk/+OADfoK3XYB2iowk9NCLLonW4sBBEg7o75T69+/vSmSkvG5Ep0id7WjcL5GRAgZo3Nx2221pu3f8+HF+0jQJPSJ5DSzwk5/b+40fbdq3iSKRifZjvffee30VvNzaKSLqRH4S3yga79RTT3VbhZXPLvKkGwdRi4xBXZ9uRUZnPvo3Jb8j/D07MIACdl9TQBFFb27bto0dO3aMVaxYkdE8ZsiQIez000+Xbt3t+DNJ6JGG5qECcPMAK0VWkxhqITI6vzDJuBAioww9lAUBEAABEFCVwKFDh9gf//hH9tJLL1kmUqQZiVOqvpwkExlJFLRHG9pXLxQpUoQvSaVEgtvRo0f5f4vlhPYX4jJlypwUKeYUHFXzJb1MksC4f/9+y7RmzZqxP/3pT9JRHH70lURGGmcUvUj75yVLuoqMJJxQlKhd4HaKjJSHotEoiYg0GnP0IkzXnReRkXw9ZswYbZZNy4qMFIVH4iIJZl7S/fffb4m4VI7uDeSHM88800s1UnlJYEx2v7Fvw2C/39C4oY87dN3ShxC6Z1HEOYmm9qX3wij7/UvkEb85BUepjngo/OOPP3J7aVm/SHRtTJkyxUMtiVlJ5HEzDlQRGYUv7P4XzyDqB/2d/Er9WrVqFe+sXQh3LsOm3ygl20ZBlHNuIULR0ySyiUTRfnQCs30LBnubdH3dfPPN7MEHH+RFCgoKuHAnIvm92J+1oz0UDNPXbsefSUKPB1dIZwU3aYRWMJwJJ5trITL6+VIAkVH+AkANIAACIAAC6hIYPnw469OnT4KBtJ8WCSCqpWQiI9lIwo3zZZv+bo/woP+mPZtSLT9MVrfKESG0PG7AgAEJLho2bBijPetUSQsXLmRNmjRJa47OIiO9/NO4oXEl/tu+J6MQIsVSRnEYIYlEnTp18iQy6rYkUlZkpAjQEiVKZDWUH3vsMTZq1CirbJ06dfhyXRFNmlWlHgs57zdO/9n/TQdV2vfotN/T6tevb+0z77Q/2X3Pvl2UR5Ozzk7iGC1XX7NmjVUHRS4/9dRTWddJBUnkcTMOwhSeyK50y6VLly6dsP+/Pe/evXu5+Ex755J47Fza7oxWpn9Tcu4JLLZcSPaRgvKni753lqU2aJsBEheTXR/2Z6gQT1PZL+Vsl4XD9LXb8QexzKXzHNnALTtu9lImMdRCZCT4fk3GIDLKXwCoAQRAAARAQG0Cb7zxBo9q/Pzzzy1D77jjDh7VWLJkSWWM9xrJSIaLqI1kIqNzaZ/9wAR6GZs5c2bG5dVhwzlw4ACPXnz11Vetpi+++GIeBXXrrbeGbY50e7qLjHah4O233044+IVERhKQ6BRtEgRIZCBBkg4nFH9zsycjQY5TJKP0oGKMOT+e0F6OJDRWq1bNj+oz1uG83yQ7tEpEM1LkGCX7BxC7gCjKOg90cYqMNBZXrlzJWrVqldE+vzJs3LiRC4ybN2+2qgz7Y0eYwhN10hlxaI/2s0erCiD2iHrn3oliabtTnBTXfKoDoZxt2g+IcYqM6exNJlQ7x6p4hiZ7tw57aX7YvnZznZgk9Ljpr195wE2epEkMtRAZk536JdyYbDlUOhdDZJS/AFADCIAACICA+gRIACGh8fXXX7eMpQ3USby68cYblehApj0ZP/zww4QlpekiGe0RaNS5ZIfK0Hzit7/9rRJ9JyPeeecd7qPt27dbNtFedeQjeknNNjlZiBdcWkKXKsIl27ac5XQXGQUrWsp8/fXXs2uvvdZa4ipe/MXY2rNnD98rr3Llyp5FxjjtyejX2Jo8eXLCRwLaDoJ8Qn4KOiUTGanNZJHUye5r6cSfVMult27dyrtVqVKloLvH6//rX//KBUb7dg0USdmhQ4dQ2heNhC08pduWK90+iulEunQiI32osG8J4iWS0bmdSLJIRvsqAOfHDGckYyqRNKxDhsL2tZuBbJLQ46a/fuUBN3mSJjHUQmSUd9mJGiAy+kkTdYEACIAACKhOgPZ0Gjp0aIKZJKB07949ctOdL+Ni+RYtG6aXd6dYZl9u5nz5s4s24kWMTmW1n1xdrFgxpsppnU8//TQ/ZMSe+vbtm7D/VrYOcr54Ol9Ms63XTTkTREbqp4iKpT3QxD56ziikyy67zNqzzkskY6YljW44h51HZrm0n7ZS9CLtUyrSGWecwYXG/Px8P5s5qS7n/SbdCcRuRUZqhOp58cUX2bhx407aJoLEr7DuWTTOSZz673//a/Wd9hkl0THsFLbwlE5kFIEu48ePP2lv40yRgKmWS5OobD8x3DmWnGPNPp6cS7KdZZ1idrpnaCb7w/B72L520yeThB43/fUrD7jJkzSJoRYiY6qbfzabIUNklL8AUAMIgAAIgIBeBOjFnCLmDh48aBlOS6YoYi7MAxSc1JItORSiDuUV4pjYVJ9EODp4hF7I7asc6KWN+iM2w6elZ926deMv6EJkpLboxGo6yCBKoZEOVCBfiCWV1E/aq4584ecLvTPqM6xDRkwRGZ3iQiZRO53IaD+kgfxdt27dyMeh1zuYSn6lZex0rdjvZy+88AKPKg0qOe83dF9xLqW1H95BdiRbLk17MlIUm7in2ZfJOgWiVHv4+d1HEjnbtWtnVUv3I3pm3HTTTX435aq+sIWnTAeMOg/+Edfvli1bWLpIQOdKPPvzyz52qL6yZcvyg6ec2y0IIVocPETPR0pCVHeWdY6hdM9QiIzJh6NJQo+rC86nTOAmD9IkhlqLjNkcCAORUf4CQA0gAAIgAAL6EaCldyRu0abwIl111VVc3KIloUjBE/jggw+4Dz7++GOrsXr16nEf+L0kUkQzPvLII+yZZ56xDiUJupcqiVFB9zVO9asSySiY//3vf+eRd59++qnlBooOpo8LSO4JOCOqKTqXIkOj3FYibJHRPS3k9JuAir42Sejx21/p6gM3edomMdRaZMwmKgEio/wFgBpAAARAAAT0JUAv4SQ62RPtdUbiF1JwBEhIdO5tRgLg2LFjA2tURMuICKvAGrJVDJExDMrht6GiX3fu3MmFRorIEom2h6DoMqTMBOjwoiFDhlgZKYqOBMZy5cplLhxgDhWFpwC7G+uqVfS1SUJPmIML3ORpm8RQeZEx2alewoVeD32hchAZ5S8A1AACIAACIKA3AVoeR6Kiff+tTp06seeff17vjilqfefOndnEiRMt62gfORIdg1zeSY0592YMA4+KYlQY/Ta9DdUiGQVv2j6Blk4vX77ccgFdb3S4BlJqAnQiuv1+37BhQ75Eunjx4pFjU1F4ihyKoQao6GuThJ4whw24ydM2iaHyIqNwF31to0lDqVKlpDwIkVEKHwqDAAiAAAgYQuCjjz7iQuO6deusHl133XXsz3/+M6tWrZohvYy2Gxs3bmQPPPAAW7t2rWVI7dq1ucBYo0aNwI2DyBg44tg0oLp43KJFCzZv3jzLHy1btmSzZ8+OjX+8dLRVq1Zszpw5VpHmzZuzuXPneqki0LwqCk+BdjjGlavoa5OEnjCHFrjJ0zaJoTYio7zbfqkBIqNfJFEPCIAACICACQRIBJsyZYrVlbPPPpsLja1btzahe5H1YdasWVxgPHbsmGXD/fffz9mGlSAyhkXa/HZUjWS0k6do7EmTJll/uuWWW3h0Hh0AhcTY4cOHedTnW2+9ZeHo2LFjQpS1CpxUFJ5U4GKiDSr62iShJ8wxA27ytE1iqIXI6Jwk20+j9LrPEERG+QsANYAACIAACJhFgJYWPvjggwmd6tmzJxs1apRZHQ2pN48++igbPXp0Qmvjx49ntEQxzASRMUzaZrelg8hIHqATfIcNG2Y5gyKHaZ9B2mIpzmnXrl1cYLRHrvfp04cNHTpUOSx+C0/03jho0CC2evVqfnqzPdFpzHQYWkFBgfRqOVEvtUfJfrp40JDt78bUljgBe+XKldZJ1HYb6HpYsWIFow9f4qRz+l1sRUb/nZOTw1cR2vtB+5/Sdivjxo3zpUt++9oPo0wSevzg4bYOcHNLKnU+kxhqITLu27eP9e7dm++vQl/hGjVqxKZOncpKly7NaDkEhfy7XUYNkVH+AkANIAACIAAC5hFYs2YNj7zbvHmz1bmbbrqJR95FfRCALrTpIApi+Pbbb1smV6lShTOsU6eOLt2QslP1ZbVSnYtxYV1ERnLRmDFjGH0kEalChQpcaAxjiwIVhwhtjUEH5Gzfvt0yjz6C9OjRQ0Vzmd/CEwlwtHSelonbBTN6v6T3yIMHD7KlS5e6fpfMBC0qkZHsEv0j8ZTS9OnTLXPpbzQO8vLy+N/SfYRKxQYiYybvx/d3kwSyqLxoEkNtREYhJn744Yd8okA3Tbo5UlTAiBEjXD8YIDJGddmgXRAAARAAAdUJ0HOV9mm079d1/vnnc5Hs9ttvV938SO177bXXuMD49ddfW3bQ3IX2XyxatGiktoXZuBAZy/V5kpXt80SYTaOtAAnoJDIShmnTprH27dtbREqWLMmXTt94440BUlKv6nfeeYdHMB44cMAyjgI17rvvPvWM/Z9FQYiMe/bsYd999x0PWBH3YxID6e8bNmzwFLCSCVwQIiM9m+l9l4Jukj1PnG2SGEjj3y6eehUZqa1LL72UffbZZ5ZYCZExk/fj+7tJAllUXjSJoRYiIzmabowzZsxgRYoUscLd6UY3ePBgNnPmTNcTeIiMUV02aBcEQAAEQEAXAk899dRJS72eeOIJ9uSTT+rShVDtJC4DBw5MaJNe+h577LFQ7VChMUQyquAF/23QTWQkAiT8U+TWzz//bAGhQIU777zTf0AK1kh9JYFRpNNOO40Haqj+wSgIkZEYbNq0yYrkE1F8JMRR5KtYFUfvlrm5uezo0aMnvXPSMuFLLrmEC30k+FHU4OLFi63lyOIdlSLZ6bAvOvGc6qG0aNEiK4JQvNPS38XyZFqRR88MWrE3duzYhHL169dnjRs3tpY1i6XQdrExmcjofEf2KjLSRzL6wEgfzyjqlSIgITIqeKErYpJJAllUSE1iqI3I6JezITL6RRL1gAAIgAAImExg2bJl/OVi9+7dVjebNGnCXzouuOACk7vuum9fffUVZ7Rw4UKrDL00EqObb77ZdT0mZUQko0nePNEXHUVGsp724SOhka5VkSi6mK5bkxPdgygqXSS6Z5PASAKa6ikokbFq1arWajghltG+lGK1HHGxb8MllgyTALl3717ObsCAAdYHuGTRglQHCX7PP/+8tc8jCZEkZC5ZsuSkoBi7OJiuHImPYuswN5GMbpdL28VLsl2cdeDsu4iKJA7Yk1H1Kyga+0wSyKIheOKA4sLCwqhM8K1diIy+ofRekQx8762hBAiAAAiAAAh4I7B//37+okpRGCLR/oz0kt6wYUNvlRmWm6JUSKigAxVEys/P52wuvPBCw3rrvjuIZHTPSqecuoqMxJiWw1JE35YtWyzkIhJNJx+4tdV5CEjlypX5UvHq1au7rSLSfEGJjCSgCRGRVseR6FirVi3rb7QlF93D7UlEJ9LfnJGBqZZFO/9uP1uABEJ7JCPVK8ZiunJuREYSIUVKdjBqNpGMIsKTyhIv2qcZImOkl4eyjUNklHeNSQxldK5TCj3IrNlAo5st7SVBX+PopmaPphButIeZu3EtIhndUEIeEAABEAABEDhBgJZK0+mc9kRLqukU5TgmOnXbuRSaIlycS6bjyAaRjGZ6XXfx+PPPP+dCIy1jFYmWu5LAY1KiPtG9WaTrrruOC4wXX3yxNt0MSmQkNiSW3XLLLeytt96yfJ9s338nrGRbdGUjMtKekLRsWxzI4oxkpHbF4S3Og0+9RDImc7aMyEi20MGrHTt2ZBs3bsTp0tpcTeEZmo3WE551erRkEkOlRcYghgNExiCook4QAAEQAAHTCSxYsIBH7n3zzTdWV1u3bs0j9yjaIw6J9tciBnRSqUjnnXce/xjatGnTOCDI2EfdxaiMHYxpBhP8euzYMb50+o033rC8SNcz3cNMSBR1TvcikW699Va+PPjss8/WqntBioxiz0UaByT02ZcFE6ScnBw2fvx4a/9EAS6ZyJhuuXQqsZAOLKWIQBISaV9IWq5M4h39O1Mko30pt9Ohbg6bkREZqT2x/2SyKMlsB5jfvs7WDns5k4QeP3i4rQPc3JJKnc8khlqIjM4wc7tr6Dd6IHTu3PmkTeqTuRAio/wFgBpAAARAAATiSWDHjh18+fSKFSssANWqVeMv6b/73e+MhvL+++/zvlMUh0gNGjTgfS9fvrzRfffSOUQyeqGlT14TREZB+w9/+AM/NFIkOgiGxDidE4lmr7zyitWFNm3asL/85S9adslv4ckuwAlhTxxkYhcZ6fAV+8EvBE8cskJL7ZMdNprq4Bcqmyoikd5baXUefZzr1q0bK1asWEaR0b7M2s3BL8kcn0xkdO7JKFYIUvlkomayvR5lBpnfvpaxRZQ1Sejxg4fbOsDNLanU+UxiqI3IKG7I5Baxd4UQGOmLk5gciPDzVO6DyCh/AaAGEAABEACBeBPo2bMn38jenmij+06dOhkJhvpGESj2RC+po0ePNrK/Mp0ySYyS4WBaWZ33ZEzmi4cffpg999xz1k90gi+9S5QsWVIr1x04cIBHZ65cudKyu2vXruzZZ5/Vqh92Y1UUnrSFqbjhKvraJKEnTPeDmzxtkxhqJTKSmEiTAPrqQpP70qVLW1+VaEPcdGHkwu0QGeUvANQAAiAAAiAAAhQlQ5F9P/zwgwWD/j158mSj4HTo0CFhOeVZZ53F/03RUEgnE0Ako5mjwkTx+Mknn0zYR7VGjRp8/8KKFStq4cRt27bxfSY/+ugjy17aP5f6pXNSUXjSmafKtqvoa5OEnjB9D27ytE1iqI3IaN/slkLTadNcOgxGhK6TW2lpQP/+/VnNmjVTehkio/wFgBpAAARAAARAgAjQqa0kLBYUFFhArrnmGr4v2FVXXaU1pI8//pjvv/i3v/3N6getqiCBUZdTWqNwgIliVBQcVWvTtEhGwZeiGSmqUSRaLkoRjbVr11bNBQn20H2JBEb7oZgUvUhRjLonFYUn3Zmqar+KvjZJ6AnT7+AmT9skhlqIjLR/Bi1TomXStF8G7a1BIiM9SCEyyg9o1AACIAACIAACMgRomfSkSZOsKn71q19xoZE2iNcxzZgxgwuM//nPfyzz6VTNiRMn6tidUG2GyBgq7tAaM9mvtD+jPTKZ9r8joZFOIVYx0cnItESa3o9EoshyCrYwIakoPJnAVcU+qOhrk4SeMH0ObvK0TWKohchILiNhkaIZKdFXxscff5wvmW7YsCFr3759wtJpmhykSohklL8AUAMIgAAIgAAIOAmQyOjck5E2tX/66ae1gtW9e3c2duzYBJtJXCSRESkzAZPFqMy9NzeHqZGMwmOvv/46jwykE6hFolPkaSsmldKcOXNYq1atLJPo5Gha4n3bbbepZKaULSoKT1IdQuGUBFT0tUlCT5hDD9zkaZvEUBuRMZXbxClh69atY6tXr067VJrqgMgofwGgBhAAARAAARBIRoCWTdPyaVpGLRLtpUxRjRUqVFAa2vbt23n0ov0ABVoWTcujaZk0kjsCEBndcdItVxz8unbtWh4huHfvXss9EyZMYJ07d1bCXWTLgw8+aNlCe9NTxOV1112nhH1+GaGi8ORX31BPIgEVfW2S0BPmeAM3edomMdReZPTqToiMXokhPwiAAAiAAAi4J0AHwZBYR0sQRTr33HO50HjnnXe6ryjEnK+88gq3+dtvv7VapaWHZDMd9ILknkAcxCj3NMzJaXoko/DUli1buND4r3/9y3Iebc3Ur1+/SJ05ZMgQvu+8SFdeeSUXGCtXrhypXUE0rqLwFEQ/USdjKvraJKEnzDEGbvK0TWIIkVF+PGRdgwz8rBtFQRAAARAAARAIgcCYMWNYz549E1qiF3V6YVcp0Ys7vcDb0+jRo/mWLEjeCUBk9M5MhxJxERnJF19++SVfOk0rpERBrpNTAAAgAElEQVSKcusH5xYOubm5fIn0r3/9ax2GjmcbVRSePHcCBVwRUNHXJgk9rpzgUyZwkwdpEkMZneuUwsLCQrc4ZaHRidL5+fm8ubp167IlS5Yw+tooDn5Jtw+j3UZEMrr1GPKBAAiAAAiAgByBFStW8OXTO3bssCpq3LgxjxC86KKL5CqXLP3FF1/w6EWaT4hUvnx5vjy6QYMGkrXHtzhERjN9HyeRkTz4008/caHxtddesxx67733shdeeCFUB1Ob06dPt9q8/fbbucB4+umnh2pHmI2pKDyF2f84taWir2U1izj5L5nG4kEeiiuqlP02aexpITLSvou0bEksE7CfKG0/ddrNSIXI6IYS8oAACIAACICAPwS++eYbLuYtWLDAqvCSSy7hQuPvf/97fxrxWMubb77JbdqzZ49VsmnTptym8847z2NtyG4nsHfqZLb14Y7sgjvuZlVnvAQ4hhDY1LY5++rVl1ilZyex0u07GNKrzN247777EoRFCnggke9Xv/pV5sISOehkexI5Fy1aZNXSrl07Nm3aNIla9ShacEUZ9uOez1itgn+yc668Sg+jYaVnAkf+9TH7MOdqduYll7Kcf+/2XD6oAiYJPUExSlYvuMnTNomhFiLjvn37+MnStOGxPXqRXAmRUX5AowYQAAEQAAEQCJrAoEGD2BNPPJHQzPDhw/nzPcw0YsQI9vjjjyc0OXDgQDZgwIAwzTC2rWPbt7G/XV2JnV68BKu5Zj07q1x5Y/sal479sHMHW1+nJvvp0EF2zT+3srMrVIxL13k/adsH2v5BpOuvv57vh3jhhRcGwoGirElgfO+996z6afsG2sYhDmlLh3bsi1kvsku792LlB42IQ5dj2ccd/Xuzz8aOZBe1vpdVnhxuhHA64CYJPWEOLHCTp20SQy1ERnGCND1g6SQ1EclIJ0DSQ96+jCCTexHJmIkQfgcBEAABEACBYAhQVA5FENKeZyI1b96cRxAWK1YsmEb/V+vhw4d52/PmzbPaoT3NqG2xHUugBsSochH1du6NDdmVLy9ip56Jw3N0df/xH39g/7o7n337znJ2wR3NWNUZJ64fXfuUjd3Dhg1jffv2tYpWrVqVv4NUqVIlm+pSltm8eTM/eGbTpk1WnqFDh7I+ffr42o7KlR18dwX7Z+ObuIlVZ77MLrj9LpXNhW1ZEPjqtflsU5u7ecmrl7zNStRTZ4sSk4SeLFyTdRFwyxqdVdAkhlqIjESeohlzcnLY7t0nwqnLlCnDCgoKWKlSpVx7FSKja1TICAIgAAIgAAK+E9i1axffp3HZsmVW3VdccQXfC/GGG27wvT2q8K9//SsXGGk1hEg333wzb7Ns2bKBtBnnSn/69gBbf31N9sOunaxIlarssieGsnPrNmCnBSwkx5m5333/+fBh9u2qFWznwH7syOaN7Kyy5VjN99az088t6XdT2tQ3ceJE1rlzZ8teev+gpdN16tTxpQ9r1qzhEYz0ziPS888/zzp16uRL/TpVsnvMCPbpE79EnF/arRe7sHkrLJ3WyYEpbKUl0vtfms0+e3okz3HZwOGsTI9wVzNkwmiS0JOpr37+Dm7yNE1iqI3IKO+2X2qAyOgXSdQDAiAAAiAAAtkT6NWrF3vqqacSKnjuuefYQw89lH2lSUqOGzeOde3aNeGXxx57jI0c+ctLDlIwBI5s3MC2PtyJHSpYE0wDqDU0AsVz6rBKz05k51SrHlqbqjZEkdAtWrSwzDvzzDO50JiXlydlMh1wSQLjjz/+aNUzd+5cRpHecU12oTGuDEzut4oCo10rwAEm3kafSQKZt577l9skhtqLjLNnz2b169d3Hc0IkdG/CwE1gQAIgAAIgIAMgTlz5vAIwyNHjljVtG/fnkcYnnrqqTJVs+PHj/OIyalTp1r1nHPOOXx5dMuWLaXqRmH3BHaNGMS+XbmCHVqz2n0h5FSCQPE6uezc+g1Y2d7Yr9TukOXLl/Mlzd999531Z9q6qW3btln5bcaMGeyee+6xyv7f//0fX4rdsGHDrOozqRAtnd4/ZyaPqqXDYJD0JkCHvFBU+4Ut2yi1RNpO1SShJ8zRAm7ytE1iqLzISJEGYlP4/8femYDdNd37f+G6hkgTtCVuSEzVpIJWaLSamGpoIkQRQxBTo5IQXMQQSgxRRQxRs9CYQwxxQ0xJqpVWtDU0ak5D0esiQQzXJf/nu/zX6T77PdM+a+999t7ns54nT/Kes8bP2ufNPp/9W2sFl0c/9dRTpn///ubrX/96pCXTSEb/DwA1QAACEIAABOIioL3HJAO1VNClzTff3MrA7373u0018+c//9nKS90ruKQljZKX2kuNBAEIQMCHwLx582zk4YIFC0rVXHTRRWbMmDGRqp04caI55phjSmV69uxpIyP79u0bqR4y54/AXXfdZfbff3/z6aefduj8iiuuaG666Sazxx575G9gOe9xkURPmlMBN3/aRWKYacmoLweKaJgxY4aNVNRSAkUkLFq0yDz55JNmzpw5Rl9EoiQkYxRa5IUABCAAAQikQ2DUqFFm0qRJpcaWW245KxoPPvjgSB24/vrrrWD84osvSuVGjhxpLrvsskj1kBkCEIBALQKvvvqqjWjUQw2XdEq9TqtvJCmvDrN0SQ9VFMG43nqcyN4Iv7zn0QMvHfSjJfGHHHKI2WCDDczLL79srrvuOntAmQ4VCh4AlPfx5qX/RRI9aTKHmz/tIjHMtGSUVAyeHu1Omd5ll12M9nJqJiEZm6FGGQhAAAIQgEDyBCQVFdUYTNpP8eKLL26o8aOPPtpoX8dgUvSipCMJAhCAQNwEFPgg0fjII4+UqtYDE+0FWytp79ngg4/tt9/efufp2rVr3F2kvgwSeOCBB4y+z2655ZbmD3/4Q4cefv/73zd//OMfbaDNzjvvnMERFLdLRRI9ac4S3PxpF4lh5iWjnuA4oSjJqGiECRMmNLwHY3i6kYz+HwBqgAAEIAABCCRFQCsVJBr/8pe/lJrQ9igSkN/61rcqNvviiy9akagVDi5tttlmdnn0FltskVRXqRcCEICAJbD33nvbZc4u7bfffna5a6WkJbLaU94lLbu+/fbbIdlGBCSYJZpHjBhhrrjiig4jP+KII8yVV15pZbWkNSk9AkUSPelR+9fhuhyY0zz1Il17SMbmrwPvkj7wvRunAghAAAIQgEBGCXz++edWNE6ePLnUQx2GINGoL/PBpC/nEozBQxgqDWvAgAFm+vTpZpVVVsnoqOkWBCCQZwISRnqw4ZIi0BSdqAOnlHTAlaIeFcXmkn7PSSaR2ovAr371K3P88ccbRd9rX85w0j6dev388883//mf/9lecFo82iKJnjRRws2fdpEY+niuZZZGUNXNQNNy6cGDB9ecseBhMI1MLZGMjVAiDwQgAAEIQKD1BMKHIqhHJ510kjnnnHNs504++WRz7rnnlnXUHb6g1Q/Dhg0z48aNi7x/c+tHTg8gAIE8EtDvJ624cknLXl2EoyIWg0tjdbBl+PdXHsdMn6MTuPvuu82QIUPMwIED7cOvcBo0aJC5//77zbRp08zuu+8evQFKNE2gGWfRdGMFKgg3/8ksEsNMS0b/qepYA5IxCarUCQEIQAACEEiGwKxZs2xU40svvVRqQHtZKWm/Kpc23HBDG0W0zTbb2JeQjMnMB7VCAAK1CSj67IQTTij73aQfgr/DfvnLX9pINlJ7Enj77bftAT+ffPKJjVbUdmArrbSS/VkHoOna0M86XGjNNddsT0gtGnWRRE+aCOHmT7tIDJGM/tdD0zX4wG+6UQpCAAIQgAAEckZAhytoSbSWHlZKWoKopdTBQxOQjDmbZLoLgQIRuPbaa81hhx1WcUTXXHONOfTQQws0WobSDIELL7zQHHfccaWia6+9tnn99ddLP19wwQXm2GOPbaZqyngQKJLo8cAQuSjcIiPrUKBIDH08V+LLpf2nqmMNRDImQZU6IQABCEAAAskTOPvss82pp55a1tBZZ51lTjnllA6NIxmTnw9agAAEqhO46667jJZIf/nllzbTsssua5dO77HHHmCDgCWg5dBnnnmmefbZZ80XX3xhlltuOdOnTx9z2mmn2eXUpPQJBF1B+q3nv8UIu+nlf7AxjwDJ+BVQJKPnheVjeD2bpjgEIAABCEAglwS0T9Vuu+1m+37PPffYPa0qJSRjLqeXTkOgUAS03YMirZUUie22cyjUIBmMN4EzzjjD/OIXv7B/Tj/9dO/6qKB5AkjG5tmpJJKxeX5IRiRj81dPoCSSMRaMVAIBCEAAAm1GoJEbMSRjm10UDBcCGSXwzDPP2J5tsskmGe0h3Wo1ASRjq2eA9iHQegKN3Nu2vpeN9cDHc6UayRg8aXrAgAH2JK4XXnjBjB8/3kyZMsWsssoqDY2Y5dINYSITBCAAAQhAILMEGrkRQzJmdvroGAQgAAEIBAggGbkcIACBRu5t80IpF5Ix+EVBYJ1Y1L91GteECRNMt27dGmKOZGwIE5kgAAEIQAACmSXQyI0YkjGz00fHIAABCEAgQGDx4sVGB5zp8LIuXbrABgIQaEMCjdzb5gVLLiTjW2+9ZcaOHWsmTZpUFr2IZMzLZUY/IQABCEAAAvERKNKNWHxUqAkCEIAABCAAAQhAII8EinRvmwvJqGiEQYMGmeOOO86stdZapUjGxx57zG6ifMMNNzR8HRHJ2DAqMkIAAhCAAAQySaBIN2KZBEynIAABCEAAAhCAAARSI1Cke9tcSEbNrKIZ+/XrZxYuXFia6HXWWcfMnTu34aXSKohkTO1zQkMQgAAEIACBRAgU6UYsEUBUCgEIQAACuSEwceJEoz9jxoyxf0gQgED7ESjSvW1uJGNclxmSMS6S1AMBCEAAAhBoDYEi3Yi1hiCtQgACEIBAVghw8EtWZoJ+QKB1BIp0b4tkbN11ZHzgt7DbNA0BCEAAAhBoKYEi3Yi1FCSNQwACEIBAywkgGVs+BXQAAi0nUKR7Wx/PtczSpUuXNjobWYFGJGOjM0Y+CEAAAhCAQDYJZOWeIpt06BUEIAABCOSJAJIxT7NFXyGQDIEi3dtmVjK6w15mz55dcxaj7suIZEzmQ0GtEIAABCAAgbQIFOlGLC1mtAMBCEAAAtkkgGTM5rzQKwikSaBI97aZlYxJTSiSMSmy1AsBCEAAAhBIh0CRbsTSIUYrEIAABCCQVQKLFy82ixYtMl27djVdunTJajfpFwQgkCCBIt3bIhkTvFDqVe0Dv17dvA8BCEAAAhAoKoEi3YgVdY4YFwQgAAEIQAACEIBAYwSKdG/r47kS35PxvPPOMzNmzDBXX3212WGHHczChQs7zBDLpRu7aMkFAQhAAAIQKAqBIt2IFWVOGAcEIAABCEDAl8Bbb71l+vXrV/rev/LKK5s5c+aYzTff3FYdfl+vTZgwwZx44olG260NGzbMjBs3zuavtP3avffea3bdddeK3XT5e/ToYW644YZSHrU5duxYM2nSJPvaoEGD7N/Tp083q6yySlk+9X2bbbax5Su1f+CBB5bVXakjciCXX365mTt3runWrVspy+jRo83w4cPt2BrJE2X8Lu8uu+xiWZLSJ1Cke9tMS8Ykppbl0klQpU4IQAACEIBAegSKdCOWHjVaggAEIACBLBKYOHGi0Z8xY8bYP+2annrqKdO/f39z6623lkSgXhsyZIiZNm2alWsSfvvuu6+55ZZbrIBzcuy4444z2267bZlkPOigg0zv3r0blmZOUr722mvmuuuuKxObQckokRnOozm77777zKmnnmo222yzkmQMSk/laaRPEog333yz2W+//cr6HpaM9fI00pa71sR5/Pjxdrm+ZGpQnsZ9PUbpV9xtZ7m+It3bZloy6oM6f/78hn8xNHLRIBkboUQeCEAAAhCAQHYJFOlGLLuU6RkEIAABCKRBgINfvqJcTT5JuskJKDowLBlVTu8rjRw5siQZN9poIxtxKPlYLXIxPLeSjKpjq622sqLTRSqGIxklDjfeeGPTuXPnkqdwglKvv/7661Ulo/zG1KlTa0YzajySfVdccYW59tprS7IzLBlr5Yk6frUpITtz5sxStGQa1z5t/ItAke5tcyUZK/1SiXphIhmjEiM/BCAAAQhAIFsEinQjli2y9AYCEIAABNImgGQ0HZY6B+fARdlNmTLFfPjhh2WRjPIDWuIrGSexFowcrLakuNr8BpdbX3LJJaUoyEqS8dBDDzUXXHBBKaLS9XHvvfc2Dz74YEXJGIy6rCU+nTSV9FMbTnaGJaPGUS9PpWXX4fEHHcu8efM6BHlJjA4ePNgWc8vXncScPXu2fX3UqFHmgw8+sFGQL7zwgo2K1HwpIjK8jF0yec8997TyV2PacccdbXklLRF/8803bUTrxx9/XGpPUaxiPHnyZNO9e3e7fN0tk0/785pUe0W6t0UyJnWVNFCvD/wGqicLBCAAAQhAoJAEinQjVsgJYlAQgAAEINAwASTjV3stOlno9l90AIMSTK9V27MxLLOU1y3B1r+DeztWmpxg+bXWWqvUH/07vFxa+z5KRDpZ5iIBVa+LVIyyJ2KwP04yam/EYHRnJclYK0+j4w9GV4aDusRPQlXnZAT3hwxGl6odd5aGhGgUyajxzZo1q7T/ZLj94M9OPp522mmxrnRt+IOacMYi3dv6eK7ED34JL5cmkjHhK5vqIQABCEAAAjkgUKQbsRzgposQgAAEIJAgASRjc5GMmpKgmKwkGYOiUnLysssuq3nwSzgSUsu0FTFXSTJKekkoKnpPy6yVT5GAQcno6ouyfDkoGYOS75xzzik7+EVjk2Sslid4yboDcyqNX6LvxhtvLLvC3QE5wb64DNVkrotejCoZnahV/cGoSdeei57Uz8EIyQQ/ki2pukj3tkjGllxCXzXqA7+F3aZpCEAAAhCAQEsJFOlGrKUgaRwCEIAABFpOYPHixWbRokWma9eudi++dk3N7MkYjMKrJRnFtJIwC7Kudjr1PvvsY5544onS6dJOHCrCUYfQaN9H7WV46aWXWklWSTK65b6NSLJwP13U4Ne+9rWKktGNTUI0mCd8HVUaf3ApuDvsJTiGVkjGantWBpfNJ3kwTas+f0W6t/XxXKlEMrr1/9Ume5111ulwvHutC4M9GVv1saFdCEAAAhCAQDwEinQjFg8RaoEABCAAAQjkm0Dcp0uHBWK9g2BqLbfeYost7N6ISuFoR0U5usi/etKzkZOVw2LPLbt+8sknS0u+G8nTyPiriUd3greiNZtZLh0sEz4hPLgnY/Df6m+tiEskY34+35mWjElgRDImQZU6IQABCEAAAvET+Pvf/16x0p49e9rXFyxYUPH9Hj16xN8ZaoQABCAAAQhAIFECTjItXLjQtuOWyrp9GittnyaxpwNSbrvtNjNixAij/RLDB5OornoHhVSLhAzuNxiWjOE9C+tJxmp7HAahVhJ/YVFXL08j468V+RmUoY0c/LLbbrvZIbjDXoJLsAcMGGB0X3bUUUfZk7JrSUbV4WSzDn5RUvlKez0meiG2oPIiPUBHMrbgAnJN+sBvYbdpGgIQgAAEIJAKAS0f22CDDcy7777bUHurr766efnll+2SMxIEIAABCEAgDwQmTpxo9GfMmDH2D+krAo0IOVhlg0DRowzToIxk/Ipy4sulk5hMIhmToEqdEIAABCAAgWQIaI8jPf1uJOmkR52+SIIABCAAAQjkhQAHv1SfKRdF55Yj52VO262fSEb/GUcyIhn9ryIOfomFIZVAAAIQgEDxCWy55ZZGexHVSn379q2bp/ikGCEEIAABCOSNAJIxvRkLL8V1LYeXZSfZI7fH4uzZszs0U29Jd5L98qm7FZKx0knUGkPUMzt8xh1nWSQjkjGW64nl0rFgpBIIQAACECg4gfvvv99ow/ZaSfv1DBw4sOAkGB4EIAABCBSNAJKxaDPKeCAQnQCSsQWSsdpTh6immuXS0S94SkAAAhCAAARaTWCfffaxm7pXSkOHDjW33nprq7tI+xCAAAQgAIHIBJCMkZFRAAKFI4BkTFkyupDi4447zuy6665eFxSS0QsfhSEAAQhAAAItIfD888+b3r17V2x7/vz5plevXi3pF41CAAIQgAAEfAgsXrzY6KAzHVrWpUsXn6pyV7ba93ydQPzJJ5+YF1980Vx77bX2VGIll3+XXXax9wSDBw82lfZr1OnLZ555ppkzZ44tG/45CEptzZo1y8ydO9d07tzZrpwILmUOBzWFT8BWXe4E5FVWWaXmHFRa4hteIl1pOfWBBx5obrjhhg4MTjzxxFJ7lU6cjvOCSLr+Sn2tdJp4nGPKUl1IxpQloy6usWPHmkmTJpl6H9x6FwqSsR4h3ocABCAAAQhkk8DJJ59szj333LLOnXTSSeacc87JZofpFQQgAAEIQAACNQmE9/MLnio9b948M3Xq1JJgk6S74IILjLZIeeyxx8ypp55qNttss9L7TkQOGzbMvPbaa+a6664rScabb77Z7LfffiYo5pzEkuSdMWOGlYwqO27cuJLYVJtaTeGEZSXxJQF3+eWXW1HZrVu3quNVXcHxqC4JUydSnWDs0aNH2ZiCFTpeEtJBP5K0BEy6fiTjMhbB0qVLc/8bw2dbwNROl9aHbeTIkUaWv9aHtpHZQDI2Qok8EIAABCAAgewR+Oyzz8wGG2xg3njjDdu57t27m5dfftmssMIK2essPYIABCAAAQhAoCECiibcc8897apF/VtRipKB8gBO+m200UY2ytCtbpSwk5yTbAt6Ave6GnayUIJM9w4ffPBBBzGn15999llzyy23VJSMqkfltWpC0YTVouuC/a426LBkVL7g2IPtVKtDecRn5syZZvjw4SUZ2qwElLTU4XpHHHFEzblqtv6GLoAqmYhk9KHXurK5kIzCU+kD2Qw2JGMz1CgDAQhAAAIQyAaBa665xhx++OG2M1dffbU57LDDstExegEBCEAAAhBoggB7MhrjovPGjBljJk6caKZMmVJaweg8gCRkOKpRP7utVFyEoqTdTjvtZG6//fYyyaipkSh0MtMJzEMPPdRGR9aSjMHoStWz77772vzBAKhglGW11ZeVIhmDdQWFY6VLKSjdFOWp8bhxSwI+8cQT5qGHHjIff/yxCZ+Yrfe1OlTJvad/9+/f3+ZXcku3g8u6Xd6HH364rH7ld0vVVbciQRVhqrG7n8ePH2/2339/M23aNCtDxXHIkCGln90YNW4ltyTc/az+OD7hpexuGbsbU7is+7mJj2RLirBc+ivsqUUyVtr3wM08B7+05DNAoxCAAAQgAIGWENCXBu1NpHTjjTeavffeuyX9oFEIQAACEIBAFAJ///vfK2a/+OKLzUUXXWSOOeYYc/TRR1fMo+WzRU8SS/p/PbzHoltCrGg7t2RZLJywO+qoo4xklsTkhx9+aEWa5NTPf/7zDpJRQtKJSgmvyZMnG23FEhRZ4eXSaiso9/RzJckYXvZdab7CezIGRWAj51AEJWU4yi8s+oJiNLwaNFiP/h2UldXKhZeEh6Wqi3QUY7ekXcLRcTn//PPNXnvtVbbHZpCRE6zqS6Wo0bBUrVc2b58XJONXM5aaZIzzAiGSMU6a1AUBCEAAAhBIh8B7771nl0jpC0EwaamQbmZXW221dDpCKxCAAAQgAIEmCegwktNPP73h0opyPO200xrOn+eMtSRdpVWN7jXtS+jE4JtvvmkFlbZaC8pCJ8D0kNIJQglNCbG+ffvWlYxJRTKGxWK9SEYnYoPzHIwm1OsusjG41NwdfuOi/pTPHSYTlozVlkWHX690bkbwEJ1wlGe1Q3rcWBwL/ewiIsNyt1+/fjZ7eO/LSmXz9llAMn41Y0hGzyvXZ626Z9MUhwAEIAABCOSGwE033WT+8z//07z99tsV+7zmmmuaX/3qV3ZJDgkCEIAABCCQZQLaW/iVV16p28X111/f7jvcLqlZyahlsU6AaX9FPXzU/o2VJKMEnFtO/eCDD9qIR6V6kYxJ7skYrLvWnoyVpF5QvoYlYFAySr4GowtrRTI2KxmrRZyKr1uqHT5JO3htu9WrQYlYaU/GavmqCci8fH6QjC2QjJWOe1c3WC6dl48N/YQABCAAAQhEI/DPf/7TykUtgQomtw+j9mcMJn2hkGxcY401ojVEbghAAAIQgEBKBPR/2gEHHFC3td/85jdWlLVL8pGMTjytu+66NgpOqZpkVDvah1B7M4YPcql0urQEmSJQa50uXS2CLzx34YhMJ+Z0wrQEqBvHkUceWXYKthN1+rvS6djaH1KRmcETrtXWqFGjbNSf3nNLkFVHcA/EcJ9qLZcOth+Wnu7gmx122MFon0vt0ahoRresWn2UzHUH9wSFajCiU204Iarl75WWpivP6NGjS0LZHQgULFttX8ysfp6QjF/NTGqRjEELr4bdngsKjQ5/0OpdNCyXrkeI9yEAAQhAAAKtJ6Abf92Ivvvuu6XO9OzZ09547rHHHva1u+66y+ZZsGBBKc/qq69u87gb6NaPhB5AAAIQgAAEygnoYBKdDlwt/fjHP675fhF5+khG8ah2KrVbKuy8QXiJcjBaLny4iMqEg5oqnRcxYMCA0hLfWnNTKXDKLVt25SrVr/2otarDnZYdbMONW69Jyml/z/DBL27Ms2fPtkVPOeUUs3jxYnPppZeWxObChQvrHvziGOrvoGTU8nQld9iKE4t6XQ+L3fJmlZFQ1angOkhG4lNOR5LQiVbV4wRk8OAX7cmoJdcuiVutshz80rrfEj4rdlOTjMEL2G3mqguqltmuhhTJ2LqLjZYhAAEIQAAC9Qj84x//sOLwtttuK8uqDdwlD1daaaWy1z/55BOb/9e//nXZ60OHDrX5/+M//qNek7wPAQhAAAIQSJXA73//e/PDH/6wapu/+93vzA9+8INU+0RjEIBA6wgQyfgV+9Qko8y7LHh4z9X4u5sAACAASURBVAR1olr4LJKxdR8QWoYABCAAAQg0Q0BPtiUM9XTdpQ033NAugQ4+va5UtzY+19Pyl156qfR2ly5drGjUsh0SBCAAAQhAIEsE9PDsiiuu6NClI444osODsyz1m75AAALxE0AypiwZ1Zx+AW+xxRYmfDJSOLy43nQTyViPEO9DAAIQgAAE0iXw97//3crFO++8s6xh7bcjSbj88ss31KHPP//c1qPlP8H005/+1NbTo0ePhuohEwQgAAEIQCBpAjrMTIfALFmypNRUp06d7GEvOtCMlE8ClU6A1kiieot8jp5eN0sAydgCydjsZIXLIRnjIkk9EIAABCAAAX8CeogoMaj9g1zq1auXlYLan6eZpM3GVefzzz9fKr7yyivbOhUhQoIABCAAAQhkgcD5559vTjjhhFJXfvnLX5rjjz8+C12jDxCAQIoEkIxIxlguN58NMWPpAJVAAAIQgAAEWkRAkRpa3nzPPfeU9eDYY4+1y6ODDwWb6eLSpUtt/RdeeGFZ8d12283Wr+gREgQgAAEIQKDVBDbZZBPz7LPPmj59+phnnnmm1d2hfQhAIEECWr1TKelwQ6XgYYbBfHlajePjuVLbk1Fw3VHzwUgHvR4+7ane9UAkYz1CvA8BCEAAAhBIlsBll11mIw3/93//t9SQvlwp0lAnasaZHnroIduWvsC59O///u+2rVGjRsXZFHX9fwKLZj1i/nnLFPP+7EfMZ2+8DpecE1ih+9pm1QHbmzX2HWa6brN9zkdD9yHgR0ACwP0JCoGgOHCSoJosqCUSgr1z0iHc4+Dr7t9BAaHX3Ovhv/1GT2kIQMCXwKJFi+yD7nfffbehqlZffXW7hULXrl0byp+FTLmQjOFj5n3AIRl96FEWAhCAAAQg0DyBv/3tb1b4/dd//VdZJVoqdt555zVfcQMlTzzxRKNlaMH0k5/8xMrGb3/72w3UQJZGCCy8YIJ57fSTGslKnhwSWPeMc806x43NYc/pMgTqE5g1a1ZJIEoaVpKJ9WvJbo6wfJSY3GabbWyHg+9ldwT0DALFIKC9w4866qiGBnPJJZcY7VGep5QLyfjWW2+ZsWPHmkmTJplVVlnFiy+S0QsfhSEAAQhAAAJNEZg4caIVjF9++WWp/Pe+9z27dHnbbbdtqs6ohfQFUn3405/+VCq67LLLWtE4ZsyYqNWRP0QgKBjXPvZEs8be+5lOG28Cp5wTWPLcM+aft91sXr/oqwcBiMacTyjdN5MnT7YUZs+ebfT/glKtqMMgMifjwhGElaILq0Uiqr7we3/5y1/MZpttVjY71foUfL1S1KQTpMFxNTo+Jx0HDBhgBSTykQ8MBJIhsOWWW5onn3yyZuV9+/atmyeZ3vnVmgvJqEjGkSNHmgkTJphu3bp5jRjJ6IWPwhCAAAQgAIFIBJ577jkr9mbOnFlW7uSTTzZnn312pLriynzKKaeYc845p6y6HXfc0crGjTfeOK5m2qoeLZF+etAOdsy9p9xhvrH7nm01/nYY7Dt3TzXzh+1lh7rp9IdZOt0Ok16AMUooSrBJvLlIxWrDclJN70uyKQUj/fKOIxyZqZ8lWust73ai0YlHxyTvPOg/BFpJ4P777zeDBg2q2YXp06ebgQMHtrKbTbWdC8mokd13331m6tSp5oYbbmhqoK4QktELH4UhAAEIQAACDRMIn5qpgnpyK5m39dZbN1xPEhkff/xxKz//+Mc/llXPyZ7N0X5hxMHm7Zsmm7WPOdGsN35Cc5VQKvMEXj1trHn9wvPMmvsPNxtdeX3m+0sH25OAxKKLUqwUwTd8+HALxkkz/btW1GG7UAxKSAlZJyDDDCUZiXRsl6uCcSZJYJ999jG33XZbxSaGDh1qbr311iSbT6zuXEhGLZfu16+fWbhwYQcQHPyS2LVBxRCAAAQgAIGmCPz5z3+2Jzs/+uijZeVPP/1084tf/KKpOpMqpP6cccYZZdVvt912dhn3d7/73aSaLVy9c7+9jj3kpe/cp1kiXbjZ/deAtHR6Xr9NjQ6D6fe3jvflBR46Q8sBAclF/T4PSrGwUEQmRp9IJx8riUfx1P/tjnP02ikBgfYl8Pzzz5vevXtXBDB//nzTq1evXMLJhWSMkyyRjHHSpC4IQAACEIBAOYFzzz3XaCl0MP3gBz+w0Yt6YJjFNHfuXCtFf/e735V1T0uqTzqJQ0wambPZqyxjsw34aGkj2cmTYwLMdY4nr6Bdl/ySXHT7K0p4BSPtCjrslg7LMXcCUtGN119/PRGhLZ0VGs8jAd0z6945mHTvGd7WJ09jQzK2cLZ84Lew2zQNAQhAAAIQ6EBAm1dr+fFvf/vbsvfGjx9vTj311FwQO+uss8y4cePK+vqjH/3ICtItttgiF2NoVScRT60in367zHX6zGmxNoF1113XRi8iutK/UiQbtZ2ZokgV1fjYY48hGtOfBlrMMYHPPvvMbLDBBuaNN96wo+jevbt5+eWXzQorrJDbUfl4rmWWLl3a8ONqF0EYoUgJKsulc3t90XEIQAACEGgDAmeeeaZdLhVMiiLRkmOdjJenNG/ePBvVqL2ogklRMqeddlqehpJqXxFPqeJuaWPMdUvx03iIwJgxY8zFF19sI+WfeOIJ+LSIwFZbbWW0KkB7Mev/UBIEINA4gWuuucYcfvjhtsDVV19tDjvssMYLZzBnLiRjNW4HHXSQ2XPPPc2uu+7aMFqWSzeMiowQgAAEIACBmgT0hU7Ri+Evdlr2MXbs2FzTmzBhQoel0voSpahG/U0qJ4B4ap8rgrlun7nOw0idZOzatavRfsDsuZj+rCmKVNGkSkcffbSZOHFi+p2gRQjknIA70T78kDuPw8q1ZFSEo77ETJo0yayyyioN8UcyNoSJTBCAAAQgAIGaBBTVp6XQwbT99ttbCbfpppsWgt7TTz9tJeojjzxSNh4tqVb0JulfBBBP7XM1MNftM9d5GGnw8C4JRgWhaE9GZGPysye56A7bca1l8YC35EnQAgQaJzBz5kyj+8s333zTyGfpb/0JLpdea621TLdu3Yz+1h/dV++4446NN9LinLmWjB999JEZOXKkUbSBJqGRhGRshBJ5IAABCEAAApUJzJkzxy6F0h6MwVTkJVISp+HlX9qjUcvB+/fvz6VijEE8tc9lwFy3z1znYaROMioK6O9//7vdm1GCUX/c4S/aq5EUDwEnFhVt5Q7aEesePXrYbUaQjPFwppbiEFiyZImZPn26uf/+++3f77//flODW3XVVc3AgQPNoEGD7J9OnTo1VU8ahXItGe+77z4bMaHJIpIxjcuFNiAAAQhAoJ0JVDoBb6eddrL/F3/nO98pNJq//vWvVjQ+8MADZePM+wmAcU1alsWTIptuvPHG0lBXXnllI1m++eabxzX8tqony3PdVhPBYC0BJxkltxTBqMi6oABTHkkwJxolHoM/g7E6AXdytGRimKnjqt+vmoPgPOjfJAi0OwF9ZrR1wN13350Iit13391ouwi3zDqRRpqsNBeSsdrBL83cJBLJ2OSVQjEIQAACEGhbAo8++qhdNvyXv/ylxGC55ZazclH7L7VT0gEDYvHFF1+Uhr3ZZptZFtttt107oSgbaxbFk1a86Gm/Imx0+ikpHgJZnOt4RkYteSRQTW5VirgLjs9FO7qIx7CMzCOLZvosTkoSie7flYSiq7vaknQkYzP0KVNEAs8995zR3uQ333xzKsPbb7/97B7iG2+8cSrtNdJILiRjIwNpNA+SsVFS5IMABCAAAQgYc/zxx9tlwcEkcaPXNtpoo7ZE9MILL9ioRq2kCCa9pmXj7ZiyKJ604mXq1KmZFoxPPfWU3XrgiCOOyM1lk8W5zg08Oho7gUbklovI098SaPrbLfWt1CG3n6OLftSDCvda+L3YBxRThU4YBsfuqnYHS9RioLwu4lPjF4tay84bmYeYhkY1EMgkgbffftucc8455tJLL21J/0aPHm204mjNNddsSfvBRnMhGRXJuO+++5pbbrml4b0Xq5FFMrb8mqMDEIAABCCQAwLamFoRe3oi69KKK65o5aL2QyYZe/CcxOKnn35awqEnyYpqzNMG3XHMZRbFk5bx7bnnnmbXXXetOkQX7ei+dGuf7xNPPNFuxq7DBRcvXmzuueceW15LktwWPfXKaRuB/fff3xx44IFWcp533nmlE9fdShzVqT09P/74Y1u/a1tydPDgwfa1ddZZx8ydO9f7/jeOOS4JilWW+YrHR0vjrJa6INAUgWblVlg8qvF68rFSB4MHzFT7tyRdtVTpgBonCKuV0d6Trr8uT1AqRgEZlKaun/WEYqX6m52HKH0lLwSySuC2224zhx12mNG9QSuTthC85pprzNChQ1vZDZMLydjMAS/VqCIZW3q90TgEIAABCGScwJdffmnlovaRCSbt/SJ5tt5662V8BOl279VXX7W8wnvuaJ8c8Vp22WXT7VCLWsuaZHQSUHPjJGNQ9N1777329bCIdD/37dvX9OvXzxx55JFWOobrq1dOX9KrLdEORljq3/Pnz7dtKCmyUae2T5kyxe43Hv65RdNb1mzW5joLTOhD6wjod622sdhtt91i2/ssuITYybyg2HOCsnWjrt9yMPLSHcziSrml4nEeiOPmQb8btS8mCQLtQkDRi6ecckrDw5WP0oqgH/zgB/bkaHeKtDvI2J047f7+/e9/bx9wLl3a+IO9s88+20Y1tirlQjJWuulqFhiSsVlylIMABCAAgaIT0Ml3kjJaDuySRIeiF0eMGFH04XuN76qrrrLsgk+xtZxcolGnARY9ZVE8VYtkDIvEhQsXlk2PIgoVgRheRSNJ2bt3b+MEZKPlVHlQcOpnF+EYlozhfMqbtWjGLM510T9fjK86ASe3unbtai666CJ7+EuaKRh12Mi/w31z8jL4eq3IR+ULL92u9lpaHLTsetttt7XNaZ/m8EPKtPpBOxBIm4CiF6+99tq6za622mplJ0NrRUOUpBUPEo3ulOr33nuvbvFDDz3URjW2IuVCMlY7+KWZGy8kYysuM9qEAAQgAIEsE/jss8/sst/LLrusrJtaaipJJslBqk9A0kkc77jjjrLMo0aNsqJ2hRVWqF9JTnNkUTxJ2ClKMBxRGJSM1bbjqbRVT1AyRiknkajPkVtqXSuSUW0oucjGLF4OWZzrLHKiT+kQcMt0XWuSjPqMxxmll85I8teKpOoZZ5xRFrmoU745XTp/c0mPoxF455137JLkxx57rG5BHcqiP507d66bt5EMH374oT1YRn/qJcl/LeX+xje+US9rrO/nQjLGOWIkY5w0qQsCEIAABPJOQPvNKQLvlVdeKQ1FESGSIoccckjeh9eS/l933XWW6aJFi0rtr7/++paplvQVMWVRPLmH1OGly8EIR/1bKSwia0lGt8w6Srmg7Ay2GT6cRsujhwwZYqZNm2Y233zzTF4qWZzrTIKiU6kQcJJREXRPP/106UAXd2iJ9lJ1/06lQwVuxJ3YrSFKLrrkTujW71EkY4EvAIZWIrDddtvVFYw/+9nPrFystO9qHCj1eZRo1EqaWkmi8dFHH42jyYbrQDI2jCr+jD7w4+8NNUIAAhCAQDsRWLJkiRVhV155ZdmwFaGlqDvtE0NqnsCbb75poxp1aF0wadm5ZGOnTp2arzyDJbMqnsIHtDh0bk/G8PvuUBZd/9WWS0syRikXzqu9m3SgjE6gDK7WqXTwi/rrllZnZdqzOtdZ4UM/0iUQPnBE+wHqIKfwvoBuH0InxBCPtefJHYLjTuQOn0Qtfu6BieaAg1/Sve5prXUE6i2R7t69u7nxxhtLWwgk3VNFU+o+4Y033qjaVNpLp3081zJLI+w+6SIIIxQpQWK5dNKXJvVDAAIQgEA7EbjzzjutYAzuBaWlFJKLulEhxUdAN5qSjVpa45L225Jo/OlPfxpfQy2uCfHU4glIsXnmOkXYNFWXQDW55SSZhKMEWaUTm4MnK6shF/XohGTdxnOewR1g4wSi7glqnbDtxGKl06eRjDm/GOh+QwTqHfLSv39/Kxjr7avaUGMRMumzq/v3OXPmVC2V5mEwuZCM1UhV29C71nywXDrC1UpWCEAAAhAoFAFFT0kuhjepPuCAA6z0SnvPlkLBrTEYCUZx/81vflOWS0+Wxb1Lly6ZRaEHvbvssou9ZtzyXReZp9fd3oGIp8xOYewdY65jR0qFHgQalVtOqLnIvFoyzXUnKBudkJSIVAofvpLUksgoaMIHzwRPwXYCUfWFoxIrteEiPSVLKknFcJlG5yHKeMgLgSwR0N6G++yzT9UuaT/Y66+/vqVdPvjgg2ue7n7rrbfavSSTTrmWjLrxHTt2rJk0aZLR6ZeNJCRjI5TIAwEIQAACcRDQfmuDBw/uUFUrTovVjYUi6v7xj3+U+tOtWzcbvbjffvvFMVzqqENAS6clG3X/4pKW5Uo01rpxbTXY8L6B4YNM1D/EU6tnKb32mev0WNNSfQI+cstJOSfdFPUYlJH1W++YIygbK4nHqDKyUgSmWnWvV3u/kb4Hl5BLJrqfmzk0x2ceGukreSDQSgJvv/222XDDDe1WKZVSFgSj61ct0Shn9tJLL5k111wzUZy5loya5JEjRxrtYaMvSo0kJGMjlMgDAQhAAAJxE2gm+j6OPvzP//yPlYvhgy10EyK5teqqq8bRDHU0SOD999+386HDYYJJ14eE79e//vUGa0ovm+63hg0bZsaNG2c22mgjM2jQICtLtTehS4in9Oaj1S0x162eAdoPEhgzZoy5+OKL7VLnRiL0GqUXlnjuZ4lIpWrvN1p/EvnCglM/u2Wb4ajMqLKzXn933313o4Pk9H9ZeD/MemV5HwJZJ3DUUUfZfZQrJS2Rdr8XsjIO/T6stnR69OjR5pJLLkm0q7mWjJWepNejhWSsR4j3IQABCEAgCQKtkIxTpkyxMui///u/S0Nae+21rVzca6+9khgmdTZI4I477rCyceHChaUS3/zmN+3cSOhlLbloxj333NNMnTq1g7RGPGVtxpLrD3OdHFtqjk7ASUaVzMLJxuEly+ERRY08rCYDw8u1o5OLr4SLYszKHMQ3MmqCgDHPPfec6dOnT0UUOuTl8ccfT30Pxnrzou0Rtt5666qHwTz77LNm4403rldN0+/nQjJWO/jFnQDo9ghqhAKSsRFK5IEABCAAgbgJpCkZtaxDcvHmm28uG8bPfvYzGy3XuXPnuIdHfU0Q+PDDD61ovOqqq8pKa/m6ZGPSy1midNntw/jkk0/ap+Phe68si6dK2xa4k5yjMIgz73nnnWerc3taxll30nVlea6THjv1Z4+AE1xdu3Y1ixYtskt+9f9tI/sIZm80+emRZKkiFs844wzbacc/C6I3PxTpaR4I7L///h3up12/H3300dROkY7KSqdOb7fddhWL6T7zpptuilplw/lzIRkbHk0DGZGMDUAiCwQgAAEIxE4gLcmom34Jxvfee680hvXWW8/KxSFDhsQ+Lir0JzBt2jQrG1999dVSZauttpoVjdrnJyspvDdjsF9ZFk+1+t0qtkHJqH/Pnz+/Q3Roq/pWr90sz3W9vvN+8Qg4yXj00Udb0eWkl0bqDi/R0sEs/S7N4ywET6LW9ivBiEyJRSWxRzLmcXbpczUCWgZdbY9SPbi/8sorMw1vxIgRHR5kuw5rewl3kFXcg0Ayxk00Qn0+8CM0Q1YIQAACEMgAgaQl4xtvvGHl4u2331422iOPPNLKqhVXXDEDFOhCNQKffvqpnb/LL7+8LMvee+9t509LclqdkIzxzQCRjPGxpKb2JhA+cMSdGi0RFt6jMXjQib5cOwnZ3gQ7jt4xdCdxV9rr0kWMSt7q3xz8wlVURAJ6OH/33XdXHNprr71WOmU+q2PXZ3jdddet2D3to6qH3EkkH8+1zNKlS5c22ikXQRihSFnVTz31lNGmmh9//HHZ61FP6CSSsdEZIx8EIAABCMRJIEnJePXVV1tBpeW3Ln3rW9+y0YvBwzniHA91JUNg+vTpdi5ffPHFUgNa3i7RePjhhyfTaIO1FlEyhpdS33vvvfYzo616xo4da3baaSejpVIHHnigPWhQr2lf07PPPttS02tKel1J+SQ3VH7fffc1OlHcHU4Y/B0QjmRUWS2d1uuqX0voqy1Nb3C6EstGJGNiaKm4CQK15JaTZYpGkiirth9iWD6qG8HXmuhWposET9UOHmjjohUrdd7xkJwV83BCMmZ6yulcEwSWLFlidBpzpXTSSSeZc845p4la0y9y8sknm3PPPbdiw9oKp1OnTrF3KheS0e0DFD7JsBkaSMZmqFEGAhCAAAR8CSQhGfUUVcts77rrrrLu6RQ8Sal/+7d/8+025VtA4P/+7//svOrE1GDaY489rDiu9lQ66a7mWTIOHjy4hMft6a0XDj30UDNjxgwrAvVAW1ELerK/1lprmX79+tllUu5kdrdHuKKDJQQr/bzLLruYa6+91pZvVjKeeeaZFfe9THp+G60fydgoKfKlQSCK3HISzUXoOQlZr5/BQ1bcv3Vqc6XDV9I8kKXSITPhU691AERQKtYbq953EZ4aY6N7W0aZh0b6QB4ItJrAbbfdZvbZZ58O3dB2NvpM5WV/cwUg6DMd3EbJDUpj1IqZuFMuJKN7mjxp0qSqNrlRMEjGRkmRDwIQgAAE4iQQt2T89a9/bSPePvnkk1I3e/fubeXizjvvHGfXqatFBB544AErG//617+WerDSSivZOf75z3/eol5VbjbL4qmaHK20ZNl9Tvv27dtBEoajE/UQXCeBjxs3zh6EE/zZRzKKcJYPhMnyXGfqQ0FnUiHgK7eCUs7JR3W8UQHZyCCrnRAdLKs8jZw83Uieen1y/ZFAlEhU0r9dtGK98pXe952HZtqkDASSJHDAAQeYKVOmdGjCrVhIsu2469a9zY033tihWo2x0uu+7edCMuqmbeTIkXZJilty0uzAkYzNkqMcBCAAAQhkgcBLL71k5aLESTDpNUW5kYpHQKJRYjGYtKRXr2244YaZGHCWxROSMd5LJMtzHe9IqS0PBNKQW2ERKS56TVGC7t+OVTiSMEmGQXkZjqB08jAoDqsdYBFHH9OYhzj6SR0QaJSAIhbff//9DtmTiv5rtF/N5NN+7UOHDu1QdNVVV60Y4dhMG8EyuZCM6nBcJwMiGX0vGcpDAAIQgECrCFxyySU2su3zzz8vdWHTTTe1cnGHHXZoVbdoNwUCDz/8sJ37p59+utTa8ssvb+dey+OTSvoS3aVLF3tqa62UZfFU7R5Sy6NrLZcOL3eOGsnolk4rytEtrb7sssvsno+19mQUZyIZk7qiqTdPBO655x6z22671exyHuRWI9GHylMv4rHe+62c2zzMQyv50HbrCTR6P6Oezpw50+7JHE5ySQqA07YreUo610T7S1Y6H+XBBx80O+64Y6zDyYVkdDdmCxcu7DB4Dn6J9XqgMghAAAIQyCCB559/3kYvau+4YJKIcAdPZLDbdCkBAjpgxAkqV71klqIae/XqFXuLuimXJDv99NPN6NGjq9afR8mowdQ6+MVHMoqZ5skdCKP7Ve0LqRt5JGPslykVFpTAIYccYhYvXmwPGunTp0/FUSK3sjH5zEM25oFeVCfQ6P2Majj//PPNCSec0KEy/f+tA+LymHQPEl4FpXH88pe/NMcff3ysQ8qFZIxzxEQyxkmTuiAAAQhAIGkCF154oRWMwSSBoQi2JJc+1RtXWM64/FEf/tVrp9Xvu8PndDqpOzBE/FuZ1BddE4rECyaJxmOPPTbWrumm3EXPaJ9CfZEcOHBghzayLBljBUJlJjjXV1xxhd3P6eWXX7b7w26wwQY2+uOss87i4CmuFW8CkozXX3+9rUeR3Pr9Ez4JFbnljTmWCpiHWDBSSYIEGr2fUReOOeYYM3HixA690SnN7uFhgl1NpGoFJehU7HAaM2aMueiii2JtE8kYK85olfnAj9YSuSEAAQhAIG8EnnnmGSuStEw2mE499VQzfvz4TA0n7kNtag1OqxuCy1CTBuGe+urptf4tkTd9+nTvg+ji6LcOHJHMCSYtm1cfN9lkkziasHuOhZfoaV8fRTYGIyeRjLHgzkUlbq4v3H5w1YiO9ddf30pwLbUnQaBZAkHJqDrWWGMN+7snePAVcqtZuvGWYx7i5Ult8RNo9H5GLes+R/sYhtMNN9xgdPBLHpMeCOp+PZx0urT2mYwz+XiuZZZWWtRdpXcugjBCkTjHWaqLSMZEsFIpBCAAAQjESEBLF8J7svXr189GL/7whz+MsaV4qkpTMsbTY2NPBD7yyCPrHignsTh//nw7HxKceoI9adKkTEhGsfjd735nI3zmzp1bhkZLdSst9YnKr9JNuatDT8T1hX+FFVYoi26L2gb580XAScZtlhjzjW98wyjaervttjM6+VwnoetBiKJttbxe+8iSINAsgbBkdPVstdVWNqpR2w8gt5qlG2855iFentQWP4FG72fUcv/+/c1vf/vbDp3QXo0//vGP4+9cCjU+9NBDFfde/NGPfmTmzJkTaw9yIxmDy7IGDBhgowheeOEFG82ho8W1kWUjCcnYCCXyQAACEIBAKwj86U9/stGLs2bNKmteN++SOVlNlSRjcJmx+q1lGkFRpyWV+++/v30irINLJk+ebD744AO79FJJe95MnTq19HOwvNsrT/kk/bRnlw4IUHL3CLovCO/prLb0FFr9de245d2dO3c2gwYNsnIk2N8g86BwzNpcnHHGGfbLdjBpOb2iGr/3ve813d1aN+WqtHv37vba3HDM4V/x/2hp021RMB8EgpJRy6VHjBhR1nH9HtOWAoo6e/vtt/MxKHqZSQLVJKPrrP4P0Qmwl156qf09FP4dmMlBFbRTSMaCTmyBhtXo/cxhhx1mt/545ZVXOoz+ueeeM9/5zndySUUPATfeeOMOfdfKA215iGVHAgAAIABJREFUEmfKhWTUF5Vhw4bZqAMlJxb175EjR9ovLt26dWuIC5KxIUxkggAEIACBAIF6NyZJwdp6661t9OL3v//9pJqIpd5KkjH8mvtZ+/opKlMCTMJPScsq9dT41ltvtYdiVPrZnQKs/EHJqLoUkSiB6cSmRK3qCabgvcRGG23U4f6hWn9dPSqv+w1JzUYfbMYCN0Ilf/jDH2xU4+OPPx6hVDxZN13OmOHLGzPmEyRjPESzW0tQMj755JNGn+lw0mdkyZIlZS/r9NwePXrY17QEX79Xg4n34eOuj+D3tUY/CaeddprRwxZSawg4ydia1mkVAvER0P2o7qc+++yzDpW+++679sFGHtN7771nVl999Q5d1yoEnT4dZ8qFZAwuTwpGLwoEkjHOy4G6IAABCECgEgEkY+3rIizowhGErrQknaIJw6f2SioGVyaofDBP8GfVFZSM4bq0TLh3795WMob74Q5uCUvGWv11y9YVXapox1Yf+lJrJoouGYOnNYtDMGo1id9cedwGIAkO4TqRjEjSpCUxkjGNT3K8bSAZ4+VJba0jgGT0Z58LyRiMTFhrrbVKX0Qee+wxu5TKRUI0goNIxkYokQcCEIAABIIEnGTU0tpw9E2cpIqyXDosCYOMKr2XhGTcdttt7fJnF9VYK5KxVn9d3yUZFbGV1SjGdlguLcmo5MSv28A8yn1glM8rkrEyLZZLR7mKyOtDoN5yaa10W3XVVVku7QM5prIsl44JJNUkRqBewIDb/oXl0v5TkAvJqGFWijJw+yg1ulRa9SAZ/S8aaoAABCDQbgTSkoyOaxEOfqkmgNKSjBKCwVOoJTKHDBlipk2bZhTJ6LZhcZGJ9YTViy++aL71rW9l7tJvp4NfwpJRc+qW0Ue5F2x0EpGM9SVj8OCXFVdc0R6SxMEvjV5h5KtHgINf6hHKzvtIxuzMBT2pTICDXzj4JbHPBpIxMbRUDAEIQKCwBNKWjAL5zDPP2Ci8hx9+uIyrvsBraXGWUiMHv7ilylqRkNZy6fChcdrvS4fMSCy6pbfVDn5x/VVe96Dzsssu67DXYyvnQXtVn3XWWWVd2GGHHexhL5tsskksXat0Uz506FB7yEKvXr1KbbjotiQPfqkkGYPL7IMH+rhDftRBnXLcpUsXc/bZZ9v+BufW7f8Z3I/ILcPWljxK7pCgStfEwoULbZ5a7QUfitcag+oJHj4ULFfpsCKJ1Vpji+UCqFCJm+sLtx9sD2iqlLSRvNiKOwkCzRIIS0YdJiSZdcQRR5SqRG41SzfecsxDvDypLX4Cjd7PqGXd59x+++0dOqGVE/r/Po9J9zLugXqw/3vvvbe57bbbYh1SbiIZ4xo1kjEuktQDAQhAoH0ItEIyOroXXnihlY3BJPElkSQZQmo/Alq6rQNeJHGCSdfEscceGyuQ4E35FltsYeXiwIEDO7TRCskYjD4Ny7vgz8qncUyfPt0ud9d7irhzJ43vueeepT08dbDPpEmTbL5a5YIAgkvx9dkMR8WqvRkzZtj2VbeSW/Id3CpA2wCpX+69ahPZ6NhivRAClQXnWqdL64uLTqb85JNP7ImcOjle8vvf/u3fkuoC9bYJgaBkPP744+3vn06dOpWNHrmVjYuBecjGPNCL6gQavZ9RDcccc4yZOHFih8rOPfdcewBgHpP2RT/ppJM6dH3MmDHmoosuinVImZeM4U2+9cQ0fGJkFCJIxii0yAsBCEAAAiLQSsmo9p9//nkrGiUqgkkyQjcNpPYhoJtbJ5ncqLUsXIIxGFkYFxFd+xJn+nKvqLlqKS3JGLy5d9GDbu/u2bNnl3XPvR+OtJXYmzx5st3HLfheeCl/rXLVDhVyktGJS3UoWK+LiqwkGT/88EN78rrS3LlzTXAJeDCSUe/rc686avUxrmsgXE8ac51U36k3XwQkGRcvXmyjF/v06VOx88itbMwp85CNeaAX1Qk0ej+jGs4//3xzwgkndKhMHqpaBH/W2Q8ePNhohU84aYsmPcSJM2VaMob32mlkY/Z6cJCM9QjxPgQgAAEIhAm0WjK6/lxyySU2gu3zzz8vdXHTTTc1v/rVr4yWyZKKS0DL5jX3Tz/9dGmQyy+/vJ17LQFPKuna15LXrl271mwiDfEUjlZ0HQpHEoY7WkvEhZdLBx9mVyunSIZqhwr5SEZ3qJATmBqHZKPEpIu81GvhSMag0AwK1KSuiTTmOqm+U2++CNxzzz1mt912q9lp5FY25pR5yMY80IvqBBq9n1ENM2fOtFH54SSXpHsObZ+Sp6QtYXSPsXTp0g7dfvDBB82OO+4Y63AyLRllWsOnR+sp+vDhw+1T9WYSkrEZapSBAAQg0N4EsiIZNQsvvfSSjWoMP43UaxJOpOIRkFxUpGIw6Wm6Xttwww0zMeA0xFM1yejEm1uSHD4BvJZk1Oeo2hLlauVOPvnkqocKOckYXp4dXC4dFobV+u3uefVwoXfv3jZy0UVtKnqVSMZMXPp0osUEkFstnoD/3zzzkI15oBfxEVhttdXM+++/36FC7V+ofQzzlLS/pPaZDKdVV13VvPfee7EPJfOSMXzj53vSH5Ix9muICiEAAQgUnkCWJKOD/etf/9rKRu2D5tJ3vvMdKxp33nnnws9JOwzwgQcesHOseyGXVlppJSsXf/7zn2cKQaslo2CElxS7qMS4lj0HowRrHSrk9mR0S6ODB7iEl1mPGjXKfPDBB3avRu3JqOVMLrnl3sEyip7QXlGdO3dGMmbqE0BnWkUAudUq8uXtMg/ZmAd6ER8B/R/8m9/8pkOFwYPe4mst2ZrC90eutQMOOKB0uF2cPUAyxkkzYl0+8CM2RXYIQAACEPAgkEXJqOG89tprdgntXXfdVTa6o48+2spGDl7wmPQWFv2///s/KxcVwRZMe+yxh53Xddddt4W9q9x0GpIx7kGHt+VR/ZVW0URt1/eBeNT20s6fx7lOmxHtpUcAuZUe61otMQ/ZmAd6ER8BRSzus88+HSpUhOOCBQvsw748JO333LNnz4oRi0lFZfp4rmWWVlrUXYW0iyCMUMTe6AWf6FaqOvh0uJFJJpKxEUrkgQAEIACBIIGsSkbXx6uvvtpKKd1IuPStb33LRrxp7zhSfgjo3kfi+MUXXyx1WjeymsvDDz88swPJo3gKnuzslljXWpLdKHwkY6OkyAcBfwJpyS23VYF67E6qd7130cbbbLONPbW+HVNa89CObBlzawgsWbLE7mNYKemU5nPOOac1HYvYqrZ40V7SlZJ+r3Xq1ClijfWzZ1oy1u9+9BxIxujMKAEBCECg3QlkXTJqft544w0rGrXvSjAdeeSRVlCtuOKK7T6NmR7/p59+aufv8ssvL+un9v3R/HXv3j3T/c+jZBTQ8BKiOJZBIRkzfanSuYIRSEtuuQOmtILguuuuKzsfQA+HTj31VLPZZpshGU8/3Z4GToJAEQgMGTLE3H333RWHot8FihDMclLEZbXVL7vvvruZNm1aIt1HMiaCtbFKfeA31gK5IAABCEAgDgJ5kIxunJMnT7ayKriR83rrrWeX2epmiZQ9ArrJU/Tiq6++WuqcluNILuqwuzykvErGPLDNWh+Z66zNSHv3J23JuPHGG5f2RBV5Jx/1+uuvv94SyegOgtOBYK1Kac1Dq8ZHu+1JYPbs2UYRypXSz372M3PllVdmGsyIESPMVVddVbGPs2bNMgMGDEik/z6eK/Hl0kmMmEjGJKhSJwQgAIFiE8iTZNRMvP3221Y03nzzzWUToxsiyca87CNT7KvK2OXtkovhG8D99tvPCsY111wzNwgQT7mZKu+OMtfeCKkgRgJpyS0nEw899FD7+/mWW24x3bp1M27bBUWdP/jggyXJGIySDm7vpfz9+/c3H3/8cYmCvuhrCfYLL7xQek+HPM2ZM8dGTKqM9ujVvYikh5KLug5vL6YDr9Zaa62yNiZMmGAPikoypTUPSY6BuiFQicD+++/f4X7a5Xv00UfNtttum0lwOkxuu+22q9g33WfedNNNifUbyZgY2voV+8CvXzs5IAABCEAgLgJ5k4xu3FOmTLGy8b//+79LKPRlR6Jxr732igsP9TRB4I477rBzo8gXl775zW/aL6/Dhg1rosbWFklCPIVPYtYI3ZfxavskxUFB+zKeeeaZpS/4wTolDvT0f+7cuVYwxJHi2Acyjn40WkcSc91o2+SDQJhAWnLLScZx48ZZ4bfnnnsaRQ7q89u7d2/bralTp1aMZAx+xoPbKeh33NixY+3p8nrotO+++5bkpd5zP7/55ptWGt566622Tb23yy67mGuvvdZKSNeHSpGMwXri+p1V6SpMax74BEAgbQLPPfec6dOnT8VmtZXN448/bnr06JF2t2q2p+8tW2+9td1KqVJ69tlnjaKvk0o+notIRs9Z8YHv2TTFIQABCEAgAoG8SkYN8X/+539stFx4M/pDDjnEysZVV101Agmy+hJ4//33rVy8/vrry6rSF0/Nx9e//nXfJlpSPgnxVOnLsb5Ma9/KOCVfGJjaUBSwnvQHo39cfxYtWmRmzJiBZPxoaUuuNRqFQJBAWnIrKBkl/SQUJQdHjhxpFCk4b968MskY3u/VRROGJaMTiSofPvDURTNqvOPHjzd6cOgesIwePdpup1FJMoajJaMelNrMFZbWPDTTN8pAwJfAUUcdZS699NKK1egBgIsw9m0nrvJ6IKtI6EpJvzv0oCTJ5OO5kIyeM+MD37NpikMAAhCAQAQCeZaMbpiKgJBs/Mc//lEauaIaFDmnLzmk5AlIXGkOJKtc0rI2zcE+++yTfAcSbCEtyagh6Eu6IofqLf9rdp8ySUY9/f/ggw+sRAiePK3XFQHglkrGgTSpSEZFXOngp7ijl5KY6zg4Ukd7EkhLbgUlo35v6/9NPTCaOXOmlQ/6feMiGfWZnj9/funhXvAzHhaAWt6sCMRg+fBMuiXZjUjGcJQjkYzt+blg1PES0DZEG264od2DtVKS8A8/PI63B43XdvDBBxvtz14p6X7mpZdeSnw7Hh/PhWRsfK4r5vSB79k0xSEAAQhAIAKBIkhGDXfx4sX2S5GWWAXTAQccYEXXN77xjQhUyNoogXfeecdy/81vflNWxO3t1aVLl0arymy+JMRTtS/H+jKu61V7mGmJYb9+/czChQstm1r7lPXt27di3jBUJwQkCdySyGr7sen1QYMGlaIYXLSSWwa50047Ge3nVKlfLkrp4YcfNk888YR56KGHSvu0OfGgvlXb20391PgvuuiiDuWqlYnjAkpiruPoF3W0J4FWSEYXPailzpUkYfBBiPsdoeXNejCi31/63RJ+SOK2h7jsssusdAymRiSj8qtO5dX/LS7aWu2NGjUq0ehvtZ3WPLTnVc6os0Dgtttuq/lAOAuisZZgFEMFHAwdOjRxnD6eC8noOT0+8D2bpjgEIAABCEQgUBTJ6IZ85513WumlcbkkwajlupIhpPgI3HjjjTZ6UaLRJe3dI0n205/+NL6GWlxTEuKpmmSs9IVbww9GGtXbpyycN4jPSUZFS7rIJLWpyICTTz65bN+04NJH1eF+dkJTp1K6rQrCX/5dm+El4EGJGt57MhgRVauc6nbLOIlkbPGHg+YTJZCW3Ar/zqgk89zvi+B+snqYcMwxx5ROpA7vNRs+4CV4KEzwQJhay6WD0ZGSnpKYEqBKu+22m9GDLD0Aift3QXBi05qHRC8mKodAHQLnnHOOOeWUU6rm0udX931p79Go+3ndv1dbIq0On3322fYeJo3k47mQjJ4z5APfs2mKQwACEIBABAJFk4wa+pIlS6xovPLKK8tIaAmYZKOWg5GaJ6A9uyQXtaw2mEaMGGEFY6dOnZqvPIMl05SMtSIZg1/Yw4ch1PpyH0TqRJ5u2N1+afrSIOkoeeheU5lgFKWrQ1/mg2XdF/tqy6LDrwcPg5BkrLa3W61y6guSMYMfFLoUO4E8ya1KDxpqLZOOHVaCFeZpHhLEQNVtQOCwww7rsCIoOGwdBqN7hrROndYp0rrnqHbIi/qm6OZrrrkmtdnx8VxIRs9p8oHv2TTFIQABCEAgAoEiSkY3/HvuucfKxldeeaVEpGvXrlaE6XAYUnQC1113nWWqA0JcWn/99S1TRZUUMaUpGd1SREk0LVUWay0vrBXJ6JYsVstbSTJq6aHa0pLnBx980EYCKQUlY/A02GAd1Q6tUZ7wMslaslB7Qlbb2w3JWMRPEmOKSiBPcqtSFHZSe7JG5eibP0/zUGusyyyzjC+KXJW/4oorjB5+kqIR2G677YzkXq30s5/9zJx00kmmZ8+e0SpvMPeCBQvMueeea6666qqaJSQ7H3300QZrjSebj+dCMnrOgQ98z6YpDgEIQAACEQgUWTIKw2effWaj7rQXVDDttddeNqpRJ1OS6hPQvoCSWFoyF0zaD0scV1hhhfqV5DRHWpJR0m/WrFl2fzEl7XOmPUa1PFpf4IcMGWKmTZtWOnFVeST1wochhPMGsVc6pEF7M2rZc1geqj9K4dPbK0nGWsulXT/1dzCSUSLVHXIT3tutnmQcNmyY0eEvYhNnSmKu4+wfdbUXgbzJrXBkstuvNe+zlrd5qMa73SSjOOj/VC3NJzVOQFvgaG/DeqJRNUo06k/nzp0bb6BGTu3FLLmoP/WSBKP2kkx7z3Ufz4VkrDerdd73ge/ZNMUhAAEIQCACgaJLRofi/vvvt5LshRdeKNHRck1F4OmJLKk6AS07l6gNnjy40UYbWXYDBw4sPLokxFN4ebMguj3K3F6FWmo4ePBgy1fvaR+ko446qiQd3f5m2qdMqVre4AQF5V04AjIsD8MHv7jl2u702fAp1MH+Bg9+UfsuwjEoGYMH24T3dqu3zFrva182PSSQlI1rP7Yk5rrwHxAGmBiBositxAClVHFR5sFJxqVLl6ZErjXNuPlS6+uuu679P+Kb3/xmazqT41brLZ12Q1tttdXsvaBWX+iP/j+Pkj7++GN72J3+6F79vffeq1s87SXSwQ75eC4kY92prZ3BB75n0xSHAAQgAIEIBNpFMgrJl19+aUXjxIkTywjtvvvuVpitt956EcgVP+urr75qed19991lgx0zZozlteyyyxYfgjEG8dQW02wHyVy3z1znYaRFkVt5YF2rj0WZh3aTjNrKRdvl/OQnP7HyihSdQL3DYMI16hqTaPzBD35g9z/XA0D3t/LqQaP29XZ///73v7dyMYr4TvOQl0rEfDwXkjH6NVhWwge+Z9MUhwAEIACBCATaSTI6LDNnzrTy7LnnniuRWnHFFe2yXy3hJBmj/fIUvfjpp5+WcGy88cZWLu64445thQjx1D7TzVy3z1znYaRFkVt5YI1kzPss/av/7nNz7LHHmjvuuMO8/vrr9p5P93ik6AS0JFlRjcHVLNFr8S+hVR464EVLuVuZfDwXktFz5nzgezZNcQhAAAIQiECgHSWjw3P88cd3uOnUE1jdiGo5cDsmLSeXXNST5WDSa+eff347IiG6rY1mHcnYRpOdg6EiGbMxSUWZh3aLZDz99NPNj370I7PDDjvYC0mCSstsSdEJvP3220ZRjZdeemn0wjGUGD16tDn55JPNmmuuGUNtflX4eC4kox974wPfs2mKQwACEIBABALtLBmFSafS6Qn3X/7ylxK15ZZbzkbsHX300RFI5j/rxRdfbFl88cUXpcFsttlmloVOG2zXhHhqn5lnrttnrvMw0qLIrTywrtXHosxDO0pGzZ0O/pOkUvrd735nl/KSmiOgFUA6lOXmm29uroKIpfbbbz97sIxW0mQl+XguJKPnLPrA92ya4hCAAAQgEIFAu0tGh0pPSMOn2e288842qvE73/lOBKL5y/rXv/7VysUHH3ywrPO6sdOT63ZPiKf2uQKY6/aZ6zyMtChyKw+skYx5n6V/9b/S52bUqFF2G5gNN9zQHgSjw0pIzROYPXu23d88vGd38zWWl9Re6dr/O4sng/t4LiSj5xXiA9+zaYpDAAIQgEAEAkjGf8GaM2eOXSr85JNPlhGUaJSEK2LS2LRsPJi22GILK1d1ejEp/4eBVDrJWidSb7vttnaDdn1ZCKcJEyaY3r17l06sdu/rdZ0UrdOdL7/88g4nOytaZPjw4fYE7DwmJGMeZ624fUYyZmNuizIP7RrJ6K6i7bff3q5eGTx4sLnnnnuycXHlvBdLliwpOxn6/fffb2pEq666qr0fcadUd+rUqal60ijk47mQjJ4z5APfs2mKQwACEIBABAJIxo6wTjvtNDN+/PiyN3RzqmXDm266aQS62c369NNPW3H6yCOPlHVy3Lhx5swzz8xux1vQs7yLJ0nGfffd19xyyy32pMennnrKDBkyxEybNq0kA/WarvkpU6YYba6udN9995mpU6eaG264oQN1SUYtl9JSJklHl5CMLbhAabKwBIoit/I+QUWZh3aXjAsXLjT9+vWzJxvr/y09NCPFS0AHK+r+UidIB0+RfuONN2xD3bt3t6dNB0+e1n11ng4U9PFcSEbP680HvmfTFIcABCAAgQgEkIyVYT3xxBNWwunvYNKS6rFjx0YgnL2surHWUuhg2mqrraxE1d+kcgJ5l4zMZ+MEmOvGWZEzeQJFkVvJk0q2haLMQ7tLRl0l2hZGW+EoTZ482Rx00EHJXjzUbgm4Zc+VVk7kDZGP50Iyes62D3zPpikOAQhAAAIRCCAZa8NSVJ9OKAwm3SxpOXHfvn0jkG591nnz5tnl4OGbvDPOOMMoepNUmQDiqX2uDOa6feY6DyOVBDn44IPtFgTXX399HrpcyD5qa4lZs2bZewEJx7wmJONXM6e9BI855hgjHtqfccstt8zrlOai3zrV+/DDD7d9vfrqq81hhx2Wi35X66SP50Iyek69D3zPpikOAQhAAAIRCCAZ68PSHo2Kavztb39bllnLS0899dT6FWQgx1lnnWW0FDqYfvSjH9noRe3BSKpOAPHUPlcHc90+c52Xka677rpmwYIFVjRKcvXs2TMvXS9EP51gFPfXXnst12NCMv5r+kaMGGGuuuoqu/ewVqx87Wtfy/XcZrXzn332mdlggw1McLn0yy+/bFZYYYWsdrluv3w8F5KxLt7aGXzgezZNcQhAAAIQiEAAydg4LC2V1inUwfTDH/7QRjVqn58sJj2llyD9/e9/X9Y9nRodXjKdxf5noU+IpyzMQjp9YK7T4UwrjRNQBJ2iGSUalbbZZpuSbEQ4Ns4xSk5FkCriX38HmYt9nhOSsXz2tCpFB/7tscce5s4778zz1Ga277pn1r1zMOneU/egeU0+ngvJ6DnrPvA9m6Y4BCAAAQhEIIBkjADLGPPnP//ZLjnWCYXBlMVlVG4fqWA/t9tuOytFv/vd70YbeBvnnvvtdcxnb7xu+s592nTaeJM2JlHsoS957hkzr9+mZoXua5t+f1tY7MEyutwRkPDS1hZONjr5JVEi+SXhiHRsblqdVJTQDfJVbVqmrijSIiQkY/ksvvrqq/YB8TvvvGNOOeUUoxUfpPgIPP/88zZStFKaP3++6dWrV3yNpViTj+dCMnpOlA98z6YpDgEIQAACEQggGSPACmQ9//zzzQknnFBWWPv6aPnx1ltv3VylMZV6/PHHbfTiH//4x7Iaf/nLX5rjjz8+plbap5oXRhxs3r5psln72BPNemdyGmVRZ/7VcWPN6xedZ9bcf7jZ6Er2vyvqPOd9XBJhOvG9khBzotGJR40V+fivGXfM3L7ElRgqt6SiDgTJe+Ri+FpHMnb89N9///1m0KBB9o0pU6aY/fffP++/IjLT/3322cfcdtttFfszdOhQc+utt2amr1E64uO5kIxRSFfI6wPfs2mKQwACEIBABAJIxgiwQlmfe+45K/NmzpxZ9o6Wh5x99tnNV+xRUk/jw8tQdtxxRys/N954Y4+a27foolmPmKcH7WAB9J5yh/nG7nu2L4yCjvydu6ea+cP2sqPbdPrDpus22xd0pAyrSAQkyfRH0kwReOEovOBYnTCTgHTi0UU+FiEC0o3fMQiKRHGoxUZSsUePHlYqFk0sBq8BJGPlT79Wd+gB7PLLL28Pgvne975XpF8TLRlLUN5W68D06dPNwIEDW9I/n0Z9PBeS0Ye8McYHvmfTFIcABCAAgQgEkIwRYFXJqpMKJRu//PLLUg7dpErspfWF5bHHHrPLuP/0pz+V+rDsssvaPowZM8Z/kG1ew8ILJpjXTj/JUlj7mBPNGkP3Y+l0Aa4JLZH+5+03m9cvPM+OZt0zzjXrHDe2ACNjCO1KICwe6wm2IKdg1KP+LfHmUiUhWUtO1hOX1aSfez38vvtZ9yxuTNXyVpt7t6xcolXJ/dwu1wqSsfpMH3rooea6664zm2yyiT0IZuWVV26XyyKRcepAwXnz5tWsW3nCK24S6UzMlfp4LiSj52T4wPdsmuIQgAAEIBCBAJIxAqwaWf/2t79Z0fhf//VfZbm0pPq8874SGEmlE0880WgpdDD95Cc/sYLx29/+dlLNtl29QdHYdoNvgwEjGNtgktt0iMEoR0lI/b8ffK1WlF9ekIWjMyVI9Zp70FdPeuZlnD79RDLWpqeD/HRI3t577111ma8P/3Ype+mll5qjjjqqoeFecsklZvTo0Q3lzUomH8+FZPScRR/4nk1THAIQgAAEIhBAMkaA1UDWyy67zMrG//3f/y3l7tOnjxV+P/7xjxuoofEsDz30kG3r2WefLRX693//d9vWqFGjGq+InA0T0NLpf94yxbw/+xF7GAwp3wR0yMuqA7Y3a+w7jCXS+Z5Keu9JIBwVGF5+HYwgdE3VkpP1xGU16VdtCbeLqgy+X6Tl3p7T11BxJGNtTC+++KI9COb999+3J7jr8DxSNAKLFi0yG2ywgXn33XcbKrj66qubl19+2XTt2rWh/FnI5OO5kIyeM+gD37NpikMAAhCAQAQCSMYIsBoh4mHjAAAgAElEQVTMqhsmLV2+5557ykoce+yx9mRnd6PfYHUdsi1dutTWf+GFF5a9t9tuu9n6dYNHgkBUAnfddZfd9P7TTz/tUHTFFVc0N910k9ljjz2iVkt+CEAAAhDIAAEkY/1J0H3b7rvvbjPqYBIdUEJqnIB7GBEu4R4IVHv4ENyaofHWWpPTx3MhGT3nzAe+Z9MUhwAEIACBCASQjBFgRcx6xRVX2EjDjz/+uFSyV69eNtJwl112iVjbV9lnzJhh63z++edL5bV3kOo84ogjmqqTQhAQgd69e9vrSl+qDjnkECurJcy1T5VOiNS1O3/+fGBBAAIQgEAOCSAZG5u0CRMmmJNOOsmstNJK9iAY7dNI8iNQpGvPx3MhGf2uIw5+8eRHcQhAAAJpEUAyJktafCUF77zzzrKGtAeNxKBOM2wkff7557Ye7XUTTD/96U9tPXl6CtzIeMmTLoEHHnjAiu8tt9zS/OEPf+jQ+Pe//327Qbsk984775xu52gNAhCAAAS8CRRJ9NSCoWXOZ5xxhteS54MOOsjceOON9qRpicZG79W8J6mgFRTp2kMytvAi9YHfwm7TNAQgAIG2I4BkTGfKr732WisJFy9eXGpwww03tMubBw8eXLMT9957r10e/dJLL5XydenSxcpFnYhIgoAvAe0lKvE9YsQIowjccFKU7JVXXmklN/t9+tKmPAQgAIH0CRRJ9CQtGb/88kuz1VZb2Ydr2kZkypQp6U9YCi3qYMKxY8eWtaR7zl133TVS6/fdd5+ZOnWqueGGG8rKvfXWW3afy4ULF5Ze1+nu06dPN6usskqkNrKS2cdzEcnoOYs+8D2bpjgEIAABCEQggGSMAMsz6z/+8Q8rGrX0NJh+/vOfW2GopTnB9Mknn9j8v/71r8te13JW5f+P//gPzx5RHAJfEZDsPv74483RRx9tJk6c2AHLMcccY18///zzrfAmQQACEIBAvgi0m2TUyeISWs2md955x1xzzTX2IL/x48ebU089tdmqMltOklHpxBNP9OpjLcm47777mtmzZ9v6tad43pOP50Iyes6+D3zPpikOAQhAAAIRCCAZI8CKKaue9EoeBk/f06bYEofuYA0dwqE8wU2ydQqf8mgZDwkCcRK4++67zZAhQ8zAgQNthEE4DRo0yNx///1m2rRppU3x42yfuiAAAQhAIFkC7SYZ46ZZBEEWZlIkyfjUU0+ZJ598MvH9yX08F5LR81PpA9+zaYpDAAIQgEAEAkjGCLBizPrPf/7TRoSFl+AcdthhthU9PQ+mYcOG2WizNdZYI8ZeUBUEviLw9ttvm/XWW88oelbRiiNHjrSRtfp50qRJNspRP7/66qtmzTXXBBsEIAABCOSMQLtIxlmzZhn9iStpf0eldpKMWuasZdTa4kcnbisFlzmHl0EfeOCBNk+l5dKVIhkrRT7qAfqee+5pl2q7PTFVp+p29WpbF20XdPbZZ9v2dPDhnDlz7L/79+9fOmhRh/f4RmdWu358PBeS0fNT6QPfs2mKQwACEIBABAJIxgiwEsh60003WdkoyVMpSehILmpPIBIEkiRw4YUX2uhZl9Zee23z+uuvl35WFO2xxx6bZBeoGwIQgAAEEiLQLpIxbnxF5hbek3GdddaxB90oaS/FI4880sq6jz76yGhFg+4RnATs3bt3SeS5FTaN7MkoAagHmXp4Pm7cOLP55psbRSFqSboevOvBppKThMFoS7Wj7y1uT0e9N3/+fCshJS7176TkoruufDwXktHz0+kD37NpikMAAhCAQAQCSMYIsBLK+t5779kbt8mTJ5e1MHz4cLs8erXVVkuoZaqFQDkBLYc+88wzzbPPPmu++OILs9xyy5k+ffqY0047zS6nJkEAAhCAQD4JFFmWJTkjReZWbbm0IhUVgXjLLbeYbt26WbzKK7HYt2/fDu81sydjsG33b8lHyUy3h6ObVxfNGIx21HuSk7p31qF0SMaEPgXuA6DqWx3Oi2RMaJKpFgIQgEDMBJCMMQP1qO72228vRZJJLu69994etVEUAs0T+MUvfmG0ROz00083+jcJAhCAAATyTaDIsizJmSkyt1ZKRrckW5GNWpqtvzt37lwW4RieVyRjkld6lbqRjC2ATpMQgAAEck4AyZitCfzggw9sh772ta9lq2P0pq0IIBnbaroZLAQg0AYEiizLkpy+InNrRjJGXS5d63Tp4EGGbqm1+jRjxozSkujg3NaTjFOnTu2wL2Tc14ZPMB3LpT1nwwe+Z9MUhwAEIACBCASQjBFgkRUCbUIAydgmE80wIQCBtiFQZFmW5CQWmVt4T0ZxvPfeeysuiXbLpSUZwwe/nHLKKfaQGC1bDqZwPr0XPEBGS5wHDx5s21S9LgUPfnF9cnLTHQ6j14PLpYNtcfBLjJ8IIhljhElVEIAABNqEAJKxTSaaYUIgAoEFCxbY3D179oxQiqwQgAAEIJBVAkWWZUkyh5s/3SIx9AmmI5LR81ryge/ZNMUhAAEIQCACASRjBFhkhQAEIAABCEAAAjkkUCTRkyZ+uPnTLhJDH8+FZPS8lnzgezZNcQhAAAIQiEAAyRgBFlkhAAEIQAACEIBADgkUSfSkiR9u/rSLxNDHcyEZPa8lH/ieTVMcAhCAAAQiEEAyRoBFVgi0CYHJkyfb06W1LxKnS7fJpDNMCECg0ASKJHrSnCi4+dMuEkMfz4Vk9LyWfOB7Nk1xCEAAAhCIQADJGAEWWSHQJgQ4+KVNJpphQgACbUOgSKInzUmDmz/tIjH08VxIRs9ryQe+Z9MUhwAEIACBCASQjBFgkRUCbUIAydgmE80wIQCBtiFQJNGT5qTBzZ92kRj6eC4ko+e15APfs2mKQwACEIBABAJIxgiwyAqBNiGAZGyTiWaYEIBA2xAokuhJc9Lg5k+7SAx9PBeS0fNa8oHv2TTFIQABCEAgAgEkYwRYZIVAmxBAMrbJRDNMCECgbQgUSfSkOWlw86ddJIY+ngvJ6Hkt+cD3bJriEIAABCAQgQCSMQIsskKgTQgsWLDAjrRnz55tMmKGCQEIQKDYBIoketKcKbj50y4SQx/PhWT0vJZ84Hs2TXEIQAACEIhAAMkYARZZIQABCEAAAhCAQA4JFEn0pIkfbv60i8TQx3MhGT2vJR/4nk1THAIQgAAEIhBAMkaARVYIQAACEIAABCCQQwJFEj1p4oebP+0iMfTxXEhGz2vJB75n0xSHAAQgAIEIBJCMEWCRFQJtQmDy5MnmjDPOMAcddJDR/owkCEAAAhDIJgHdx3Xp0sV07dq1ZgeLJHrSnAm4+dMuEkMfz4Vk9LyWfOB7Nk1xCEAAAhCIQADJGAEWWSHQJgQ4+KVNJpphQgACuSeg+7jNN9/cnH766Wb06NFVx1Mk0ZPmpMHNn3aRGPp4LiSj57XkA9+zaYpDAAIQgEAEAkjGCLDICoE2IYBkbJOJZpgQgEDuCbj7OA2kb9++Nvp84MCBHcZVJNGT5qTBzZ92kRj6eC4ko+e15APfs2mKQwACEIBABAJIxgiwyAqBNiGAZGyTiWaYEIBA7gkEJaMbzNChQ21kY69evUrjK5LoSXPS4OZPu0gMfTwXktHzWvKB79k0xSEAAQhAIAIBJGMEWGSFQJsQQDK2yUQzTAhAIPcEKklGN6iTTjrJysYVVljBFEn0pDlpcPOnXSSGPp4Lyeh5LfnA92ya4hCAAAQgEIEAkjECLLJCoE0ILFiwwI60Z8+ebTJihgkBCEAgnwRqSUaNqHv37lY0Hn744XaAS5cuzedAW9TrIgmyFiEslOD28VxIRs8r0Ae+Z9MUhwAEIACBCASQjBFgkRUCbUZAp0wffPDBZaMePny4uf766+1rvA8frg8+H8FfEPx+aO3vx0b+i0IyNkLpX3mQjNF4VcpdJIY+ngvJ6Hkt+cD3bJriEIAABCAQgQCSMQIsskKgzQggEZGISEQkIhLxXwSyLlEb+S8KydgIJSRjNEq1cyMZv+KDZPS8qpCMngApDgEIQCAlAkjGlEDTDAQgAAEIQAACEIiZAMulYwYaqq5IgixZUtVrLxJDH8+FZPS8An3gezZNcQhAAAIQiEAAyRgBFlkhAAEIQAACEIBAhghw8Euyk1EkQZYsKSRjPb5IxnqE6ryPZPQESHEIQAACKRFAMqYEmmYgAAEIQAACEIBAzAQqScahQ4faw1569epVag1Z1hx4uDXHLViqSAx9PBeS0fNa8oHv2TTFIQABCEAgAgEkYwRYZIUABCAAAQhAAAIZIhCUjFtssYWViwMHDuzQwyKJnjTxw82fdpEY+nguJKPnteQD37NpikMAAhCAQAQCSMYIsMgKAQhAAAIQgAAEMkRA93Gbb765lYujR4+u2rMiiZ408cPNn3aRGPp4LiSj57XkA9+zaYpDAAIQgEAEAkjGCLDICgEIQAACEIAABDJEQPdxXbp0MV27dq3ZqyKJnjTxw82fdpEY+nguJKPnteQD37NpikMAAhCAQAQCSMYIsMgKAQhAAAIQgAAEckigSKInTfxw86ddJIY+ngvJ6Hkt+cD3bJriEIAABCAQgQCSMQIsskIAAhCAAAQgAIEcEiiS6EkTP9z8aReJoY/nQjJ6Xks+8D2bpjgEIAABCEQggGSMAIusEIAABCAAAQhAIIcEiiR60sQPN3/aRWLo47mQjJ7Xkg98z6YpDgEIQAACEQggGSPAIisEIAABCEAAAhDIIYEiiZ408cPNn3aRGPp4LiSj57XkA9+zaYpDAAIQgEAEAkjGCLDICgEIQAACEIAABHJIoEiiJ038cPOnXSSGPp4Lyeh5LfnA92ya4hCAAAQgEIEAkjECLLJCAAIQgAAEIACBHBIokuhJEz/c/GkXiaGP50Iyel5LPvA9m6Y4BCAAAQhEIIBkjACLrBCAAAQgAAEIQCCHBIoketLEDzd/2kVi6OO5kIye15IPfM+mKQ4BCEAAAhEIIBkjwCIrBCAAAQhAAAIQyCGBIomeNPHDzZ92kRj6eC4ko+e15APfs2mKQwACEIBABAJIxgiwyAoBCEAAAhCAAARySKBIoidN/HDzp10khj6eC8noeS35wPdsmuIQgAAEIBCBAJIxAiyyQgACEIAABCAAgRwSKJLoSRM/3PxpF4mhj+dCMnpeSz7wPZumOAQgAAEIRCCAZIwAi6wQgAAEIAABCEAghwSKJHrSxA83f9pFYujjuZCMnteSD3zPpikOAQhAAAIRCCAZI8AiKwQgAAEIQAACEMghgSKJnjTxw82fdpEY+nguJKPnteQD37NpikMAAhCAQAQCSMYIsMgKAQhAAAIQgAAEckigSKInTfxw86ddJIY+ngvJ6Hkt+cD3bJriEIAABCAQgQCSMQIsskIAAhCAAAQgAIEcEiiS6EkTP9z8aReJoY/nQjJ6Xks+8D2bpjgEIAABCEQggGSMAIusEIAABCAAAQhAIIcEiiR60sQPN3/aRWLo47mQjJ7Xkg98z6YpDgEIQAACEQggGSPAIisEIAABCEAAAhDIIYEiiZ408cPNn3aRGPp4LiSj57XkA9+zaYpDAAIQgEAEAkjGCLDICgEIQAACEIAABHJIoEiiJ038cPOnXSSGPp4Lyeh5LfnA92ya4hCAAAQgEIEAkjECLLJCAAIQgAAEIACBHBIokuhJEz/c/GkXiaGP50Iyel5LPvA9m6Y4BCAAAQhEIIBkjACLrBCAAAQgAAEIQCCHBIoketLEDzd/2kVi6OO5kIye15IPfM+mKQ4BCEAAAhEIIBkjwCIrBCAAAQhAAAIQyCGBIomeNPHDzZ92kRj6eC4ko+e15APfs2mKQwACEIBABAJIxgiwyAoBCEAAAhCAAARySKBIoidN/HDzp10khj6eC8noeS35wPdsmuIQgAAEIBCBAJIxAiyyQgACEIAABCAAgRwSKJLoSRM/3PxpF4mhj+dCMnpeSz7wPZumOAQgAAEIRCCAZIwAi6wQgAAEIAABCEAghwSKJHrSxA83f9pFYujjuZCMnteSD3zPpikOAQhAAAIRCCAZI8AiKwQgAAEIQAACEMghgSKJnjTxw82fdpEY+nguJKPnteQD37NpikMAAhCAQAQCSMYIsMgKAQhAAAIQgAAEckigSKInTfxw86ddJIY+ngvJ6Hkt+cD3bJriEIAABCAQgQCSMQIsskIAAhCAAAQgAIEcEiiS6EkTP9z8aReJoY/nQjJ6Xks+8D2bpjgEIAABCEQggGSMAIusEIAABCAAAQhAIIcEiiR60sQPN3/aRWLo47mQjJ7Xkg98z6YpDgEIQAACEQggGSPAIisEIAABCEAAAhDIIYEiiZ408cPNn3aRGPp4LiSj57XkA9+zaYpDAAIQgEAEAkjGCLDICgEIQAACEIAABHJIoEiiJ038cPOnXSSGPp4Lyeh5LfnA92ya4hCAAAQgEIEAkjECLLJCAAIQgAAEIACBHBIokuhJEz/c/GkXiaGP50Iyel5LPvA9m6Y4BCAAAQhEIIBkjACLrBCAAAQgAAEIQCCHBIoketLEDzd/2kVi6OO5kIye15IPfM+mKQ4BCEAAAhEIIBkjwCIrBCAAAQhAAAIQyCGBIomeNPHDzZ92kRj6eC4ko+e15APfs2mKQwACEIBABAJIxgiwyAoBCEAAAhCAAARySKBIoidN/HDzp10khj6eC8noeS35wPdsmuIQgAAEIBCBAJIxAiyyQgACEIAABCAAgRwSKJLoSRM/3PxpF4mhj+dCMnpeSz7wPZumOAQgAAEIRCCAZIwAi6wQgAAEIAABCEAghwSKJHrSxA83f9pFYujjuZCMnteSD3zPpikOAQhAAAIRCCAZI8AiKwQgAAEIQAACEMghgSKJnjTxw82fdpEY+nguJKPnteQD37NpikMAAhCAQAQCSMYIsMgKAQhAAAIQgAAEckigSKInTfxw86ddJIY+ngvJ6Hkt+cD3bJriEIAABCAQgQCSMQIsskIAAhCAAAQgAIEcEiiS6EkTP9z8aReJoY/nQjJ6Xks+8D2bpjgEIAABCEQggGSMAIusEIAABCAAAQhAIIcEiiR60sQPN3/aRWLo47mQjJ7Xkg98z6YpDgEIQAACEQggGSPAIisEIAABCEAAAhDIIYEiiZ408cPNn3aRGPp4LiSj57XkA9+zaYpDAAIQgEAEAkjGCLDICgEIQAACEIAABHJIoEiiJ038cPOnXSSGPp4Lyeh5LfnA92ya4hCAAAQgEIEAkjECLLJCAAIQgAAEIACBHBJwoieHXc9El5cuXZqJfuSxE0jGr2YNyeh59SIZPQFSHAIQgEBKBJCMKYGmGQhAAAIQgAAEINAiAkhGP/BIxub5IRmRjM1fPYGSSMZYMFIJBCAAgcQJIBkTR0wDEIAABCAAAQhAAAIQaEsCSEYkYywXPpIxFoxUAgEIQCBxAkjGxBHTAAQgAAEIQAACEIAABNqSAJIRyRjLhY9kjAUjlUAAAhBInACSMXHENAABCEAAAhCAAAQgAIG2JIBkRDLGcuEjGWPBSCUQgAAEEieAZEwcMQ1AAAIQgAAEIAABCECgLQkgGZGMsVz4SMZYMFIJBCAAgcQJIBkTR0wDEIAABCAAAQhAAAIQaEsCSEYkYywXPpIxFoxUAgEIQCBxAkjGxBHTAAQgAAEIQAACEIAABNqSAJIRyRjLhY9kjAUjlUAAAhBInACSMXHENAABCEAAAhCAAAQgAIG2JIBkRDLGcuEjGWPBSCUQgAAEEieAZEwcMQ1AAAIQgAAEIAABCECgLQkgGZGMsVz4SMZYMFIJBCAAgcQJIBkTR0wDEIAABCAAAQhAAAIQaEsCSEYkYywXPpIxFoxUAgEIQCBxAkjGxBHTAAQgAAEIQAACEIAABNqSAJIRyRjLhY9kjAUjlUAAAhBInACSMXHENAABCEAAAhCAAAQgAIG2JIBkRDLGcuEjGWPBSCUQgAAEEieAZEwcMQ1AAAIQgAAEIAABCECgLQkgGZGMsVz4SMZYMFIJBCAAgcQJIBkTR0wDEIAABCAAAQhkmMB9991nBg8eXNbDCRMmmBNPPLH02nnnnWfGjh1blufee+812267rRk2bJgZN26c2Xzzzcver1TmhhtusHkXLlzYgYjqU6rXl0oo33rrLdOvX79SvSuvvLKZM2dOqU/hMQbf/+ijj8rGUK+ucPsu/5FHHlnG7KmnnjKTJ082l156qXF5ttlmGyMGwaR8/fv3N6eddpotH25fecPzEe6DxjBo0CDTo0ePsvpVl+Zt0qRJZpVVVjGak8svv9zMnTvXdOvWrVTN6NGjzfDhwy2vKON37e6yyy5lY8/w5Z5615CMXyFfZunSpUsbpZ8VaK4f6neE7jc6zEj5kIyRcJEZAhCAQMsIIBlbhp6GIQABCEAAAhDIAAEJuKlTp5bkVCVhJTmlFBSP+jks6ILDqVbG5Qm3q9crvVYPkZN0t956q9l1111tdr02ZMgQM23aNCvOwvXq/UMPPdTMmDHDdO7cuSQZN9poIyvrjjvuuFJd9dqXlNt3333NokWLbH1O3oUlY6U8qlucbr75ZrPffvuVJKPy3nLLLbYuNx+1+uTm4bXXXjPXXXddSa5WkozBttzYnGSMOn6Ncfz48aZLly4lkVmPVzPvaxwSmddee20Hmd1MfWmWyYovi2PMPp4Lyeg5Az7wPZumOAQgAAEIRCCAZIwAi6wQgAAEIAABCBSOQCWxF5Y6WZaMBx10kOndu3cHAao+z58/38rTSiLVRWBKrLl/r7XWWpFllhN5a6+9tnn99ddLsraSZOzTp4/ZcccdSwLTCUq93r1794qS0YlI/R2WvO5ilGQcOXKk2WqrrYxk6/Tp023kYiXJKCF4xRVXlAk7Jxmjjl+MxX7mzJmlSMjCfUA8B4Rk/AogktH3Qrr2FVvD0kPX96yJ4hCAAAQgkCQBJGOSdKkbAhCAAAQgAIGsE6gWPRiUd1mVjLUiKV2U3ZQpU8xjjz1WFq2pMV9wwQVWxikFl3xr3Lo/dKKu3vw5UXj11Vebww8/vBQFWUkyKhpR0XjqkySgYy9R5ySiq89FMjYSxRfkcMkll5SkayXJqHbUnhu/+hFcLt3o+IP9nDdvnhW6QQmqem688UY7rgEDBlieH374Ydmy9lNOOcUsXrzYLikPX2PB+VM5F92p+rQEfKeddjL777+/OfDAA63YdRGtH3/8sQkuh1e9EsBX/b/27i7UquLvA/hYFJnpiQrKIMMeIkiiogyDXrwQJLJAsDDrIuzGzCKoICohDLqRMOgN/j69KFpRgRcFUQmlFykoFFgKFhSWdielqZCkD7N95jAu9z6evWet7Tn//dkQnZc1M2t9Zh0vvvxm5j//Cdu2bTtpGf3p5raO3wsZTygKGQvfJpWMhYCaEyBAoE8CQsY+QRuGAAECBAgQGJMCnULGPPSp7q84bdq01r5++VLj0+3JmNqk5cSdlkvnezJW91asAo4UwFVDsLzfFHrFgK1dUJn2cKzec7sJzMfZt2/f8DLs+HW+J2MMyWIQ+cwzzwzvYZnCvY0bN54UMo60v2S7e8ifIa9GjF9X92RMYWYeIuchY/z9aJ4/n79qMJpXkeb3W606jd/HTwwJuwkZo0++v2W7YDaFkjHoXLFiRd/DxfTcQkYhYy3/8AsZa2HUCQECBBoXEDI2TmwAAgQIECBAYAwLDFolY17F2ClkTNNV3dvxdCFjDFBTkDZnzpxTQsZYnZiq+2IFXgoA48EsKfzLA7P4s9HsRVgNSlPIFw+M6RQy5vtSvvzyy22XO4/0/HmlYnIZ6TCgahCYwsy0H2g3IWO+Z2UeiubzkwLqPMA9E3+GQkYhYy3vnZCxFkadECBAoHEBIWPjxAYgQIAAAQIExrDAIO7JGAOyBQsWtPZGHGnJdZy2/NrRhIypunLJkiXhxx9/HD5dOgVjscIxHpZy//33t/ZwjEuM84CtGsaN5jCc6jOkw2IWLlwYtmzZctLp0inMjP9PYeSUKVM67qnY7vmry7DzwDAGpu1OHG86ZMwPL8rn6XQHEDX9pylkFDLW8o4JGWth1AkBAgQaFxAyNk5sAAIECBAgQGAMC1RDrBgGVZejjtU9GSNrnadLV5d8j2Y/xE7hWVyenfYLrF4Tg7sYim3evLl1WvJIIWM3p0svX758+PTl5DJz5szh/SWr85j67rRXYafnb/c+5M8YqzXToTv5q3+65dJ5mzhGPK077eWY78lYrWRM7+zrr79+yqngQsb6/vEpybnsyVg4DyX4hUNrToAAAQJdCAgZu8ByKQECBAgQIPBfJ5D238sfLC6zzQ/xqO7JGK9NS2PnzZsXNm3aNNw87WMYg6a4VDf/xDaxejB+RrMnY7yuei/tJiCFTHv27Gn9urqXY7uxUuAVT2XOT5fO90NMz5nuudPY1dArXpfvN9iuOjE/eGWkkDFZ5ddX76NTNWYe1MWl4e0Ct3xJdNzD8XTPP1LlZx4ijubglxjCxk/ck7E6h8uWLQsHDhxoVWFWD35p550f/BL7TPtu5kvRz8Qfr0rGE+pCxsK3T8hYCKg5AQIE+iQgZOwTtGEIECBAgAABAn0QyPcaTIfM9GFYQ/QgMJql4D10O6aaCBmFjLW8kELGWhh1QoAAgcYFhIyNExuAAAECBAgQINBXgVSdmVdO9vUGDDYqASHjqJjGzEUlOZdKxsJpLMEvHFpzAgQIEOhCQMjYBZZLCRAgQIAAAQJ9Fkj7BuZLstMtjGYpdR23225Jeew3LQ3vR8VkdTlweq7q0vA6nrdffZyJkLHdqdjxedP+mXU/u0rGE6JCxsI3S8hYCKg5AQIE+iQgZOwTtGEIECBAgAABAgQIDJiAkFHIWMsrL2SshVEnBAgQaFxAyNg4sQEIECBAgAABAgQIDKSAkFHIWMuLL2SshVEnBAgQaFxAyNg4sQEIECBAgACBARNIS5yfeuqp4dOkI0FcqnrkyJGwe2roCiwAABA3SURBVPfu8Pbbb4ebbrqpJZOuv+uuu8K1114b7r333tbp1dVTnePpyCtWrAibN29uta1+nzPHsb755puwdevWMHny5NDpFOy01Ll6unHsK51QHE9mHukzmhO62y37zpfo5gbVk73j2PnP6nyd2p04XWf/7fqqnrbd9Hhnsn8ho5CxlvdPyFgLo04IECDQuICQsXFiAxAgQIAAAQIDKBD3EHzppZfCunXrQgzp8lOft2/fHj755JOwZs2alkwM6V555ZXw2Wefha+//jq88MIL4YYbbhj+fQoiH3roofDLL7+Ed955ZzhkfP/998OiRYtOCuFSiPXnn3+Gzz//vBUyxrbLly8fDjbjmAsXLhwOLNsFXzGAe/PNN1tB5Uj7Llb3Fox9xcA0BakpQLzyyitPeqb8tUheQ0ND4Y033miZxU/TIWDT/QsZJ7QIjh8/Pu7/FSjJuezJWDj9JfiFQ2tOgAABAl0ICBm7wHIpAQIECBAgQKALgVhNuGDBglZFYvw6VinGirwYuqXQ75prrmlVGaaqxxjYxXAuhm3xYJcU7qWfx+FTWBgDst9//z0cOHDglGAu/nzHjh3hgw8+aBsypgBv586dreCvU3Vdft+dHr3dASb5s8f7TON06iNeE32+/PLL8PDDDw+Hob2GgDG03LZtW1iyZMmIM9Zr/128BqdcqpKxRO/MtS3JuYSMhfNWgl84tOYECBAg0IWAkLELLJcSIECAAAECBLoQSNV5Tz75ZHj11VeHqxpjFymYiyFktaoxfh8Dt/hJy4RjaDd37tzw0UcfnRQyxmtigJfCzBRgPvLII63qyJFCxry6MvbzwAMPtK7PqxbzKstOy6bbVTLmfeWBYzu+PHSLVZ7xedJzxxBwy5Yt4auvvgqHDx8O1dOk4++fffbZVrfpd/HrO+64o3V9/KRTuPNl3enajRs3ntR/vD4tVY99x0rQWGEanz19HytUH3zwwbBhw4ZWGBod58+fP/x9esb43PGTKlbT9/F+kk91KXs6sTs9U7Vt+r6L1/CMXmq59Al+IWPhayhkLATUnAABAn0SEDL2CdowBAgQIECAwEAKxGBp7dq1p+yxmJYQx2q7tMdiBEqB3RNPPDG83PrgwYOtIC2GU48++ugpIWMMJFNQGQOv9957Lzz33HMnBVnV5dJxrDzci9+3Cxmry77bTWJ1T8Y8COy0P2XeTx5SVqv8qkFfHoxWl3Dn/cSv87CyU7vqkvBqqJoqHaNxWtKelr/HsHHlypXhvvvuO2mPzfzZUsAa76Vd1Wg1VD1d2/H2RyRkFDLW8s4KGWth1AkBAgQaFxAyNk5sAAIECBAgQGCABUYK6dotM04/i/sSpmBw3759rYDqscceO2lvxRSAxQNUUkAYA80YiN18882nDRmbqmSsBounq2RMQWz+muTVhPHnqbIxX2qeDr9JVX/xunSYTDVk7LQsuvrzGHLG/vJ9IfNDdKpVnp0O6UnPkizi96kishruzpo1q3V5de/Ldm3H25+SkFHIWMs7K2SshVEnBAgQaFxAyNg4sQEIECBAgACBARboNWSMy2JTABb3V4z7FMb9G/OKxDwgS8upv/jii1bFY/zkS3LbVTLmeyXWvSdj3vdIezK2C/Xy8LUaAuYhYwxf8+rCkSoZew0ZO1WcRt+0VDstx273mqdTu/MQsZ11p+s6BZDj5U9KyChkrOVdFTLWwqgTAgQINC4gZGyc2AAECBAgQIDAAAuUhIwpeJo+fXqrCi5+OoWMcZy4D2Hcm7F6kEu706VjQLZixYoRT5fuVMFXnc5qRWYK5uIJ07ECMT3H0qVLTzoFOwV18f+pUjF+nYdwsTIzP+E6jrVs2bJW1V/8XX6gTL4HYvWeRlounY9fDT3TwTdz5swJcZ/LuEdjrGZMy6rjHpYxzE0H9+SBal7RGcdIgWhc/t5uaXq85vHHHx8OlNOBQHnbTvtijtU/MSGjkLGWd1PIWAujTggQINC4gJCxcWIDECBAgAABAgMsUBIyRrZOp1KnpcIpIKsuUc6DuurhIrFNOmAkLf9NQeCePXuGZ+vOO+8cXuI70hRW92SM16Zly6ldu/7jITbr168f3mMyHyM9d/xZDOVWrVp1ysEv6Zk3bdrUavr888+Hv/76K7z22mvDwWZ8ntMd/JIM4//zkDEuT4+fdNhKChbjz59++unh5c2xTQxU46ng8SCZGHzG5dYxJExBa+wnBZD5wS9xT8a45Dp9ottIbR38cub+MSnJuRz8UjhvJfiFQ2tOgAABAl0ICBm7wHIpAQIECBAgQIAAAQKjFlDJeIJKyDjqV6b9hULGQkDNCRAg0CcBIWOfoA1DgAABAgQIECBAYMAEhIxCxlpeeSFjLYw6IUCAQOMCQsbGiQ1AgAABAgQIEBj3Au1OgI4PVV0WPe4f1APUKiBkFDLW8kIJGWth1AkBAgQaFxAyNk5sAAIECBAgQIAAAQIDKSBkFDLW8uILGWth1AkBAgQaFxAyNk5sAAIECBAgQIAAAQIDKSBkFDLW8uILGWth1AkBAgQaFxAyNk5sAAIECBAgQIAAAQIDKSBkFDLW8uILGWth1AkBAgQaFxAyNk5sAAIECBAgQIAAAQIDKSBkFDLW8uILGWth1AkBAgQaFxAyNk5sAAIECBAgQIAAAQIDKSBkFDLW8uILGWth1AkBAgQaFxAyNk5sAAIECBAgQIAAAQIDKSBkFDLW8uILGWth1AkBAgQaFxAyNk5sAAIECBAgQIAAAQIDKSBkFDLW8uILGWth1AkBAgQaFxAyNk5sAAIECBAgQIAAAQIDKSBkFDLW8uILGWth1AkBAgQaFxAyNk5sAAIECBAgQIAAAQIDKSBkHOCQcffu3WHdunXh8OHD4d9//w0vvvhiGBoa6ukPQcjYE5tGBAgQ6LuAkLHv5AYkQIAAAQIECBAgMBACQsYBDhm3b98eDh06FP7+++9wySWXhGnTpoWpU6f29OILGXti04gAAQJ9FxAy9p3cgAQIECBAgAABAgQGQkDIOMAh4/Hjx8OxY8fC1q1bw969e8P8+fPDOeec09OLL2TsiU0jAgQI9F0ghYx9H9iABAgQIECAAAECBAgMhEDMm8b7pyTnmnC8C4Gxksym+4gT18XtD8/zTz/91Pr66quvDt9++22YPn26Ssbx/lfg/gkQIHAaASGjV4QAAQIECBAgQIAAgSYFesmomryfXvoWMnahdvTo0fDxxx+H/fv3h8suuyxcfvnl4dZbbw15cNlFd6EEv5txXEuAAAECBAgQIECAAAECBAgQIECgSYGSnGsgKxnjfoyrV68OBw8eDFOmTAmLFy8OkydP7mmOSvB7GlAjAgQIECBAgAABAgQIECBAgAABAg0IlORcAxkybtu2LZx77rnh+uuvL56OEvziwXVAgAABAgQIECBAgAABAgQIECBAoCaBkpxrIEPGX3/9NaxZsybMmDEjTJo0KcyePTtMnDixp+kowe9pQI0IECBAgAABAgQIECBAgAABAgQINCBQknMNZMhY5xyU4Nd5H/oiQIAAAQIECBAgQIAAAQIECBAgUCJQknMNZMi4d+/e8NZbb4XrrrsuDA0NhRtvvDFceumlPc1BCX5PA2pEgAABAgQIECBAgAABAgQIECBAoAGBkpxrIEPG77//Phw4cCAcO3as9V9cNi1kbODN1CUBAgQIECBAgAABAgQIECBAgMC4ERAydjlVR48eDevXrw+7du0K8+bNC7fddluYMGFCl72cuLwEv6cBNSJAgAABAgQIECBAgAABAgQIECDQgEBJzjWQlYw7d+4Ma9euDffcc084cuRI2LBhQ1i6dGmrorHbTwl+t2O5ngABAgQIECBAgAABAgQIECBAgEBTAiU510CGjN99910477zzQtyb8eeffw633HJL+OOPP8Ldd9/d9RyV4Hc9mAYECBAgQIAAAQIECBAgQIAAAQIEGhIoybkGMmSM4eKqVavCxIkTw1lnnRUuuOCCcPvtt4dZs2Z1PUUl+F0PpgEBAgQIECBAgAABAgQIECBAgACBhgRKcq6BDBmPHz8e9u/fH/75559w9tlnh4svvrj1/14+Jfi9jKcNAQIECBAgQIAAAQIECBAgQIAAgSYESnKugQwZ4+nSP/zwQ4hhYzxl+qGHHgpDQ0M9zU0Jfk8DakSAAAECBAgQIECAAAECBAgQIECgAYGSnGsgQ8YdO3a0wsXffvstnH/++WHmzJlh6tSpPU1NCX5PA2pEgAABAgQIECBAgAABAgQIECBAoAGBkpxrIEPGNAfxsJfDhw+Hq666KkyYMKGnqSnB72lAjQgQIECAAAECBAgQIECAAAECBAg0IFCScw1cyLhx48awevXqMGPGjFawOGXKlLB48eIwefLknqamBL+nATUiQIAAAQIECBAgQIAAAQIECBAg0IBASc41cCFj3Idx165d4dNPPw1XXHFFmDt3buvgl14/Jfi9jqkdAQIECBAgQIAAAQIECBAgQIAAgboFSnKugQsZE/6hQ4fChx9+GLZu3RpWrlwZLrzwwp7mpQS/pwE1IkCAAAECBAgQIECAAAECBAgQINCAQEnONXAh4549e8K7774bLrroorBo0aKiKsY4lyX4DbwLuiRAgAABAgQIECBAgAABAgQIECDQk0BJzjVwIePevXvDli1bhqEnTZoUZs+eHSZOnNh3/J4G1IgAAQIECBAgQIAAAQIECBAgQIBAAwJCxgZQR9tlCf5ox3AdAQIECBAgQIAAAQIECBAgQIAAgaYFSnKugatkrHsySvDrvhf9ESBAgAABAgQIECBAgAABAgQIEOhVoCTnEjL2qv7/7UrwC4fWnAABAgQIECBAgAABAgQIECBAgEBtAiU5l5CxcBpK8AuH1pwAAQIECBAgQIAAAQIECBAgQIBAbQIlOZeQsXAaSvALh9acAAECBAgQIECAAAECBAgQIECAQG0CJTmXkLFwGkrwC4fWnAABAgQIECBAgAABAgQIECBAgEBtAiU5l5CxcBpK8AuH1pwAAQIECBAgQIAAAQIECBAgQIBAbQIlOVdPIWNtd/7f0NH//vzf8BSegQABAgQIECBAgAABAgQIECBAgEBL4Pgj/9O1hJCxa7JKAyFjqaD2BAgQIECAAAECBAgQIECAAAECY0ig8ZBxDD2rWyFAgAABAgQIECBAgAABAgQIECBAYIwIdFXJOEbu2W0QIECAAAECBAgQIECAAAECBAgQIDCGBISMY2gy3AoBAgQIECBAgAABAgQIECBAgACB8SggZByPs+aeCRAgQIAAAQIECBAgQIAAAQIECIwhASHjGJoMt0KAAAECBAgQIECAAAECBAgQIEBgPAoIGcfjrLlnAgQIECBAgAABAgQIECBAgAABAmNIQMg4hibDrRAgQIAAAQIECBAgQIAAAQIECBAYjwJCxvE4a+6ZAAECBAgQIECAAAECBAgQIECAwBgSEDKOoclwKwQIECBAgAABAgQIECBAgAABAgTGo4CQcTzOmnsmQIAAAQIECBAgQIAAAQIECBAgMIYE/g8GCdX7JroW5gAAAABJRU5ErkJggg==;" vertex="1" parent="1">
          <mxGeometry x="1340" y="50" width="671.69" height="350" as="geometry" />
        </mxCell>
      </root>
    </mxGraphModel>
  </diagram>
</mxfile>
